G04 #@! TF.GenerationSoftware,KiCad,Pcbnew,8.0.3*
G04 #@! TF.CreationDate,2024-06-20T09:06:03+12:00*
G04 #@! TF.ProjectId,crt_card_edge_adapter,6372745f-6361-4726-945f-656467655f61,rev?*
G04 #@! TF.SameCoordinates,Original*
G04 #@! TF.FileFunction,Soldermask,Top*
G04 #@! TF.FilePolarity,Negative*
%FSLAX46Y46*%
G04 Gerber Fmt 4.6, Leading zero omitted, Abs format (unit mm)*
G04 Created by KiCad (PCBNEW 8.0.3) date 2024-06-20 09:06:03*
%MOMM*%
%LPD*%
G01*
G04 APERTURE LIST*
%ADD10C,5.200000*%
%ADD11R,3.000000X3.000000*%
%ADD12C,3.000000*%
%ADD13R,9.800000X2.100000*%
%ADD14R,1.700000X1.700000*%
%ADD15O,1.700000X1.700000*%
%ADD16C,0.600000*%
G04 APERTURE END LIST*
D10*
X107442000Y-71628000D03*
D11*
X119380000Y-73660000D03*
D12*
X119380000Y-78740000D03*
X119380000Y-83820000D03*
X119380000Y-88900000D03*
D11*
X119380000Y-96520000D03*
D12*
X119380000Y-101600000D03*
X119380000Y-106680000D03*
X119380000Y-111760000D03*
D13*
X91440000Y-74890000D03*
X91440000Y-78850000D03*
X91440000Y-82810000D03*
X91440000Y-86770000D03*
X91440000Y-90730000D03*
X91440000Y-94690000D03*
X91440000Y-98650000D03*
X91440000Y-102610000D03*
X91440000Y-106570000D03*
X91440000Y-110530000D03*
D14*
X105410000Y-81280000D03*
D15*
X105410000Y-83820000D03*
X105410000Y-86360000D03*
X105410000Y-88900000D03*
X105410000Y-91440000D03*
X105410000Y-93980000D03*
X105410000Y-96520000D03*
X105410000Y-99060000D03*
X105410000Y-101600000D03*
X105410000Y-104140000D03*
D14*
X109220000Y-81280000D03*
D15*
X109220000Y-83820000D03*
X109220000Y-86360000D03*
X109220000Y-88900000D03*
X109220000Y-91440000D03*
X109220000Y-93980000D03*
X109220000Y-96520000D03*
X109220000Y-99060000D03*
X109220000Y-101600000D03*
X109220000Y-104140000D03*
D10*
X107442000Y-113792000D03*
D16*
X97282000Y-110530000D03*
X97536000Y-74930000D03*
X97231200Y-98602800D03*
X97536000Y-90728800D03*
X97383600Y-82804000D03*
X97536000Y-78841600D03*
X97485200Y-102616000D03*
X97485200Y-86766400D03*
X97434400Y-94691200D03*
X97332800Y-106578400D03*
M02*
