G04 #@! TF.GenerationSoftware,KiCad,Pcbnew,8.0.3*
G04 #@! TF.CreationDate,2024-06-20T09:06:03+12:00*
G04 #@! TF.ProjectId,crt_card_edge_adapter,6372745f-6361-4726-945f-656467655f61,rev?*
G04 #@! TF.SameCoordinates,Original*
G04 #@! TF.FileFunction,Copper,L2,Bot*
G04 #@! TF.FilePolarity,Positive*
%FSLAX46Y46*%
G04 Gerber Fmt 4.6, Leading zero omitted, Abs format (unit mm)*
G04 Created by KiCad (PCBNEW 8.0.3) date 2024-06-20 09:06:03*
%MOMM*%
%LPD*%
G01*
G04 APERTURE LIST*
G04 #@! TA.AperFunction,ComponentPad*
%ADD10R,3.000000X3.000000*%
G04 #@! TD*
G04 #@! TA.AperFunction,ComponentPad*
%ADD11C,3.000000*%
G04 #@! TD*
G04 #@! TA.AperFunction,ConnectorPad*
%ADD12R,9.800000X2.100000*%
G04 #@! TD*
G04 #@! TA.AperFunction,ComponentPad*
%ADD13R,1.700000X1.700000*%
G04 #@! TD*
G04 #@! TA.AperFunction,ComponentPad*
%ADD14O,1.700000X1.700000*%
G04 #@! TD*
G04 #@! TA.AperFunction,ViaPad*
%ADD15C,0.600000*%
G04 #@! TD*
G04 #@! TA.AperFunction,Conductor*
%ADD16C,0.800000*%
G04 #@! TD*
G04 #@! TA.AperFunction,Conductor*
%ADD17C,0.200000*%
G04 #@! TD*
G04 APERTURE END LIST*
D10*
X119380000Y-73660000D03*
D11*
X119380000Y-78740000D03*
X119380000Y-83820000D03*
X119380000Y-88900000D03*
D10*
X119380000Y-96520000D03*
D11*
X119380000Y-101600000D03*
X119380000Y-106680000D03*
X119380000Y-111760000D03*
D12*
X91440000Y-74890000D03*
X91440000Y-78850000D03*
X91440000Y-82810000D03*
X91440000Y-86770000D03*
X91440000Y-90730000D03*
X91440000Y-94690000D03*
X91440000Y-98650000D03*
X91440000Y-102610000D03*
X91440000Y-106570000D03*
X91440000Y-110530000D03*
D13*
X105410000Y-81280000D03*
D14*
X105410000Y-83820000D03*
X105410000Y-86360000D03*
X105410000Y-88900000D03*
X105410000Y-91440000D03*
X105410000Y-93980000D03*
X105410000Y-96520000D03*
X105410000Y-99060000D03*
X105410000Y-101600000D03*
X105410000Y-104140000D03*
D13*
X109220000Y-81280000D03*
D14*
X109220000Y-83820000D03*
X109220000Y-86360000D03*
X109220000Y-88900000D03*
X109220000Y-91440000D03*
X109220000Y-93980000D03*
X109220000Y-96520000D03*
X109220000Y-99060000D03*
X109220000Y-101600000D03*
X109220000Y-104140000D03*
D15*
X97282000Y-110530000D03*
X97536000Y-74930000D03*
X97231200Y-98602800D03*
X97536000Y-90728800D03*
X97383600Y-82804000D03*
X97536000Y-78841600D03*
X97485200Y-102616000D03*
X97485200Y-86766400D03*
X97434400Y-94691200D03*
X97332800Y-106578400D03*
D16*
X91440000Y-74890000D02*
X97496000Y-74890000D01*
X97282000Y-110530000D02*
X91440000Y-110530000D01*
X109220000Y-96520000D02*
X113639600Y-92100400D01*
X97184000Y-98650000D02*
X97231200Y-98602800D01*
X113639600Y-76200000D02*
X116179600Y-73660000D01*
X116179600Y-73660000D02*
X119380000Y-73660000D01*
X91440000Y-98650000D02*
X97184000Y-98650000D01*
X113639600Y-92100400D02*
X113639600Y-76200000D01*
D17*
X98247200Y-91440000D02*
X97536000Y-90728800D01*
D16*
X91440000Y-90730000D02*
X97534800Y-90730000D01*
X97534800Y-90730000D02*
X97536000Y-90728800D01*
D17*
X105410000Y-91440000D02*
X98247200Y-91440000D01*
X105410000Y-91440000D02*
X109220000Y-91440000D01*
X105410000Y-86360000D02*
X100939600Y-86360000D01*
D16*
X91440000Y-82810000D02*
X97377600Y-82810000D01*
D17*
X100939600Y-86360000D02*
X97383600Y-82804000D01*
X109220000Y-86360000D02*
X105410000Y-86360000D01*
D16*
X97377600Y-82810000D02*
X97383600Y-82804000D01*
D17*
X105410000Y-83820000D02*
X102514400Y-83820000D01*
X102514400Y-83820000D02*
X97536000Y-78841600D01*
D16*
X97527600Y-78850000D02*
X97536000Y-78841600D01*
D17*
X109220000Y-83820000D02*
X105410000Y-83820000D01*
D16*
X91440000Y-78850000D02*
X97527600Y-78850000D01*
X97485200Y-102616000D02*
X97479200Y-102610000D01*
D17*
X105410000Y-99060000D02*
X101041200Y-99060000D01*
D16*
X91440000Y-102610000D02*
X97479200Y-102610000D01*
D17*
X109220000Y-99060000D02*
X112471200Y-99060000D01*
X112471200Y-99060000D02*
X115011200Y-96520000D01*
X101041200Y-99060000D02*
X97485200Y-102616000D01*
X105410000Y-99060000D02*
X109220000Y-99060000D01*
X115011200Y-96520000D02*
X119380000Y-96520000D01*
D16*
X91440000Y-86770000D02*
X97481600Y-86770000D01*
X97481600Y-86770000D02*
X97485200Y-86766400D01*
D17*
X109220000Y-88900000D02*
X105410000Y-88900000D01*
X99618800Y-88900000D02*
X97485200Y-86766400D01*
X105410000Y-88900000D02*
X99618800Y-88900000D01*
X98145600Y-93980000D02*
X97434400Y-94691200D01*
X105410000Y-93980000D02*
X109220000Y-93980000D01*
X105410000Y-93980000D02*
X98145600Y-93980000D01*
D16*
X91440000Y-94690000D02*
X97434400Y-94691200D01*
X97434400Y-94691200D02*
X97435600Y-94690000D01*
D17*
X105410000Y-101600000D02*
X100431600Y-106578400D01*
X100431600Y-106578400D02*
X97332800Y-106578400D01*
X105410000Y-101600000D02*
X109220000Y-101600000D01*
D16*
X97332800Y-106578400D02*
X97324400Y-106570000D01*
X91440000Y-106570000D02*
X97324400Y-106570000D01*
G04 #@! TA.AperFunction,Conductor*
G36*
X106262155Y-69100185D02*
G01*
X106307910Y-69152989D01*
X106317854Y-69222147D01*
X106288829Y-69285703D01*
X106248918Y-69316220D01*
X106182109Y-69348393D01*
X105934795Y-69503791D01*
X105706435Y-69685901D01*
X105499901Y-69892435D01*
X105317791Y-70120795D01*
X105162393Y-70368109D01*
X105035665Y-70631261D01*
X104939197Y-70906953D01*
X104939196Y-70906955D01*
X104874202Y-71191714D01*
X104874199Y-71191728D01*
X104841500Y-71481952D01*
X104841500Y-71774047D01*
X104874199Y-72064271D01*
X104874201Y-72064283D01*
X104874202Y-72064286D01*
X104885122Y-72112128D01*
X104939196Y-72349044D01*
X104939197Y-72349046D01*
X105035665Y-72624738D01*
X105162393Y-72887890D01*
X105162395Y-72887893D01*
X105317792Y-73135206D01*
X105499902Y-73363565D01*
X105706435Y-73570098D01*
X105934794Y-73752208D01*
X106182107Y-73907605D01*
X106445263Y-74034335D01*
X106720955Y-74130803D01*
X107005714Y-74195798D01*
X107005723Y-74195799D01*
X107005728Y-74195800D01*
X107199210Y-74217599D01*
X107295953Y-74228499D01*
X107295956Y-74228500D01*
X107295959Y-74228500D01*
X107588044Y-74228500D01*
X107588045Y-74228499D01*
X107736371Y-74211787D01*
X107878271Y-74195800D01*
X107878274Y-74195799D01*
X107878286Y-74195798D01*
X108163045Y-74130803D01*
X108438737Y-74034335D01*
X108701893Y-73907605D01*
X108949206Y-73752208D01*
X109177565Y-73570098D01*
X109384098Y-73363565D01*
X109566208Y-73135206D01*
X109721605Y-72887893D01*
X109848335Y-72624737D01*
X109944803Y-72349045D01*
X110009798Y-72064286D01*
X110042500Y-71774041D01*
X110042500Y-71481959D01*
X110009798Y-71191714D01*
X109944803Y-70906955D01*
X109848335Y-70631263D01*
X109766917Y-70462198D01*
X109721606Y-70368109D01*
X109721605Y-70368107D01*
X109566208Y-70120794D01*
X109384098Y-69892435D01*
X109177565Y-69685902D01*
X108949206Y-69503792D01*
X108701893Y-69348395D01*
X108701890Y-69348393D01*
X108635082Y-69316220D01*
X108583223Y-69269397D01*
X108564910Y-69201970D01*
X108585958Y-69135346D01*
X108639684Y-69090678D01*
X108688884Y-69080500D01*
X124470500Y-69080500D01*
X124537539Y-69100185D01*
X124583294Y-69152989D01*
X124594500Y-69204500D01*
X124594500Y-116215500D01*
X124574815Y-116282539D01*
X124522011Y-116328294D01*
X124470500Y-116339500D01*
X108688884Y-116339500D01*
X108621845Y-116319815D01*
X108576090Y-116267011D01*
X108566146Y-116197853D01*
X108595171Y-116134297D01*
X108635082Y-116103780D01*
X108663431Y-116090127D01*
X108701893Y-116071605D01*
X108949206Y-115916208D01*
X109177565Y-115734098D01*
X109384098Y-115527565D01*
X109566208Y-115299206D01*
X109721605Y-115051893D01*
X109848335Y-114788737D01*
X109944803Y-114513045D01*
X110009798Y-114228286D01*
X110042500Y-113938041D01*
X110042500Y-113645959D01*
X110020109Y-113447226D01*
X110009800Y-113355728D01*
X110009799Y-113355723D01*
X110009798Y-113355714D01*
X109944803Y-113070955D01*
X109848335Y-112795263D01*
X109721605Y-112532107D01*
X109566208Y-112284794D01*
X109384098Y-112056435D01*
X109177565Y-111849902D01*
X109064829Y-111759998D01*
X117374390Y-111759998D01*
X117374390Y-111760001D01*
X117394804Y-112045433D01*
X117455628Y-112325037D01*
X117555635Y-112593166D01*
X117692770Y-112844309D01*
X117692775Y-112844317D01*
X117864254Y-113073387D01*
X117864270Y-113073405D01*
X118066594Y-113275729D01*
X118066612Y-113275745D01*
X118295682Y-113447224D01*
X118295690Y-113447229D01*
X118546833Y-113584364D01*
X118546832Y-113584364D01*
X118546836Y-113584365D01*
X118546839Y-113584367D01*
X118814954Y-113684369D01*
X118814960Y-113684370D01*
X118814962Y-113684371D01*
X119094566Y-113745195D01*
X119094568Y-113745195D01*
X119094572Y-113745196D01*
X119348220Y-113763337D01*
X119379999Y-113765610D01*
X119380000Y-113765610D01*
X119380001Y-113765610D01*
X119408595Y-113763564D01*
X119665428Y-113745196D01*
X119945046Y-113684369D01*
X120213161Y-113584367D01*
X120464315Y-113447226D01*
X120693395Y-113275739D01*
X120895739Y-113073395D01*
X121067226Y-112844315D01*
X121204367Y-112593161D01*
X121304369Y-112325046D01*
X121365196Y-112045428D01*
X121385610Y-111760000D01*
X121365196Y-111474572D01*
X121324870Y-111289197D01*
X121304371Y-111194962D01*
X121304370Y-111194960D01*
X121304369Y-111194954D01*
X121204367Y-110926839D01*
X121067226Y-110675685D01*
X121067224Y-110675682D01*
X120895745Y-110446612D01*
X120895729Y-110446594D01*
X120693405Y-110244270D01*
X120693387Y-110244254D01*
X120464317Y-110072775D01*
X120464309Y-110072770D01*
X120213166Y-109935635D01*
X120213167Y-109935635D01*
X120105915Y-109895632D01*
X119945046Y-109835631D01*
X119945043Y-109835630D01*
X119945037Y-109835628D01*
X119665433Y-109774804D01*
X119380001Y-109754390D01*
X119379999Y-109754390D01*
X119094566Y-109774804D01*
X118814962Y-109835628D01*
X118546833Y-109935635D01*
X118295690Y-110072770D01*
X118295682Y-110072775D01*
X118066612Y-110244254D01*
X118066594Y-110244270D01*
X117864270Y-110446594D01*
X117864254Y-110446612D01*
X117692775Y-110675682D01*
X117692770Y-110675690D01*
X117555635Y-110926833D01*
X117455628Y-111194962D01*
X117394804Y-111474566D01*
X117374390Y-111759998D01*
X109064829Y-111759998D01*
X108949206Y-111667792D01*
X108701893Y-111512395D01*
X108701890Y-111512393D01*
X108438738Y-111385665D01*
X108163046Y-111289197D01*
X108163044Y-111289196D01*
X107943280Y-111239036D01*
X107878286Y-111224202D01*
X107878283Y-111224201D01*
X107878271Y-111224199D01*
X107588047Y-111191500D01*
X107588041Y-111191500D01*
X107295959Y-111191500D01*
X107295952Y-111191500D01*
X107005728Y-111224199D01*
X107005714Y-111224202D01*
X106720955Y-111289196D01*
X106720953Y-111289197D01*
X106445261Y-111385665D01*
X106182109Y-111512393D01*
X105934795Y-111667791D01*
X105706435Y-111849901D01*
X105499901Y-112056435D01*
X105317791Y-112284795D01*
X105162393Y-112532109D01*
X105035665Y-112795261D01*
X104939197Y-113070953D01*
X104939196Y-113070955D01*
X104874202Y-113355714D01*
X104874199Y-113355728D01*
X104841500Y-113645952D01*
X104841500Y-113938047D01*
X104874199Y-114228271D01*
X104874202Y-114228285D01*
X104939196Y-114513044D01*
X104939197Y-114513046D01*
X105035665Y-114788738D01*
X105162393Y-115051890D01*
X105162395Y-115051893D01*
X105317792Y-115299206D01*
X105499902Y-115527565D01*
X105706435Y-115734098D01*
X105934794Y-115916208D01*
X106182107Y-116071605D01*
X106182109Y-116071606D01*
X106248918Y-116103780D01*
X106300777Y-116150603D01*
X106319090Y-116218030D01*
X106298042Y-116284654D01*
X106244316Y-116329322D01*
X106195116Y-116339500D01*
X97144500Y-116339500D01*
X97077461Y-116319815D01*
X97031706Y-116267011D01*
X97020500Y-116215500D01*
X97020500Y-115373398D01*
X97017612Y-115353308D01*
X96990157Y-115162362D01*
X96939695Y-114990500D01*
X96930094Y-114957801D01*
X96930089Y-114957789D01*
X96841528Y-114763866D01*
X96841519Y-114763850D01*
X96793685Y-114689419D01*
X96774000Y-114622379D01*
X96774000Y-111869537D01*
X96781818Y-111826203D01*
X96833597Y-111687376D01*
X96833598Y-111687372D01*
X96839999Y-111627844D01*
X96840000Y-111627827D01*
X96840000Y-110780000D01*
X96774000Y-110780000D01*
X96774000Y-110280000D01*
X96840000Y-110280000D01*
X96840000Y-109432172D01*
X96839999Y-109432155D01*
X96833598Y-109372627D01*
X96833598Y-109372626D01*
X96831548Y-109367130D01*
X96826561Y-109297438D01*
X96837242Y-109267501D01*
X96911301Y-109122153D01*
X96983799Y-108899026D01*
X97020500Y-108667305D01*
X97020500Y-108432695D01*
X96983799Y-108200974D01*
X96916353Y-107993395D01*
X96911302Y-107977849D01*
X96876129Y-107908818D01*
X96837550Y-107833104D01*
X96824655Y-107764436D01*
X96831854Y-107733478D01*
X96834091Y-107727483D01*
X96840500Y-107667873D01*
X96840500Y-107594500D01*
X96860185Y-107527461D01*
X96912989Y-107481706D01*
X96964500Y-107470500D01*
X97189666Y-107470500D01*
X97213858Y-107472883D01*
X97244106Y-107478900D01*
X97244108Y-107478900D01*
X97421493Y-107478900D01*
X97421494Y-107478899D01*
X97595466Y-107444294D01*
X97759346Y-107376412D01*
X97906835Y-107277863D01*
X97969480Y-107215217D01*
X98030801Y-107181734D01*
X98057160Y-107178900D01*
X100344931Y-107178900D01*
X100344947Y-107178901D01*
X100352543Y-107178901D01*
X100510654Y-107178901D01*
X100510657Y-107178901D01*
X100663385Y-107137977D01*
X100713504Y-107109039D01*
X100800316Y-107058920D01*
X100912120Y-106947116D01*
X100912120Y-106947114D01*
X100922328Y-106936907D01*
X100922329Y-106936904D01*
X101179235Y-106679998D01*
X117374390Y-106679998D01*
X117374390Y-106680001D01*
X117394804Y-106965433D01*
X117455628Y-107245037D01*
X117455630Y-107245043D01*
X117455631Y-107245046D01*
X117529947Y-107444294D01*
X117555635Y-107513166D01*
X117692770Y-107764309D01*
X117692775Y-107764317D01*
X117864254Y-107993387D01*
X117864270Y-107993405D01*
X118066594Y-108195729D01*
X118066612Y-108195745D01*
X118295682Y-108367224D01*
X118295690Y-108367229D01*
X118546833Y-108504364D01*
X118546832Y-108504364D01*
X118546836Y-108504365D01*
X118546839Y-108504367D01*
X118814954Y-108604369D01*
X118814960Y-108604370D01*
X118814962Y-108604371D01*
X119094566Y-108665195D01*
X119094568Y-108665195D01*
X119094572Y-108665196D01*
X119348220Y-108683337D01*
X119379999Y-108685610D01*
X119380000Y-108685610D01*
X119380001Y-108685610D01*
X119408595Y-108683564D01*
X119665428Y-108665196D01*
X119945046Y-108604369D01*
X120213161Y-108504367D01*
X120464315Y-108367226D01*
X120693395Y-108195739D01*
X120895739Y-107993395D01*
X121067226Y-107764315D01*
X121204367Y-107513161D01*
X121304369Y-107245046D01*
X121365196Y-106965428D01*
X121385610Y-106680000D01*
X121365196Y-106394572D01*
X121304369Y-106114954D01*
X121204367Y-105846839D01*
X121163493Y-105771985D01*
X121067229Y-105595690D01*
X121067224Y-105595682D01*
X120895745Y-105366612D01*
X120895729Y-105366594D01*
X120693405Y-105164270D01*
X120693387Y-105164254D01*
X120464317Y-104992775D01*
X120464309Y-104992770D01*
X120213166Y-104855635D01*
X120213167Y-104855635D01*
X120105915Y-104815632D01*
X119945046Y-104755631D01*
X119945043Y-104755630D01*
X119945037Y-104755628D01*
X119665433Y-104694804D01*
X119380001Y-104674390D01*
X119379999Y-104674390D01*
X119094566Y-104694804D01*
X118814962Y-104755628D01*
X118546833Y-104855635D01*
X118295690Y-104992770D01*
X118295682Y-104992775D01*
X118066612Y-105164254D01*
X118066594Y-105164270D01*
X117864270Y-105366594D01*
X117864254Y-105366612D01*
X117692775Y-105595682D01*
X117692770Y-105595690D01*
X117555635Y-105846833D01*
X117455628Y-106114962D01*
X117394804Y-106394566D01*
X117374390Y-106679998D01*
X101179235Y-106679998D01*
X103932916Y-103926318D01*
X103994238Y-103892834D01*
X104020596Y-103890000D01*
X104976988Y-103890000D01*
X104944075Y-103947007D01*
X104910000Y-104074174D01*
X104910000Y-104205826D01*
X104944075Y-104332993D01*
X104976988Y-104390000D01*
X104079364Y-104390000D01*
X104136567Y-104603486D01*
X104136570Y-104603492D01*
X104236399Y-104817578D01*
X104371894Y-105011082D01*
X104538917Y-105178105D01*
X104732421Y-105313600D01*
X104946507Y-105413429D01*
X104946516Y-105413433D01*
X105160000Y-105470634D01*
X105160000Y-104573012D01*
X105217007Y-104605925D01*
X105344174Y-104640000D01*
X105475826Y-104640000D01*
X105602993Y-104605925D01*
X105660000Y-104573012D01*
X105660000Y-105470633D01*
X105873483Y-105413433D01*
X105873492Y-105413429D01*
X106087578Y-105313600D01*
X106281082Y-105178105D01*
X106448105Y-105011082D01*
X106583600Y-104817578D01*
X106683429Y-104603492D01*
X106683432Y-104603486D01*
X106740636Y-104390000D01*
X105843012Y-104390000D01*
X105875925Y-104332993D01*
X105910000Y-104205826D01*
X105910000Y-104074174D01*
X105875925Y-103947007D01*
X105843012Y-103890000D01*
X106740636Y-103890000D01*
X106740635Y-103889999D01*
X106683432Y-103676513D01*
X106683429Y-103676507D01*
X106583600Y-103462422D01*
X106583599Y-103462420D01*
X106448113Y-103268926D01*
X106448108Y-103268920D01*
X106281078Y-103101890D01*
X106095405Y-102971879D01*
X106051780Y-102917302D01*
X106044588Y-102847804D01*
X106076110Y-102785449D01*
X106095406Y-102768730D01*
X106281401Y-102638495D01*
X106448495Y-102471401D01*
X106584035Y-102277830D01*
X106586707Y-102272097D01*
X106632878Y-102219658D01*
X106699091Y-102200500D01*
X107930909Y-102200500D01*
X107997948Y-102220185D01*
X108043292Y-102272097D01*
X108045965Y-102277830D01*
X108045966Y-102277831D01*
X108181501Y-102471395D01*
X108181506Y-102471402D01*
X108348597Y-102638493D01*
X108348603Y-102638498D01*
X108534594Y-102768730D01*
X108578219Y-102823307D01*
X108585413Y-102892805D01*
X108553890Y-102955160D01*
X108534595Y-102971880D01*
X108348922Y-103101890D01*
X108348920Y-103101891D01*
X108181891Y-103268920D01*
X108181886Y-103268926D01*
X108046400Y-103462420D01*
X108046399Y-103462422D01*
X107946570Y-103676507D01*
X107946567Y-103676513D01*
X107889364Y-103889999D01*
X107889364Y-103890000D01*
X108786988Y-103890000D01*
X108754075Y-103947007D01*
X108720000Y-104074174D01*
X108720000Y-104205826D01*
X108754075Y-104332993D01*
X108786988Y-104390000D01*
X107889364Y-104390000D01*
X107946567Y-104603486D01*
X107946570Y-104603492D01*
X108046399Y-104817578D01*
X108181894Y-105011082D01*
X108348917Y-105178105D01*
X108542421Y-105313600D01*
X108756507Y-105413429D01*
X108756516Y-105413433D01*
X108970000Y-105470634D01*
X108970000Y-104573012D01*
X109027007Y-104605925D01*
X109154174Y-104640000D01*
X109285826Y-104640000D01*
X109412993Y-104605925D01*
X109470000Y-104573012D01*
X109470000Y-105470633D01*
X109683483Y-105413433D01*
X109683492Y-105413429D01*
X109897578Y-105313600D01*
X110091082Y-105178105D01*
X110258105Y-105011082D01*
X110393600Y-104817578D01*
X110493429Y-104603492D01*
X110493432Y-104603486D01*
X110550636Y-104390000D01*
X109653012Y-104390000D01*
X109685925Y-104332993D01*
X109720000Y-104205826D01*
X109720000Y-104074174D01*
X109685925Y-103947007D01*
X109653012Y-103890000D01*
X110550636Y-103890000D01*
X110550635Y-103889999D01*
X110493432Y-103676513D01*
X110493429Y-103676507D01*
X110393600Y-103462422D01*
X110393599Y-103462420D01*
X110258113Y-103268926D01*
X110258108Y-103268920D01*
X110091078Y-103101890D01*
X109905405Y-102971879D01*
X109861780Y-102917302D01*
X109854588Y-102847804D01*
X109886110Y-102785449D01*
X109905406Y-102768730D01*
X110091401Y-102638495D01*
X110258495Y-102471401D01*
X110394035Y-102277830D01*
X110493903Y-102063663D01*
X110555063Y-101835408D01*
X110575659Y-101600000D01*
X110575659Y-101599998D01*
X117374891Y-101599998D01*
X117374891Y-101600001D01*
X117395300Y-101885362D01*
X117456109Y-102164895D01*
X117556091Y-102432958D01*
X117693191Y-102684038D01*
X117693196Y-102684046D01*
X117799882Y-102826561D01*
X117799883Y-102826562D01*
X118694767Y-101931677D01*
X118706497Y-101959995D01*
X118789670Y-102084472D01*
X118895528Y-102190330D01*
X119020005Y-102273503D01*
X119048320Y-102285231D01*
X118153436Y-103180115D01*
X118295960Y-103286807D01*
X118295961Y-103286808D01*
X118547042Y-103423908D01*
X118547041Y-103423908D01*
X118815104Y-103523890D01*
X119094637Y-103584699D01*
X119379999Y-103605109D01*
X119380001Y-103605109D01*
X119665362Y-103584699D01*
X119944895Y-103523890D01*
X120212958Y-103423908D01*
X120464047Y-103286803D01*
X120606561Y-103180116D01*
X120606562Y-103180115D01*
X119711679Y-102285231D01*
X119739995Y-102273503D01*
X119864472Y-102190330D01*
X119970330Y-102084472D01*
X120053503Y-101959995D01*
X120065231Y-101931678D01*
X120960115Y-102826562D01*
X120960116Y-102826561D01*
X121066803Y-102684047D01*
X121203908Y-102432958D01*
X121303890Y-102164895D01*
X121364699Y-101885362D01*
X121385109Y-101600001D01*
X121385109Y-101599998D01*
X121364699Y-101314637D01*
X121303890Y-101035104D01*
X121203908Y-100767041D01*
X121066808Y-100515961D01*
X121066807Y-100515960D01*
X120960115Y-100373436D01*
X120065231Y-101268320D01*
X120053503Y-101240005D01*
X119970330Y-101115528D01*
X119864472Y-101009670D01*
X119739995Y-100926497D01*
X119711678Y-100914767D01*
X120606562Y-100019883D01*
X120606561Y-100019882D01*
X120464046Y-99913196D01*
X120464038Y-99913191D01*
X120212957Y-99776091D01*
X120212958Y-99776091D01*
X119944895Y-99676109D01*
X119665362Y-99615300D01*
X119380001Y-99594891D01*
X119379999Y-99594891D01*
X119094637Y-99615300D01*
X118815104Y-99676109D01*
X118547041Y-99776091D01*
X118295961Y-99913191D01*
X118295953Y-99913196D01*
X118153437Y-100019882D01*
X118153436Y-100019883D01*
X119048321Y-100914767D01*
X119020005Y-100926497D01*
X118895528Y-101009670D01*
X118789670Y-101115528D01*
X118706497Y-101240005D01*
X118694768Y-101268321D01*
X117799883Y-100373436D01*
X117799882Y-100373437D01*
X117693196Y-100515953D01*
X117693191Y-100515961D01*
X117556091Y-100767041D01*
X117456109Y-101035104D01*
X117395300Y-101314637D01*
X117374891Y-101599998D01*
X110575659Y-101599998D01*
X110555063Y-101364592D01*
X110493903Y-101136337D01*
X110394035Y-100922171D01*
X110394034Y-100922169D01*
X110258494Y-100728597D01*
X110091402Y-100561506D01*
X110091396Y-100561501D01*
X109905842Y-100431575D01*
X109862217Y-100376998D01*
X109855023Y-100307500D01*
X109886546Y-100245145D01*
X109905842Y-100228425D01*
X109954876Y-100194091D01*
X110091401Y-100098495D01*
X110258495Y-99931401D01*
X110394035Y-99737830D01*
X110396707Y-99732097D01*
X110442878Y-99679658D01*
X110509091Y-99660500D01*
X112384531Y-99660500D01*
X112384547Y-99660501D01*
X112392143Y-99660501D01*
X112550254Y-99660501D01*
X112550257Y-99660501D01*
X112702985Y-99619577D01*
X112753104Y-99590639D01*
X112839916Y-99540520D01*
X112951720Y-99428716D01*
X112951720Y-99428714D01*
X112961928Y-99418507D01*
X112961929Y-99418504D01*
X115223616Y-97156819D01*
X115284939Y-97123334D01*
X115311297Y-97120500D01*
X117255501Y-97120500D01*
X117322540Y-97140185D01*
X117368295Y-97192989D01*
X117379501Y-97244500D01*
X117379501Y-98067876D01*
X117385908Y-98127483D01*
X117436202Y-98262328D01*
X117436206Y-98262335D01*
X117522452Y-98377544D01*
X117522455Y-98377547D01*
X117637664Y-98463793D01*
X117637671Y-98463797D01*
X117772517Y-98514091D01*
X117772516Y-98514091D01*
X117779444Y-98514835D01*
X117832127Y-98520500D01*
X120927872Y-98520499D01*
X120987483Y-98514091D01*
X121122331Y-98463796D01*
X121237546Y-98377546D01*
X121323796Y-98262331D01*
X121374091Y-98127483D01*
X121380500Y-98067873D01*
X121380499Y-94972128D01*
X121374091Y-94912517D01*
X121351296Y-94851401D01*
X121323797Y-94777671D01*
X121323793Y-94777664D01*
X121237547Y-94662455D01*
X121237544Y-94662452D01*
X121122335Y-94576206D01*
X121122328Y-94576202D01*
X120987482Y-94525908D01*
X120987483Y-94525908D01*
X120927883Y-94519501D01*
X120927881Y-94519500D01*
X120927873Y-94519500D01*
X120927864Y-94519500D01*
X117832129Y-94519500D01*
X117832123Y-94519501D01*
X117772516Y-94525908D01*
X117637671Y-94576202D01*
X117637664Y-94576206D01*
X117522455Y-94662452D01*
X117522452Y-94662455D01*
X117436206Y-94777664D01*
X117436202Y-94777671D01*
X117385908Y-94912517D01*
X117381593Y-94952658D01*
X117379501Y-94972123D01*
X117379500Y-94972135D01*
X117379500Y-95795500D01*
X117359815Y-95862539D01*
X117307011Y-95908294D01*
X117255500Y-95919500D01*
X114932140Y-95919500D01*
X114891219Y-95930464D01*
X114891219Y-95930465D01*
X114853951Y-95940451D01*
X114779414Y-95960423D01*
X114779409Y-95960426D01*
X114642490Y-96039475D01*
X114642482Y-96039481D01*
X114530678Y-96151286D01*
X112258784Y-98423181D01*
X112197461Y-98456666D01*
X112171103Y-98459500D01*
X110509091Y-98459500D01*
X110442052Y-98439815D01*
X110396711Y-98387909D01*
X110394037Y-98382175D01*
X110394034Y-98382170D01*
X110390796Y-98377546D01*
X110310125Y-98262335D01*
X110258494Y-98188597D01*
X110091402Y-98021506D01*
X110091396Y-98021501D01*
X109905842Y-97891575D01*
X109862217Y-97836998D01*
X109855023Y-97767500D01*
X109886546Y-97705145D01*
X109905842Y-97688425D01*
X110016019Y-97611278D01*
X110091401Y-97558495D01*
X110258495Y-97391401D01*
X110394035Y-97197830D01*
X110493903Y-96983663D01*
X110555063Y-96755408D01*
X110575659Y-96520000D01*
X110574088Y-96502052D01*
X110587853Y-96433555D01*
X110609932Y-96403566D01*
X114339063Y-92674436D01*
X114358774Y-92644937D01*
X114437613Y-92526947D01*
X114505494Y-92363066D01*
X114540100Y-92189091D01*
X114540100Y-88899998D01*
X117374390Y-88899998D01*
X117374390Y-88900001D01*
X117394804Y-89185433D01*
X117455628Y-89465037D01*
X117455630Y-89465043D01*
X117455631Y-89465046D01*
X117497698Y-89577831D01*
X117555635Y-89733166D01*
X117692770Y-89984309D01*
X117692775Y-89984317D01*
X117864254Y-90213387D01*
X117864270Y-90213405D01*
X118066594Y-90415729D01*
X118066612Y-90415745D01*
X118295682Y-90587224D01*
X118295690Y-90587229D01*
X118546833Y-90724364D01*
X118546832Y-90724364D01*
X118546836Y-90724365D01*
X118546839Y-90724367D01*
X118814954Y-90824369D01*
X118814960Y-90824370D01*
X118814962Y-90824371D01*
X119094566Y-90885195D01*
X119094568Y-90885195D01*
X119094572Y-90885196D01*
X119348220Y-90903337D01*
X119379999Y-90905610D01*
X119380000Y-90905610D01*
X119380001Y-90905610D01*
X119408595Y-90903564D01*
X119665428Y-90885196D01*
X119945046Y-90824369D01*
X120213161Y-90724367D01*
X120464315Y-90587226D01*
X120693395Y-90415739D01*
X120895739Y-90213395D01*
X121067226Y-89984315D01*
X121204367Y-89733161D01*
X121304369Y-89465046D01*
X121305559Y-89459575D01*
X121365195Y-89185433D01*
X121365195Y-89185432D01*
X121365196Y-89185428D01*
X121385610Y-88900000D01*
X121365196Y-88614572D01*
X121326423Y-88436337D01*
X121304371Y-88334962D01*
X121304370Y-88334960D01*
X121304369Y-88334954D01*
X121204367Y-88066839D01*
X121201905Y-88062331D01*
X121067229Y-87815690D01*
X121067224Y-87815682D01*
X120895745Y-87586612D01*
X120895729Y-87586594D01*
X120693405Y-87384270D01*
X120693387Y-87384254D01*
X120464317Y-87212775D01*
X120464309Y-87212770D01*
X120213166Y-87075635D01*
X120213167Y-87075635D01*
X120096442Y-87032099D01*
X119945046Y-86975631D01*
X119945043Y-86975630D01*
X119945037Y-86975628D01*
X119665433Y-86914804D01*
X119380001Y-86894390D01*
X119379999Y-86894390D01*
X119094566Y-86914804D01*
X118814962Y-86975628D01*
X118546833Y-87075635D01*
X118295690Y-87212770D01*
X118295682Y-87212775D01*
X118066612Y-87384254D01*
X118066594Y-87384270D01*
X117864270Y-87586594D01*
X117864254Y-87586612D01*
X117692775Y-87815682D01*
X117692770Y-87815690D01*
X117555635Y-88066833D01*
X117455628Y-88334962D01*
X117394804Y-88614566D01*
X117374390Y-88899998D01*
X114540100Y-88899998D01*
X114540100Y-83819998D01*
X117374390Y-83819998D01*
X117374390Y-83820001D01*
X117394804Y-84105433D01*
X117455628Y-84385037D01*
X117455630Y-84385043D01*
X117455631Y-84385046D01*
X117497698Y-84497831D01*
X117555635Y-84653166D01*
X117692770Y-84904309D01*
X117692775Y-84904317D01*
X117864254Y-85133387D01*
X117864270Y-85133405D01*
X118066594Y-85335729D01*
X118066612Y-85335745D01*
X118295682Y-85507224D01*
X118295690Y-85507229D01*
X118546833Y-85644364D01*
X118546832Y-85644364D01*
X118546836Y-85644365D01*
X118546839Y-85644367D01*
X118814954Y-85744369D01*
X118814960Y-85744370D01*
X118814962Y-85744371D01*
X119094566Y-85805195D01*
X119094568Y-85805195D01*
X119094572Y-85805196D01*
X119348220Y-85823337D01*
X119379999Y-85825610D01*
X119380000Y-85825610D01*
X119380001Y-85825610D01*
X119408595Y-85823564D01*
X119665428Y-85805196D01*
X119945046Y-85744369D01*
X120213161Y-85644367D01*
X120464315Y-85507226D01*
X120693395Y-85335739D01*
X120895739Y-85133395D01*
X121067226Y-84904315D01*
X121204367Y-84653161D01*
X121304369Y-84385046D01*
X121322044Y-84303796D01*
X121365195Y-84105433D01*
X121365195Y-84105432D01*
X121365196Y-84105428D01*
X121385610Y-83820000D01*
X121365196Y-83534572D01*
X121326423Y-83356337D01*
X121304371Y-83254962D01*
X121304370Y-83254960D01*
X121304369Y-83254954D01*
X121204367Y-82986839D01*
X121183486Y-82948599D01*
X121067229Y-82735690D01*
X121067224Y-82735682D01*
X120895745Y-82506612D01*
X120895729Y-82506594D01*
X120693405Y-82304270D01*
X120693387Y-82304254D01*
X120464317Y-82132775D01*
X120464309Y-82132770D01*
X120213166Y-81995635D01*
X120213167Y-81995635D01*
X120105915Y-81955632D01*
X119945046Y-81895631D01*
X119945043Y-81895630D01*
X119945037Y-81895628D01*
X119665433Y-81834804D01*
X119380001Y-81814390D01*
X119379999Y-81814390D01*
X119094566Y-81834804D01*
X118814962Y-81895628D01*
X118546833Y-81995635D01*
X118295690Y-82132770D01*
X118295682Y-82132775D01*
X118066612Y-82304254D01*
X118066594Y-82304270D01*
X117864270Y-82506594D01*
X117864254Y-82506612D01*
X117692775Y-82735682D01*
X117692770Y-82735690D01*
X117555635Y-82986833D01*
X117455628Y-83254962D01*
X117394804Y-83534566D01*
X117374390Y-83819998D01*
X114540100Y-83819998D01*
X114540100Y-78739998D01*
X117374891Y-78739998D01*
X117374891Y-78740001D01*
X117395300Y-79025362D01*
X117456109Y-79304895D01*
X117556091Y-79572958D01*
X117693191Y-79824038D01*
X117693196Y-79824046D01*
X117799882Y-79966561D01*
X117799883Y-79966562D01*
X118694767Y-79071677D01*
X118706497Y-79099995D01*
X118789670Y-79224472D01*
X118895528Y-79330330D01*
X119020005Y-79413503D01*
X119048320Y-79425231D01*
X118153436Y-80320115D01*
X118295960Y-80426807D01*
X118295961Y-80426808D01*
X118547042Y-80563908D01*
X118547041Y-80563908D01*
X118815104Y-80663890D01*
X119094637Y-80724699D01*
X119379999Y-80745109D01*
X119380001Y-80745109D01*
X119665362Y-80724699D01*
X119944895Y-80663890D01*
X120212958Y-80563908D01*
X120464047Y-80426803D01*
X120606561Y-80320116D01*
X120606562Y-80320115D01*
X119711679Y-79425231D01*
X119739995Y-79413503D01*
X119864472Y-79330330D01*
X119970330Y-79224472D01*
X120053503Y-79099995D01*
X120065231Y-79071678D01*
X120960115Y-79966562D01*
X120960116Y-79966561D01*
X121066803Y-79824047D01*
X121203908Y-79572958D01*
X121303890Y-79304895D01*
X121364699Y-79025362D01*
X121385109Y-78740001D01*
X121385109Y-78739998D01*
X121364699Y-78454637D01*
X121303890Y-78175104D01*
X121203908Y-77907041D01*
X121066808Y-77655961D01*
X121066807Y-77655960D01*
X120960115Y-77513436D01*
X120065231Y-78408320D01*
X120053503Y-78380005D01*
X119970330Y-78255528D01*
X119864472Y-78149670D01*
X119739995Y-78066497D01*
X119711678Y-78054767D01*
X120606562Y-77159883D01*
X120606561Y-77159882D01*
X120464046Y-77053196D01*
X120464038Y-77053191D01*
X120212957Y-76916091D01*
X120212958Y-76916091D01*
X119944895Y-76816109D01*
X119665362Y-76755300D01*
X119380001Y-76734891D01*
X119379999Y-76734891D01*
X119094637Y-76755300D01*
X118815104Y-76816109D01*
X118547041Y-76916091D01*
X118295961Y-77053191D01*
X118295953Y-77053196D01*
X118153437Y-77159882D01*
X118153436Y-77159883D01*
X119048321Y-78054767D01*
X119020005Y-78066497D01*
X118895528Y-78149670D01*
X118789670Y-78255528D01*
X118706497Y-78380005D01*
X118694768Y-78408321D01*
X117799883Y-77513436D01*
X117799882Y-77513437D01*
X117693196Y-77655953D01*
X117693191Y-77655961D01*
X117556091Y-77907041D01*
X117456109Y-78175104D01*
X117395300Y-78454637D01*
X117374891Y-78739998D01*
X114540100Y-78739998D01*
X114540100Y-76624361D01*
X114559785Y-76557322D01*
X114576419Y-76536680D01*
X116516280Y-74596819D01*
X116577603Y-74563334D01*
X116603961Y-74560500D01*
X117255501Y-74560500D01*
X117322540Y-74580185D01*
X117368295Y-74632989D01*
X117379501Y-74684500D01*
X117379501Y-75207876D01*
X117385908Y-75267483D01*
X117436202Y-75402328D01*
X117436206Y-75402335D01*
X117522452Y-75517544D01*
X117522455Y-75517547D01*
X117637664Y-75603793D01*
X117637671Y-75603797D01*
X117772517Y-75654091D01*
X117772516Y-75654091D01*
X117779444Y-75654835D01*
X117832127Y-75660500D01*
X120927872Y-75660499D01*
X120987483Y-75654091D01*
X121122331Y-75603796D01*
X121237546Y-75517546D01*
X121323796Y-75402331D01*
X121374091Y-75267483D01*
X121380500Y-75207873D01*
X121380499Y-72112128D01*
X121374091Y-72052517D01*
X121323796Y-71917669D01*
X121323795Y-71917668D01*
X121323793Y-71917664D01*
X121237547Y-71802455D01*
X121237544Y-71802452D01*
X121122335Y-71716206D01*
X121122328Y-71716202D01*
X120987482Y-71665908D01*
X120987483Y-71665908D01*
X120927883Y-71659501D01*
X120927881Y-71659500D01*
X120927873Y-71659500D01*
X120927864Y-71659500D01*
X117832129Y-71659500D01*
X117832123Y-71659501D01*
X117772516Y-71665908D01*
X117637671Y-71716202D01*
X117637664Y-71716206D01*
X117522455Y-71802452D01*
X117522452Y-71802455D01*
X117436206Y-71917664D01*
X117436202Y-71917671D01*
X117385908Y-72052517D01*
X117379501Y-72112116D01*
X117379501Y-72112123D01*
X117379500Y-72112135D01*
X117379500Y-72635500D01*
X117359815Y-72702539D01*
X117307011Y-72748294D01*
X117255500Y-72759500D01*
X116090906Y-72759500D01*
X115916941Y-72794103D01*
X115916932Y-72794106D01*
X115753059Y-72861983D01*
X115753046Y-72861990D01*
X115605566Y-72960534D01*
X115605564Y-72960537D01*
X112940140Y-75625958D01*
X112940134Y-75625965D01*
X112917061Y-75660498D01*
X112917061Y-75660499D01*
X112841585Y-75773455D01*
X112807646Y-75855393D01*
X112773706Y-75937329D01*
X112773703Y-75937341D01*
X112739100Y-76111303D01*
X112739100Y-91676038D01*
X112719415Y-91743077D01*
X112702781Y-91763719D01*
X110742190Y-93724309D01*
X110680867Y-93757794D01*
X110611175Y-93752810D01*
X110555242Y-93710938D01*
X110534734Y-93668721D01*
X110493905Y-93516344D01*
X110493904Y-93516343D01*
X110493903Y-93516337D01*
X110394035Y-93302171D01*
X110394034Y-93302169D01*
X110258494Y-93108597D01*
X110091402Y-92941506D01*
X110091396Y-92941501D01*
X109905842Y-92811575D01*
X109862217Y-92756998D01*
X109855023Y-92687500D01*
X109886546Y-92625145D01*
X109905842Y-92608425D01*
X110022214Y-92526940D01*
X110091401Y-92478495D01*
X110258495Y-92311401D01*
X110394035Y-92117830D01*
X110493903Y-91903663D01*
X110555063Y-91675408D01*
X110575659Y-91440000D01*
X110555063Y-91204592D01*
X110493903Y-90976337D01*
X110394035Y-90762171D01*
X110394034Y-90762169D01*
X110258494Y-90568597D01*
X110091402Y-90401506D01*
X110091396Y-90401501D01*
X109905842Y-90271575D01*
X109862217Y-90216998D01*
X109855023Y-90147500D01*
X109886546Y-90085145D01*
X109905842Y-90068425D01*
X109961667Y-90029336D01*
X110091401Y-89938495D01*
X110258495Y-89771401D01*
X110394035Y-89577830D01*
X110493903Y-89363663D01*
X110555063Y-89135408D01*
X110575659Y-88900000D01*
X110555063Y-88664592D01*
X110493903Y-88436337D01*
X110394035Y-88222171D01*
X110394034Y-88222169D01*
X110258494Y-88028597D01*
X110091402Y-87861506D01*
X110091396Y-87861501D01*
X109905842Y-87731575D01*
X109862217Y-87676998D01*
X109855023Y-87607500D01*
X109886546Y-87545145D01*
X109905842Y-87528425D01*
X109928026Y-87512891D01*
X110091401Y-87398495D01*
X110258495Y-87231401D01*
X110394035Y-87037830D01*
X110493903Y-86823663D01*
X110555063Y-86595408D01*
X110575659Y-86360000D01*
X110555063Y-86124592D01*
X110493903Y-85896337D01*
X110394035Y-85682171D01*
X110394034Y-85682169D01*
X110258494Y-85488597D01*
X110091402Y-85321506D01*
X110091396Y-85321501D01*
X109905842Y-85191575D01*
X109862217Y-85136998D01*
X109855023Y-85067500D01*
X109886546Y-85005145D01*
X109905842Y-84988425D01*
X110025963Y-84904315D01*
X110091401Y-84858495D01*
X110258495Y-84691401D01*
X110394035Y-84497830D01*
X110493903Y-84283663D01*
X110555063Y-84055408D01*
X110575659Y-83820000D01*
X110555063Y-83584592D01*
X110493903Y-83356337D01*
X110394035Y-83142171D01*
X110394034Y-83142169D01*
X110258496Y-82948600D01*
X110201480Y-82891584D01*
X110136179Y-82826283D01*
X110102696Y-82764963D01*
X110107680Y-82695271D01*
X110149551Y-82639337D01*
X110180529Y-82622422D01*
X110312086Y-82573354D01*
X110312093Y-82573350D01*
X110427187Y-82487190D01*
X110427190Y-82487187D01*
X110513350Y-82372093D01*
X110513354Y-82372086D01*
X110563596Y-82237379D01*
X110563598Y-82237372D01*
X110569999Y-82177844D01*
X110570000Y-82177827D01*
X110570000Y-81530000D01*
X109653012Y-81530000D01*
X109685925Y-81472993D01*
X109720000Y-81345826D01*
X109720000Y-81214174D01*
X109685925Y-81087007D01*
X109653012Y-81030000D01*
X110570000Y-81030000D01*
X110570000Y-80382172D01*
X110569999Y-80382155D01*
X110563598Y-80322627D01*
X110563596Y-80322620D01*
X110513354Y-80187913D01*
X110513350Y-80187906D01*
X110427190Y-80072812D01*
X110427187Y-80072809D01*
X110312093Y-79986649D01*
X110312086Y-79986645D01*
X110177379Y-79936403D01*
X110177372Y-79936401D01*
X110117844Y-79930000D01*
X109470000Y-79930000D01*
X109470000Y-80846988D01*
X109412993Y-80814075D01*
X109285826Y-80780000D01*
X109154174Y-80780000D01*
X109027007Y-80814075D01*
X108970000Y-80846988D01*
X108970000Y-79930000D01*
X108322155Y-79930000D01*
X108262627Y-79936401D01*
X108262620Y-79936403D01*
X108127913Y-79986645D01*
X108127906Y-79986649D01*
X108012812Y-80072809D01*
X108012809Y-80072812D01*
X107926649Y-80187906D01*
X107926645Y-80187913D01*
X107876403Y-80322620D01*
X107876401Y-80322627D01*
X107870000Y-80382155D01*
X107870000Y-81030000D01*
X108786988Y-81030000D01*
X108754075Y-81087007D01*
X108720000Y-81214174D01*
X108720000Y-81345826D01*
X108754075Y-81472993D01*
X108786988Y-81530000D01*
X107870000Y-81530000D01*
X107870000Y-82177844D01*
X107876401Y-82237372D01*
X107876403Y-82237379D01*
X107926645Y-82372086D01*
X107926649Y-82372093D01*
X108012809Y-82487187D01*
X108012812Y-82487190D01*
X108127906Y-82573350D01*
X108127913Y-82573354D01*
X108259470Y-82622421D01*
X108315403Y-82664292D01*
X108339821Y-82729756D01*
X108324970Y-82798029D01*
X108303819Y-82826284D01*
X108181503Y-82948600D01*
X108045965Y-83142170D01*
X108045962Y-83142175D01*
X108043289Y-83147909D01*
X107997115Y-83200346D01*
X107930909Y-83219500D01*
X106699091Y-83219500D01*
X106632052Y-83199815D01*
X106586711Y-83147909D01*
X106584037Y-83142175D01*
X106584034Y-83142170D01*
X106584033Y-83142169D01*
X106448495Y-82948599D01*
X106326179Y-82826283D01*
X106292696Y-82764963D01*
X106297680Y-82695271D01*
X106339551Y-82639337D01*
X106370529Y-82622422D01*
X106502086Y-82573354D01*
X106502093Y-82573350D01*
X106617187Y-82487190D01*
X106617190Y-82487187D01*
X106703350Y-82372093D01*
X106703354Y-82372086D01*
X106753596Y-82237379D01*
X106753598Y-82237372D01*
X106759999Y-82177844D01*
X106760000Y-82177827D01*
X106760000Y-81530000D01*
X105843012Y-81530000D01*
X105875925Y-81472993D01*
X105910000Y-81345826D01*
X105910000Y-81214174D01*
X105875925Y-81087007D01*
X105843012Y-81030000D01*
X106760000Y-81030000D01*
X106760000Y-80382172D01*
X106759999Y-80382155D01*
X106753598Y-80322627D01*
X106753596Y-80322620D01*
X106703354Y-80187913D01*
X106703350Y-80187906D01*
X106617190Y-80072812D01*
X106617187Y-80072809D01*
X106502093Y-79986649D01*
X106502086Y-79986645D01*
X106367379Y-79936403D01*
X106367372Y-79936401D01*
X106307844Y-79930000D01*
X105660000Y-79930000D01*
X105660000Y-80846988D01*
X105602993Y-80814075D01*
X105475826Y-80780000D01*
X105344174Y-80780000D01*
X105217007Y-80814075D01*
X105160000Y-80846988D01*
X105160000Y-79930000D01*
X104512155Y-79930000D01*
X104452627Y-79936401D01*
X104452620Y-79936403D01*
X104317913Y-79986645D01*
X104317906Y-79986649D01*
X104202812Y-80072809D01*
X104202809Y-80072812D01*
X104116649Y-80187906D01*
X104116645Y-80187913D01*
X104066403Y-80322620D01*
X104066401Y-80322627D01*
X104060000Y-80382155D01*
X104060000Y-81030000D01*
X104976988Y-81030000D01*
X104944075Y-81087007D01*
X104910000Y-81214174D01*
X104910000Y-81345826D01*
X104944075Y-81472993D01*
X104976988Y-81530000D01*
X104060000Y-81530000D01*
X104060000Y-82177844D01*
X104066401Y-82237372D01*
X104066403Y-82237379D01*
X104116645Y-82372086D01*
X104116649Y-82372093D01*
X104202809Y-82487187D01*
X104202812Y-82487190D01*
X104317906Y-82573350D01*
X104317913Y-82573354D01*
X104449470Y-82622421D01*
X104505403Y-82664292D01*
X104529821Y-82729756D01*
X104514970Y-82798029D01*
X104493819Y-82826284D01*
X104371503Y-82948600D01*
X104235965Y-83142170D01*
X104235962Y-83142175D01*
X104233289Y-83147909D01*
X104187115Y-83200346D01*
X104120909Y-83219500D01*
X102814498Y-83219500D01*
X102747459Y-83199815D01*
X102726817Y-83183181D01*
X98472819Y-78929183D01*
X98439334Y-78867860D01*
X98436500Y-78841502D01*
X98436500Y-78752906D01*
X98436499Y-78752904D01*
X98401895Y-78578941D01*
X98401894Y-78578934D01*
X98334012Y-78415054D01*
X98334010Y-78415051D01*
X98334008Y-78415047D01*
X98235463Y-78267565D01*
X98235460Y-78267561D01*
X98110038Y-78142139D01*
X98110034Y-78142136D01*
X97962552Y-78043591D01*
X97962542Y-78043586D01*
X97798666Y-77975706D01*
X97798658Y-77975704D01*
X97624694Y-77941100D01*
X97624691Y-77941100D01*
X97447308Y-77941100D01*
X97447306Y-77941100D01*
X97417058Y-77947117D01*
X97392866Y-77949500D01*
X96964499Y-77949500D01*
X96897460Y-77929815D01*
X96851705Y-77877011D01*
X96840499Y-77825500D01*
X96840499Y-77752129D01*
X96840498Y-77752123D01*
X96834091Y-77692516D01*
X96781818Y-77552364D01*
X96774000Y-77509031D01*
X96774000Y-76229537D01*
X96781818Y-76186203D01*
X96833597Y-76047376D01*
X96833598Y-76047372D01*
X96839999Y-75987844D01*
X96840000Y-75987827D01*
X96840000Y-75140000D01*
X96774000Y-75140000D01*
X96774000Y-74640000D01*
X96840000Y-74640000D01*
X96840000Y-73792172D01*
X96839999Y-73792155D01*
X96833598Y-73732627D01*
X96833596Y-73732620D01*
X96781818Y-73593794D01*
X96774000Y-73550461D01*
X96774000Y-70797619D01*
X96793685Y-70730580D01*
X96841522Y-70656145D01*
X96930091Y-70462207D01*
X96990157Y-70257638D01*
X97020500Y-70046603D01*
X97020500Y-69940000D01*
X97020500Y-69874108D01*
X97020500Y-69204500D01*
X97040185Y-69137461D01*
X97092989Y-69091706D01*
X97144500Y-69080500D01*
X106195116Y-69080500D01*
X106262155Y-69100185D01*
G37*
G04 #@! TD.AperFunction*
M02*
