%TF.GenerationSoftware,KiCad,Pcbnew,8.0.3*%
%TF.CreationDate,2024-06-20T09:06:08+12:00*%
%TF.ProjectId,crt_card_edge_adapter,6372745f-6361-4726-945f-656467655f61,rev?*%
%TF.SameCoordinates,Original*%
%TF.FileFunction,Drillmap*%
%TF.FilePolarity,Positive*%
%FSLAX45Y45*%
G04 Gerber Fmt 4.5, Leading zero omitted, Abs format (unit mm)*
G04 Created by KiCad (PCBNEW 8.0.3) date 2024-06-20 09:06:08*
%MOMM*%
%LPD*%
G01*
G04 APERTURE LIST*
%ADD10C,0.050000*%
%ADD11C,0.120000*%
%ADD12C,0.200000*%
%ADD13C,0.100000*%
%ADD14C,0.152000*%
G04 APERTURE END LIST*
D10*
X12484100Y-6858000D02*
G75*
G02*
X12509500Y-6883400I0J-25400D01*
G01*
X12509500Y-6883400D02*
X12509500Y-11658600D01*
X9652000Y-6883400D02*
G75*
G02*
X9677400Y-6858000I25400J0D01*
G01*
X9677400Y-11684000D02*
G75*
G02*
X9652000Y-11658600I0J25400D01*
G01*
X9677400Y-6858000D02*
X12484100Y-6858000D01*
X9677400Y-11684000D02*
X12484100Y-11684000D01*
X9652000Y-11620500D02*
X9652000Y-11658600D01*
X9652000Y-6921500D02*
X9652000Y-6883400D01*
X12509500Y-11658600D02*
G75*
G02*
X12484100Y-11684000I-25400J0D01*
G01*
D11*
X8649000Y-10756000D02*
X8649000Y-7192000D01*
X8649000Y-10756000D02*
X9553000Y-10756000D01*
X8649000Y-10954000D02*
X8649000Y-11350000D01*
X8748000Y-7093000D02*
X9553000Y-7093000D01*
X8748000Y-11449000D02*
X9553000Y-11449000D01*
X9553000Y-10954000D02*
X8649000Y-10954000D01*
X9652000Y-6994000D02*
X9652000Y-6921500D01*
X9652000Y-11548000D02*
X9652000Y-11620500D01*
X8649000Y-7192000D02*
G75*
G02*
X8748000Y-7093000I99000J0D01*
G01*
X8748000Y-11449000D02*
G75*
G02*
X8649000Y-11350000I0J99000D01*
G01*
X9553000Y-10756000D02*
G75*
G02*
X9553000Y-10954000I0J-99000D01*
G01*
X9553000Y-11449000D02*
G75*
G02*
X9652000Y-11548000I0J-99000D01*
G01*
X9652000Y-6994000D02*
G75*
G02*
X9553000Y-7093000I-99000J0D01*
G01*
D12*
D13*
X9708120Y-9845280D02*
X9738120Y-9875280D01*
X9738120Y-9845280D02*
X9708120Y-9875280D01*
X9713200Y-11038000D02*
X9743200Y-11068000D01*
X9743200Y-11038000D02*
X9713200Y-11068000D01*
X9718280Y-10642840D02*
X9748280Y-10672840D01*
X9748280Y-10642840D02*
X9718280Y-10672840D01*
X9723360Y-8265400D02*
X9753360Y-8295400D01*
X9753360Y-8265400D02*
X9723360Y-8295400D01*
X9728440Y-9454120D02*
X9758440Y-9484120D01*
X9758440Y-9454120D02*
X9728440Y-9484120D01*
X9733520Y-8661640D02*
X9763520Y-8691640D01*
X9763520Y-8661640D02*
X9733520Y-8691640D01*
X9733520Y-10246600D02*
X9763520Y-10276600D01*
X9763520Y-10246600D02*
X9733520Y-10276600D01*
X9738600Y-7478000D02*
X9768600Y-7508000D01*
X9768600Y-7478000D02*
X9738600Y-7508000D01*
X9738600Y-7869160D02*
X9768600Y-7899160D01*
X9768600Y-7869160D02*
X9738600Y-7899160D01*
X9738600Y-9057880D02*
X9768600Y-9087880D01*
X9768600Y-9057880D02*
X9738600Y-9087880D01*
X10591000Y-8128000D02*
G75*
G02*
X10491000Y-8128000I-50000J0D01*
G01*
X10491000Y-8128000D02*
G75*
G02*
X10591000Y-8128000I50000J0D01*
G01*
X10591000Y-8382000D02*
G75*
G02*
X10491000Y-8382000I-50000J0D01*
G01*
X10491000Y-8382000D02*
G75*
G02*
X10591000Y-8382000I50000J0D01*
G01*
X10591000Y-8636000D02*
G75*
G02*
X10491000Y-8636000I-50000J0D01*
G01*
X10491000Y-8636000D02*
G75*
G02*
X10591000Y-8636000I50000J0D01*
G01*
X10591000Y-8890000D02*
G75*
G02*
X10491000Y-8890000I-50000J0D01*
G01*
X10491000Y-8890000D02*
G75*
G02*
X10591000Y-8890000I50000J0D01*
G01*
X10591000Y-9144000D02*
G75*
G02*
X10491000Y-9144000I-50000J0D01*
G01*
X10491000Y-9144000D02*
G75*
G02*
X10591000Y-9144000I50000J0D01*
G01*
X10591000Y-9398000D02*
G75*
G02*
X10491000Y-9398000I-50000J0D01*
G01*
X10491000Y-9398000D02*
G75*
G02*
X10591000Y-9398000I50000J0D01*
G01*
X10591000Y-9652000D02*
G75*
G02*
X10491000Y-9652000I-50000J0D01*
G01*
X10491000Y-9652000D02*
G75*
G02*
X10591000Y-9652000I50000J0D01*
G01*
X10591000Y-9906000D02*
G75*
G02*
X10491000Y-9906000I-50000J0D01*
G01*
X10491000Y-9906000D02*
G75*
G02*
X10591000Y-9906000I50000J0D01*
G01*
X10591000Y-10160000D02*
G75*
G02*
X10491000Y-10160000I-50000J0D01*
G01*
X10491000Y-10160000D02*
G75*
G02*
X10591000Y-10160000I50000J0D01*
G01*
X10591000Y-10414000D02*
G75*
G02*
X10491000Y-10414000I-50000J0D01*
G01*
X10491000Y-10414000D02*
G75*
G02*
X10591000Y-10414000I50000J0D01*
G01*
X10972000Y-8128000D02*
G75*
G02*
X10872000Y-8128000I-50000J0D01*
G01*
X10872000Y-8128000D02*
G75*
G02*
X10972000Y-8128000I50000J0D01*
G01*
X10972000Y-8382000D02*
G75*
G02*
X10872000Y-8382000I-50000J0D01*
G01*
X10872000Y-8382000D02*
G75*
G02*
X10972000Y-8382000I50000J0D01*
G01*
X10972000Y-8636000D02*
G75*
G02*
X10872000Y-8636000I-50000J0D01*
G01*
X10872000Y-8636000D02*
G75*
G02*
X10972000Y-8636000I50000J0D01*
G01*
X10972000Y-8890000D02*
G75*
G02*
X10872000Y-8890000I-50000J0D01*
G01*
X10872000Y-8890000D02*
G75*
G02*
X10972000Y-8890000I50000J0D01*
G01*
X10972000Y-9144000D02*
G75*
G02*
X10872000Y-9144000I-50000J0D01*
G01*
X10872000Y-9144000D02*
G75*
G02*
X10972000Y-9144000I50000J0D01*
G01*
X10972000Y-9398000D02*
G75*
G02*
X10872000Y-9398000I-50000J0D01*
G01*
X10872000Y-9398000D02*
G75*
G02*
X10972000Y-9398000I50000J0D01*
G01*
X10972000Y-9652000D02*
G75*
G02*
X10872000Y-9652000I-50000J0D01*
G01*
X10872000Y-9652000D02*
G75*
G02*
X10972000Y-9652000I50000J0D01*
G01*
X10972000Y-9906000D02*
G75*
G02*
X10872000Y-9906000I-50000J0D01*
G01*
X10872000Y-9906000D02*
G75*
G02*
X10972000Y-9906000I50000J0D01*
G01*
X10972000Y-10160000D02*
G75*
G02*
X10872000Y-10160000I-50000J0D01*
G01*
X10872000Y-10160000D02*
G75*
G02*
X10972000Y-10160000I50000J0D01*
G01*
X10972000Y-10414000D02*
G75*
G02*
X10872000Y-10414000I-50000J0D01*
G01*
X10872000Y-10414000D02*
G75*
G02*
X10972000Y-10414000I50000J0D01*
G01*
D14*
X11938000Y-7290000D02*
X11938000Y-7442000D01*
X11862000Y-7366000D02*
X12014000Y-7366000D01*
X11938000Y-7798000D02*
X11938000Y-7950000D01*
X11862000Y-7874000D02*
X12014000Y-7874000D01*
X11938000Y-8306000D02*
X11938000Y-8458000D01*
X11862000Y-8382000D02*
X12014000Y-8382000D01*
X11938000Y-8814000D02*
X11938000Y-8966000D01*
X11862000Y-8890000D02*
X12014000Y-8890000D01*
X11938000Y-9576000D02*
X11938000Y-9728000D01*
X11862000Y-9652000D02*
X12014000Y-9652000D01*
X11938000Y-10084000D02*
X11938000Y-10236000D01*
X11862000Y-10160000D02*
X12014000Y-10160000D01*
X11938000Y-10592000D02*
X11938000Y-10744000D01*
X11862000Y-10668000D02*
X12014000Y-10668000D01*
X11938000Y-11100000D02*
X11938000Y-11252000D01*
X11862000Y-11176000D02*
X12014000Y-11176000D01*
D12*
X8903777Y-11997984D02*
X8903777Y-11797984D01*
X8903777Y-11797984D02*
X8951396Y-11797984D01*
X8951396Y-11797984D02*
X8979967Y-11807508D01*
X8979967Y-11807508D02*
X8999015Y-11826555D01*
X8999015Y-11826555D02*
X9008539Y-11845603D01*
X9008539Y-11845603D02*
X9018063Y-11883698D01*
X9018063Y-11883698D02*
X9018063Y-11912269D01*
X9018063Y-11912269D02*
X9008539Y-11950365D01*
X9008539Y-11950365D02*
X8999015Y-11969412D01*
X8999015Y-11969412D02*
X8979967Y-11988460D01*
X8979967Y-11988460D02*
X8951396Y-11997984D01*
X8951396Y-11997984D02*
X8903777Y-11997984D01*
X9103777Y-11997984D02*
X9103777Y-11864650D01*
X9103777Y-11902746D02*
X9113301Y-11883698D01*
X9113301Y-11883698D02*
X9122824Y-11874174D01*
X9122824Y-11874174D02*
X9141872Y-11864650D01*
X9141872Y-11864650D02*
X9160920Y-11864650D01*
X9227586Y-11997984D02*
X9227586Y-11864650D01*
X9227586Y-11797984D02*
X9218063Y-11807508D01*
X9218063Y-11807508D02*
X9227586Y-11817031D01*
X9227586Y-11817031D02*
X9237110Y-11807508D01*
X9237110Y-11807508D02*
X9227586Y-11797984D01*
X9227586Y-11797984D02*
X9227586Y-11817031D01*
X9351396Y-11997984D02*
X9332348Y-11988460D01*
X9332348Y-11988460D02*
X9322824Y-11969412D01*
X9322824Y-11969412D02*
X9322824Y-11797984D01*
X9456158Y-11997984D02*
X9437110Y-11988460D01*
X9437110Y-11988460D02*
X9427586Y-11969412D01*
X9427586Y-11969412D02*
X9427586Y-11797984D01*
X9684729Y-11997984D02*
X9684729Y-11797984D01*
X9684729Y-11797984D02*
X9751396Y-11940841D01*
X9751396Y-11940841D02*
X9818063Y-11797984D01*
X9818063Y-11797984D02*
X9818063Y-11997984D01*
X9999015Y-11997984D02*
X9999015Y-11893222D01*
X9999015Y-11893222D02*
X9989491Y-11874174D01*
X9989491Y-11874174D02*
X9970444Y-11864650D01*
X9970444Y-11864650D02*
X9932348Y-11864650D01*
X9932348Y-11864650D02*
X9913301Y-11874174D01*
X9999015Y-11988460D02*
X9979967Y-11997984D01*
X9979967Y-11997984D02*
X9932348Y-11997984D01*
X9932348Y-11997984D02*
X9913301Y-11988460D01*
X9913301Y-11988460D02*
X9903777Y-11969412D01*
X9903777Y-11969412D02*
X9903777Y-11950365D01*
X9903777Y-11950365D02*
X9913301Y-11931317D01*
X9913301Y-11931317D02*
X9932348Y-11921793D01*
X9932348Y-11921793D02*
X9979967Y-11921793D01*
X9979967Y-11921793D02*
X9999015Y-11912269D01*
X10094253Y-11864650D02*
X10094253Y-12064650D01*
X10094253Y-11874174D02*
X10113301Y-11864650D01*
X10113301Y-11864650D02*
X10151396Y-11864650D01*
X10151396Y-11864650D02*
X10170444Y-11874174D01*
X10170444Y-11874174D02*
X10179967Y-11883698D01*
X10179967Y-11883698D02*
X10189491Y-11902746D01*
X10189491Y-11902746D02*
X10189491Y-11959888D01*
X10189491Y-11959888D02*
X10179967Y-11978936D01*
X10179967Y-11978936D02*
X10170444Y-11988460D01*
X10170444Y-11988460D02*
X10151396Y-11997984D01*
X10151396Y-11997984D02*
X10113301Y-11997984D01*
X10113301Y-11997984D02*
X10094253Y-11988460D01*
X10275205Y-11978936D02*
X10284729Y-11988460D01*
X10284729Y-11988460D02*
X10275205Y-11997984D01*
X10275205Y-11997984D02*
X10265682Y-11988460D01*
X10265682Y-11988460D02*
X10275205Y-11978936D01*
X10275205Y-11978936D02*
X10275205Y-11997984D01*
X10275205Y-11874174D02*
X10284729Y-11883698D01*
X10284729Y-11883698D02*
X10275205Y-11893222D01*
X10275205Y-11893222D02*
X10265682Y-11883698D01*
X10265682Y-11883698D02*
X10275205Y-11874174D01*
X10275205Y-11874174D02*
X10275205Y-11893222D01*
D13*
X8613000Y-12311500D02*
X8643000Y-12341500D01*
X8643000Y-12311500D02*
X8613000Y-12341500D01*
D12*
X8941872Y-12217984D02*
X8960920Y-12217984D01*
X8960920Y-12217984D02*
X8979967Y-12227508D01*
X8979967Y-12227508D02*
X8989491Y-12237031D01*
X8989491Y-12237031D02*
X8999015Y-12256079D01*
X8999015Y-12256079D02*
X9008539Y-12294174D01*
X9008539Y-12294174D02*
X9008539Y-12341793D01*
X9008539Y-12341793D02*
X8999015Y-12379888D01*
X8999015Y-12379888D02*
X8989491Y-12398936D01*
X8989491Y-12398936D02*
X8979967Y-12408460D01*
X8979967Y-12408460D02*
X8960920Y-12417984D01*
X8960920Y-12417984D02*
X8941872Y-12417984D01*
X8941872Y-12417984D02*
X8922824Y-12408460D01*
X8922824Y-12408460D02*
X8913301Y-12398936D01*
X8913301Y-12398936D02*
X8903777Y-12379888D01*
X8903777Y-12379888D02*
X8894253Y-12341793D01*
X8894253Y-12341793D02*
X8894253Y-12294174D01*
X8894253Y-12294174D02*
X8903777Y-12256079D01*
X8903777Y-12256079D02*
X8913301Y-12237031D01*
X8913301Y-12237031D02*
X8922824Y-12227508D01*
X8922824Y-12227508D02*
X8941872Y-12217984D01*
X9094253Y-12398936D02*
X9103777Y-12408460D01*
X9103777Y-12408460D02*
X9094253Y-12417984D01*
X9094253Y-12417984D02*
X9084729Y-12408460D01*
X9084729Y-12408460D02*
X9094253Y-12398936D01*
X9094253Y-12398936D02*
X9094253Y-12417984D01*
X9170444Y-12217984D02*
X9294253Y-12217984D01*
X9294253Y-12217984D02*
X9227586Y-12294174D01*
X9227586Y-12294174D02*
X9256158Y-12294174D01*
X9256158Y-12294174D02*
X9275205Y-12303698D01*
X9275205Y-12303698D02*
X9284729Y-12313222D01*
X9284729Y-12313222D02*
X9294253Y-12332269D01*
X9294253Y-12332269D02*
X9294253Y-12379888D01*
X9294253Y-12379888D02*
X9284729Y-12398936D01*
X9284729Y-12398936D02*
X9275205Y-12408460D01*
X9275205Y-12408460D02*
X9256158Y-12417984D01*
X9256158Y-12417984D02*
X9199015Y-12417984D01*
X9199015Y-12417984D02*
X9179967Y-12408460D01*
X9179967Y-12408460D02*
X9170444Y-12398936D01*
X9418063Y-12217984D02*
X9437110Y-12217984D01*
X9437110Y-12217984D02*
X9456158Y-12227508D01*
X9456158Y-12227508D02*
X9465682Y-12237031D01*
X9465682Y-12237031D02*
X9475205Y-12256079D01*
X9475205Y-12256079D02*
X9484729Y-12294174D01*
X9484729Y-12294174D02*
X9484729Y-12341793D01*
X9484729Y-12341793D02*
X9475205Y-12379888D01*
X9475205Y-12379888D02*
X9465682Y-12398936D01*
X9465682Y-12398936D02*
X9456158Y-12408460D01*
X9456158Y-12408460D02*
X9437110Y-12417984D01*
X9437110Y-12417984D02*
X9418063Y-12417984D01*
X9418063Y-12417984D02*
X9399015Y-12408460D01*
X9399015Y-12408460D02*
X9389491Y-12398936D01*
X9389491Y-12398936D02*
X9379967Y-12379888D01*
X9379967Y-12379888D02*
X9370444Y-12341793D01*
X9370444Y-12341793D02*
X9370444Y-12294174D01*
X9370444Y-12294174D02*
X9379967Y-12256079D01*
X9379967Y-12256079D02*
X9389491Y-12237031D01*
X9389491Y-12237031D02*
X9399015Y-12227508D01*
X9399015Y-12227508D02*
X9418063Y-12217984D01*
X9608539Y-12217984D02*
X9627586Y-12217984D01*
X9627586Y-12217984D02*
X9646634Y-12227508D01*
X9646634Y-12227508D02*
X9656158Y-12237031D01*
X9656158Y-12237031D02*
X9665682Y-12256079D01*
X9665682Y-12256079D02*
X9675205Y-12294174D01*
X9675205Y-12294174D02*
X9675205Y-12341793D01*
X9675205Y-12341793D02*
X9665682Y-12379888D01*
X9665682Y-12379888D02*
X9656158Y-12398936D01*
X9656158Y-12398936D02*
X9646634Y-12408460D01*
X9646634Y-12408460D02*
X9627586Y-12417984D01*
X9627586Y-12417984D02*
X9608539Y-12417984D01*
X9608539Y-12417984D02*
X9589491Y-12408460D01*
X9589491Y-12408460D02*
X9579967Y-12398936D01*
X9579967Y-12398936D02*
X9570444Y-12379888D01*
X9570444Y-12379888D02*
X9560920Y-12341793D01*
X9560920Y-12341793D02*
X9560920Y-12294174D01*
X9560920Y-12294174D02*
X9570444Y-12256079D01*
X9570444Y-12256079D02*
X9579967Y-12237031D01*
X9579967Y-12237031D02*
X9589491Y-12227508D01*
X9589491Y-12227508D02*
X9608539Y-12217984D01*
X9760920Y-12417984D02*
X9760920Y-12284650D01*
X9760920Y-12303698D02*
X9770444Y-12294174D01*
X9770444Y-12294174D02*
X9789491Y-12284650D01*
X9789491Y-12284650D02*
X9818063Y-12284650D01*
X9818063Y-12284650D02*
X9837110Y-12294174D01*
X9837110Y-12294174D02*
X9846634Y-12313222D01*
X9846634Y-12313222D02*
X9846634Y-12417984D01*
X9846634Y-12313222D02*
X9856158Y-12294174D01*
X9856158Y-12294174D02*
X9875205Y-12284650D01*
X9875205Y-12284650D02*
X9903777Y-12284650D01*
X9903777Y-12284650D02*
X9922825Y-12294174D01*
X9922825Y-12294174D02*
X9932348Y-12313222D01*
X9932348Y-12313222D02*
X9932348Y-12417984D01*
X10027586Y-12417984D02*
X10027586Y-12284650D01*
X10027586Y-12303698D02*
X10037110Y-12294174D01*
X10037110Y-12294174D02*
X10056158Y-12284650D01*
X10056158Y-12284650D02*
X10084729Y-12284650D01*
X10084729Y-12284650D02*
X10103777Y-12294174D01*
X10103777Y-12294174D02*
X10113301Y-12313222D01*
X10113301Y-12313222D02*
X10113301Y-12417984D01*
X10113301Y-12313222D02*
X10122825Y-12294174D01*
X10122825Y-12294174D02*
X10141872Y-12284650D01*
X10141872Y-12284650D02*
X10170444Y-12284650D01*
X10170444Y-12284650D02*
X10189491Y-12294174D01*
X10189491Y-12294174D02*
X10199015Y-12313222D01*
X10199015Y-12313222D02*
X10199015Y-12417984D01*
X10589491Y-12208460D02*
X10418063Y-12465603D01*
X10846634Y-12217984D02*
X10865682Y-12217984D01*
X10865682Y-12217984D02*
X10884729Y-12227508D01*
X10884729Y-12227508D02*
X10894253Y-12237031D01*
X10894253Y-12237031D02*
X10903777Y-12256079D01*
X10903777Y-12256079D02*
X10913301Y-12294174D01*
X10913301Y-12294174D02*
X10913301Y-12341793D01*
X10913301Y-12341793D02*
X10903777Y-12379888D01*
X10903777Y-12379888D02*
X10894253Y-12398936D01*
X10894253Y-12398936D02*
X10884729Y-12408460D01*
X10884729Y-12408460D02*
X10865682Y-12417984D01*
X10865682Y-12417984D02*
X10846634Y-12417984D01*
X10846634Y-12417984D02*
X10827587Y-12408460D01*
X10827587Y-12408460D02*
X10818063Y-12398936D01*
X10818063Y-12398936D02*
X10808539Y-12379888D01*
X10808539Y-12379888D02*
X10799015Y-12341793D01*
X10799015Y-12341793D02*
X10799015Y-12294174D01*
X10799015Y-12294174D02*
X10808539Y-12256079D01*
X10808539Y-12256079D02*
X10818063Y-12237031D01*
X10818063Y-12237031D02*
X10827587Y-12227508D01*
X10827587Y-12227508D02*
X10846634Y-12217984D01*
X10999015Y-12398936D02*
X11008539Y-12408460D01*
X11008539Y-12408460D02*
X10999015Y-12417984D01*
X10999015Y-12417984D02*
X10989491Y-12408460D01*
X10989491Y-12408460D02*
X10999015Y-12398936D01*
X10999015Y-12398936D02*
X10999015Y-12417984D01*
X11132348Y-12217984D02*
X11151396Y-12217984D01*
X11151396Y-12217984D02*
X11170444Y-12227508D01*
X11170444Y-12227508D02*
X11179968Y-12237031D01*
X11179968Y-12237031D02*
X11189491Y-12256079D01*
X11189491Y-12256079D02*
X11199015Y-12294174D01*
X11199015Y-12294174D02*
X11199015Y-12341793D01*
X11199015Y-12341793D02*
X11189491Y-12379888D01*
X11189491Y-12379888D02*
X11179968Y-12398936D01*
X11179968Y-12398936D02*
X11170444Y-12408460D01*
X11170444Y-12408460D02*
X11151396Y-12417984D01*
X11151396Y-12417984D02*
X11132348Y-12417984D01*
X11132348Y-12417984D02*
X11113301Y-12408460D01*
X11113301Y-12408460D02*
X11103777Y-12398936D01*
X11103777Y-12398936D02*
X11094253Y-12379888D01*
X11094253Y-12379888D02*
X11084729Y-12341793D01*
X11084729Y-12341793D02*
X11084729Y-12294174D01*
X11084729Y-12294174D02*
X11094253Y-12256079D01*
X11094253Y-12256079D02*
X11103777Y-12237031D01*
X11103777Y-12237031D02*
X11113301Y-12227508D01*
X11113301Y-12227508D02*
X11132348Y-12217984D01*
X11389491Y-12417984D02*
X11275206Y-12417984D01*
X11332348Y-12417984D02*
X11332348Y-12217984D01*
X11332348Y-12217984D02*
X11313301Y-12246555D01*
X11313301Y-12246555D02*
X11294253Y-12265603D01*
X11294253Y-12265603D02*
X11275206Y-12275127D01*
X11579967Y-12417984D02*
X11465682Y-12417984D01*
X11522825Y-12417984D02*
X11522825Y-12217984D01*
X11522825Y-12217984D02*
X11503777Y-12246555D01*
X11503777Y-12246555D02*
X11484729Y-12265603D01*
X11484729Y-12265603D02*
X11465682Y-12275127D01*
X11694253Y-12303698D02*
X11675206Y-12294174D01*
X11675206Y-12294174D02*
X11665682Y-12284650D01*
X11665682Y-12284650D02*
X11656158Y-12265603D01*
X11656158Y-12265603D02*
X11656158Y-12256079D01*
X11656158Y-12256079D02*
X11665682Y-12237031D01*
X11665682Y-12237031D02*
X11675206Y-12227508D01*
X11675206Y-12227508D02*
X11694253Y-12217984D01*
X11694253Y-12217984D02*
X11732348Y-12217984D01*
X11732348Y-12217984D02*
X11751396Y-12227508D01*
X11751396Y-12227508D02*
X11760920Y-12237031D01*
X11760920Y-12237031D02*
X11770444Y-12256079D01*
X11770444Y-12256079D02*
X11770444Y-12265603D01*
X11770444Y-12265603D02*
X11760920Y-12284650D01*
X11760920Y-12284650D02*
X11751396Y-12294174D01*
X11751396Y-12294174D02*
X11732348Y-12303698D01*
X11732348Y-12303698D02*
X11694253Y-12303698D01*
X11694253Y-12303698D02*
X11675206Y-12313222D01*
X11675206Y-12313222D02*
X11665682Y-12322746D01*
X11665682Y-12322746D02*
X11656158Y-12341793D01*
X11656158Y-12341793D02*
X11656158Y-12379888D01*
X11656158Y-12379888D02*
X11665682Y-12398936D01*
X11665682Y-12398936D02*
X11675206Y-12408460D01*
X11675206Y-12408460D02*
X11694253Y-12417984D01*
X11694253Y-12417984D02*
X11732348Y-12417984D01*
X11732348Y-12417984D02*
X11751396Y-12408460D01*
X11751396Y-12408460D02*
X11760920Y-12398936D01*
X11760920Y-12398936D02*
X11770444Y-12379888D01*
X11770444Y-12379888D02*
X11770444Y-12341793D01*
X11770444Y-12341793D02*
X11760920Y-12322746D01*
X11760920Y-12322746D02*
X11751396Y-12313222D01*
X11751396Y-12313222D02*
X11732348Y-12303698D01*
X11846634Y-12217984D02*
X11846634Y-12256079D01*
X11922825Y-12217984D02*
X11922825Y-12256079D01*
X12218063Y-12494174D02*
X12208539Y-12484650D01*
X12208539Y-12484650D02*
X12189491Y-12456079D01*
X12189491Y-12456079D02*
X12179968Y-12437031D01*
X12179968Y-12437031D02*
X12170444Y-12408460D01*
X12170444Y-12408460D02*
X12160920Y-12360841D01*
X12160920Y-12360841D02*
X12160920Y-12322746D01*
X12160920Y-12322746D02*
X12170444Y-12275127D01*
X12170444Y-12275127D02*
X12179968Y-12246555D01*
X12179968Y-12246555D02*
X12189491Y-12227508D01*
X12189491Y-12227508D02*
X12208539Y-12198936D01*
X12208539Y-12198936D02*
X12218063Y-12189412D01*
X12399015Y-12417984D02*
X12284729Y-12417984D01*
X12341872Y-12417984D02*
X12341872Y-12217984D01*
X12341872Y-12217984D02*
X12322825Y-12246555D01*
X12322825Y-12246555D02*
X12303777Y-12265603D01*
X12303777Y-12265603D02*
X12284729Y-12275127D01*
X12522825Y-12217984D02*
X12541872Y-12217984D01*
X12541872Y-12217984D02*
X12560920Y-12227508D01*
X12560920Y-12227508D02*
X12570444Y-12237031D01*
X12570444Y-12237031D02*
X12579968Y-12256079D01*
X12579968Y-12256079D02*
X12589491Y-12294174D01*
X12589491Y-12294174D02*
X12589491Y-12341793D01*
X12589491Y-12341793D02*
X12579968Y-12379888D01*
X12579968Y-12379888D02*
X12570444Y-12398936D01*
X12570444Y-12398936D02*
X12560920Y-12408460D01*
X12560920Y-12408460D02*
X12541872Y-12417984D01*
X12541872Y-12417984D02*
X12522825Y-12417984D01*
X12522825Y-12417984D02*
X12503777Y-12408460D01*
X12503777Y-12408460D02*
X12494253Y-12398936D01*
X12494253Y-12398936D02*
X12484729Y-12379888D01*
X12484729Y-12379888D02*
X12475206Y-12341793D01*
X12475206Y-12341793D02*
X12475206Y-12294174D01*
X12475206Y-12294174D02*
X12484729Y-12256079D01*
X12484729Y-12256079D02*
X12494253Y-12237031D01*
X12494253Y-12237031D02*
X12503777Y-12227508D01*
X12503777Y-12227508D02*
X12522825Y-12217984D01*
X12827587Y-12417984D02*
X12827587Y-12217984D01*
X12913301Y-12417984D02*
X12913301Y-12313222D01*
X12913301Y-12313222D02*
X12903777Y-12294174D01*
X12903777Y-12294174D02*
X12884730Y-12284650D01*
X12884730Y-12284650D02*
X12856158Y-12284650D01*
X12856158Y-12284650D02*
X12837110Y-12294174D01*
X12837110Y-12294174D02*
X12827587Y-12303698D01*
X13037110Y-12417984D02*
X13018063Y-12408460D01*
X13018063Y-12408460D02*
X13008539Y-12398936D01*
X13008539Y-12398936D02*
X12999015Y-12379888D01*
X12999015Y-12379888D02*
X12999015Y-12322746D01*
X12999015Y-12322746D02*
X13008539Y-12303698D01*
X13008539Y-12303698D02*
X13018063Y-12294174D01*
X13018063Y-12294174D02*
X13037110Y-12284650D01*
X13037110Y-12284650D02*
X13065682Y-12284650D01*
X13065682Y-12284650D02*
X13084730Y-12294174D01*
X13084730Y-12294174D02*
X13094253Y-12303698D01*
X13094253Y-12303698D02*
X13103777Y-12322746D01*
X13103777Y-12322746D02*
X13103777Y-12379888D01*
X13103777Y-12379888D02*
X13094253Y-12398936D01*
X13094253Y-12398936D02*
X13084730Y-12408460D01*
X13084730Y-12408460D02*
X13065682Y-12417984D01*
X13065682Y-12417984D02*
X13037110Y-12417984D01*
X13218063Y-12417984D02*
X13199015Y-12408460D01*
X13199015Y-12408460D02*
X13189491Y-12389412D01*
X13189491Y-12389412D02*
X13189491Y-12217984D01*
X13370444Y-12408460D02*
X13351396Y-12417984D01*
X13351396Y-12417984D02*
X13313301Y-12417984D01*
X13313301Y-12417984D02*
X13294253Y-12408460D01*
X13294253Y-12408460D02*
X13284730Y-12389412D01*
X13284730Y-12389412D02*
X13284730Y-12313222D01*
X13284730Y-12313222D02*
X13294253Y-12294174D01*
X13294253Y-12294174D02*
X13313301Y-12284650D01*
X13313301Y-12284650D02*
X13351396Y-12284650D01*
X13351396Y-12284650D02*
X13370444Y-12294174D01*
X13370444Y-12294174D02*
X13379968Y-12313222D01*
X13379968Y-12313222D02*
X13379968Y-12332269D01*
X13379968Y-12332269D02*
X13284730Y-12351317D01*
X13456158Y-12408460D02*
X13475206Y-12417984D01*
X13475206Y-12417984D02*
X13513301Y-12417984D01*
X13513301Y-12417984D02*
X13532349Y-12408460D01*
X13532349Y-12408460D02*
X13541872Y-12389412D01*
X13541872Y-12389412D02*
X13541872Y-12379888D01*
X13541872Y-12379888D02*
X13532349Y-12360841D01*
X13532349Y-12360841D02*
X13513301Y-12351317D01*
X13513301Y-12351317D02*
X13484730Y-12351317D01*
X13484730Y-12351317D02*
X13465682Y-12341793D01*
X13465682Y-12341793D02*
X13456158Y-12322746D01*
X13456158Y-12322746D02*
X13456158Y-12313222D01*
X13456158Y-12313222D02*
X13465682Y-12294174D01*
X13465682Y-12294174D02*
X13484730Y-12284650D01*
X13484730Y-12284650D02*
X13513301Y-12284650D01*
X13513301Y-12284650D02*
X13532349Y-12294174D01*
X13608539Y-12494174D02*
X13618063Y-12484650D01*
X13618063Y-12484650D02*
X13637111Y-12456079D01*
X13637111Y-12456079D02*
X13646634Y-12437031D01*
X13646634Y-12437031D02*
X13656158Y-12408460D01*
X13656158Y-12408460D02*
X13665682Y-12360841D01*
X13665682Y-12360841D02*
X13665682Y-12322746D01*
X13665682Y-12322746D02*
X13656158Y-12275127D01*
X13656158Y-12275127D02*
X13646634Y-12246555D01*
X13646634Y-12246555D02*
X13637111Y-12227508D01*
X13637111Y-12227508D02*
X13618063Y-12198936D01*
X13618063Y-12198936D02*
X13608539Y-12189412D01*
D13*
X8643000Y-12590500D02*
G75*
G02*
X8543000Y-12590500I-50000J0D01*
G01*
X8543000Y-12590500D02*
G75*
G02*
X8643000Y-12590500I50000J0D01*
G01*
D12*
X9008539Y-12681984D02*
X8894253Y-12681984D01*
X8951396Y-12681984D02*
X8951396Y-12481984D01*
X8951396Y-12481984D02*
X8932348Y-12510555D01*
X8932348Y-12510555D02*
X8913301Y-12529603D01*
X8913301Y-12529603D02*
X8894253Y-12539127D01*
X9094253Y-12662936D02*
X9103777Y-12672460D01*
X9103777Y-12672460D02*
X9094253Y-12681984D01*
X9094253Y-12681984D02*
X9084729Y-12672460D01*
X9084729Y-12672460D02*
X9094253Y-12662936D01*
X9094253Y-12662936D02*
X9094253Y-12681984D01*
X9227586Y-12481984D02*
X9246634Y-12481984D01*
X9246634Y-12481984D02*
X9265682Y-12491508D01*
X9265682Y-12491508D02*
X9275205Y-12501031D01*
X9275205Y-12501031D02*
X9284729Y-12520079D01*
X9284729Y-12520079D02*
X9294253Y-12558174D01*
X9294253Y-12558174D02*
X9294253Y-12605793D01*
X9294253Y-12605793D02*
X9284729Y-12643888D01*
X9284729Y-12643888D02*
X9275205Y-12662936D01*
X9275205Y-12662936D02*
X9265682Y-12672460D01*
X9265682Y-12672460D02*
X9246634Y-12681984D01*
X9246634Y-12681984D02*
X9227586Y-12681984D01*
X9227586Y-12681984D02*
X9208539Y-12672460D01*
X9208539Y-12672460D02*
X9199015Y-12662936D01*
X9199015Y-12662936D02*
X9189491Y-12643888D01*
X9189491Y-12643888D02*
X9179967Y-12605793D01*
X9179967Y-12605793D02*
X9179967Y-12558174D01*
X9179967Y-12558174D02*
X9189491Y-12520079D01*
X9189491Y-12520079D02*
X9199015Y-12501031D01*
X9199015Y-12501031D02*
X9208539Y-12491508D01*
X9208539Y-12491508D02*
X9227586Y-12481984D01*
X9418063Y-12481984D02*
X9437110Y-12481984D01*
X9437110Y-12481984D02*
X9456158Y-12491508D01*
X9456158Y-12491508D02*
X9465682Y-12501031D01*
X9465682Y-12501031D02*
X9475205Y-12520079D01*
X9475205Y-12520079D02*
X9484729Y-12558174D01*
X9484729Y-12558174D02*
X9484729Y-12605793D01*
X9484729Y-12605793D02*
X9475205Y-12643888D01*
X9475205Y-12643888D02*
X9465682Y-12662936D01*
X9465682Y-12662936D02*
X9456158Y-12672460D01*
X9456158Y-12672460D02*
X9437110Y-12681984D01*
X9437110Y-12681984D02*
X9418063Y-12681984D01*
X9418063Y-12681984D02*
X9399015Y-12672460D01*
X9399015Y-12672460D02*
X9389491Y-12662936D01*
X9389491Y-12662936D02*
X9379967Y-12643888D01*
X9379967Y-12643888D02*
X9370444Y-12605793D01*
X9370444Y-12605793D02*
X9370444Y-12558174D01*
X9370444Y-12558174D02*
X9379967Y-12520079D01*
X9379967Y-12520079D02*
X9389491Y-12501031D01*
X9389491Y-12501031D02*
X9399015Y-12491508D01*
X9399015Y-12491508D02*
X9418063Y-12481984D01*
X9608539Y-12481984D02*
X9627586Y-12481984D01*
X9627586Y-12481984D02*
X9646634Y-12491508D01*
X9646634Y-12491508D02*
X9656158Y-12501031D01*
X9656158Y-12501031D02*
X9665682Y-12520079D01*
X9665682Y-12520079D02*
X9675205Y-12558174D01*
X9675205Y-12558174D02*
X9675205Y-12605793D01*
X9675205Y-12605793D02*
X9665682Y-12643888D01*
X9665682Y-12643888D02*
X9656158Y-12662936D01*
X9656158Y-12662936D02*
X9646634Y-12672460D01*
X9646634Y-12672460D02*
X9627586Y-12681984D01*
X9627586Y-12681984D02*
X9608539Y-12681984D01*
X9608539Y-12681984D02*
X9589491Y-12672460D01*
X9589491Y-12672460D02*
X9579967Y-12662936D01*
X9579967Y-12662936D02*
X9570444Y-12643888D01*
X9570444Y-12643888D02*
X9560920Y-12605793D01*
X9560920Y-12605793D02*
X9560920Y-12558174D01*
X9560920Y-12558174D02*
X9570444Y-12520079D01*
X9570444Y-12520079D02*
X9579967Y-12501031D01*
X9579967Y-12501031D02*
X9589491Y-12491508D01*
X9589491Y-12491508D02*
X9608539Y-12481984D01*
X9760920Y-12681984D02*
X9760920Y-12548650D01*
X9760920Y-12567698D02*
X9770444Y-12558174D01*
X9770444Y-12558174D02*
X9789491Y-12548650D01*
X9789491Y-12548650D02*
X9818063Y-12548650D01*
X9818063Y-12548650D02*
X9837110Y-12558174D01*
X9837110Y-12558174D02*
X9846634Y-12577222D01*
X9846634Y-12577222D02*
X9846634Y-12681984D01*
X9846634Y-12577222D02*
X9856158Y-12558174D01*
X9856158Y-12558174D02*
X9875205Y-12548650D01*
X9875205Y-12548650D02*
X9903777Y-12548650D01*
X9903777Y-12548650D02*
X9922825Y-12558174D01*
X9922825Y-12558174D02*
X9932348Y-12577222D01*
X9932348Y-12577222D02*
X9932348Y-12681984D01*
X10027586Y-12681984D02*
X10027586Y-12548650D01*
X10027586Y-12567698D02*
X10037110Y-12558174D01*
X10037110Y-12558174D02*
X10056158Y-12548650D01*
X10056158Y-12548650D02*
X10084729Y-12548650D01*
X10084729Y-12548650D02*
X10103777Y-12558174D01*
X10103777Y-12558174D02*
X10113301Y-12577222D01*
X10113301Y-12577222D02*
X10113301Y-12681984D01*
X10113301Y-12577222D02*
X10122825Y-12558174D01*
X10122825Y-12558174D02*
X10141872Y-12548650D01*
X10141872Y-12548650D02*
X10170444Y-12548650D01*
X10170444Y-12548650D02*
X10189491Y-12558174D01*
X10189491Y-12558174D02*
X10199015Y-12577222D01*
X10199015Y-12577222D02*
X10199015Y-12681984D01*
X10589491Y-12472460D02*
X10418063Y-12729603D01*
X10846634Y-12481984D02*
X10865682Y-12481984D01*
X10865682Y-12481984D02*
X10884729Y-12491508D01*
X10884729Y-12491508D02*
X10894253Y-12501031D01*
X10894253Y-12501031D02*
X10903777Y-12520079D01*
X10903777Y-12520079D02*
X10913301Y-12558174D01*
X10913301Y-12558174D02*
X10913301Y-12605793D01*
X10913301Y-12605793D02*
X10903777Y-12643888D01*
X10903777Y-12643888D02*
X10894253Y-12662936D01*
X10894253Y-12662936D02*
X10884729Y-12672460D01*
X10884729Y-12672460D02*
X10865682Y-12681984D01*
X10865682Y-12681984D02*
X10846634Y-12681984D01*
X10846634Y-12681984D02*
X10827587Y-12672460D01*
X10827587Y-12672460D02*
X10818063Y-12662936D01*
X10818063Y-12662936D02*
X10808539Y-12643888D01*
X10808539Y-12643888D02*
X10799015Y-12605793D01*
X10799015Y-12605793D02*
X10799015Y-12558174D01*
X10799015Y-12558174D02*
X10808539Y-12520079D01*
X10808539Y-12520079D02*
X10818063Y-12501031D01*
X10818063Y-12501031D02*
X10827587Y-12491508D01*
X10827587Y-12491508D02*
X10846634Y-12481984D01*
X10999015Y-12662936D02*
X11008539Y-12672460D01*
X11008539Y-12672460D02*
X10999015Y-12681984D01*
X10999015Y-12681984D02*
X10989491Y-12672460D01*
X10989491Y-12672460D02*
X10999015Y-12662936D01*
X10999015Y-12662936D02*
X10999015Y-12681984D01*
X11132348Y-12481984D02*
X11151396Y-12481984D01*
X11151396Y-12481984D02*
X11170444Y-12491508D01*
X11170444Y-12491508D02*
X11179968Y-12501031D01*
X11179968Y-12501031D02*
X11189491Y-12520079D01*
X11189491Y-12520079D02*
X11199015Y-12558174D01*
X11199015Y-12558174D02*
X11199015Y-12605793D01*
X11199015Y-12605793D02*
X11189491Y-12643888D01*
X11189491Y-12643888D02*
X11179968Y-12662936D01*
X11179968Y-12662936D02*
X11170444Y-12672460D01*
X11170444Y-12672460D02*
X11151396Y-12681984D01*
X11151396Y-12681984D02*
X11132348Y-12681984D01*
X11132348Y-12681984D02*
X11113301Y-12672460D01*
X11113301Y-12672460D02*
X11103777Y-12662936D01*
X11103777Y-12662936D02*
X11094253Y-12643888D01*
X11094253Y-12643888D02*
X11084729Y-12605793D01*
X11084729Y-12605793D02*
X11084729Y-12558174D01*
X11084729Y-12558174D02*
X11094253Y-12520079D01*
X11094253Y-12520079D02*
X11103777Y-12501031D01*
X11103777Y-12501031D02*
X11113301Y-12491508D01*
X11113301Y-12491508D02*
X11132348Y-12481984D01*
X11265682Y-12481984D02*
X11389491Y-12481984D01*
X11389491Y-12481984D02*
X11322825Y-12558174D01*
X11322825Y-12558174D02*
X11351396Y-12558174D01*
X11351396Y-12558174D02*
X11370444Y-12567698D01*
X11370444Y-12567698D02*
X11379967Y-12577222D01*
X11379967Y-12577222D02*
X11389491Y-12596269D01*
X11389491Y-12596269D02*
X11389491Y-12643888D01*
X11389491Y-12643888D02*
X11379967Y-12662936D01*
X11379967Y-12662936D02*
X11370444Y-12672460D01*
X11370444Y-12672460D02*
X11351396Y-12681984D01*
X11351396Y-12681984D02*
X11294253Y-12681984D01*
X11294253Y-12681984D02*
X11275206Y-12672460D01*
X11275206Y-12672460D02*
X11265682Y-12662936D01*
X11484729Y-12681984D02*
X11522825Y-12681984D01*
X11522825Y-12681984D02*
X11541872Y-12672460D01*
X11541872Y-12672460D02*
X11551396Y-12662936D01*
X11551396Y-12662936D02*
X11570444Y-12634365D01*
X11570444Y-12634365D02*
X11579967Y-12596269D01*
X11579967Y-12596269D02*
X11579967Y-12520079D01*
X11579967Y-12520079D02*
X11570444Y-12501031D01*
X11570444Y-12501031D02*
X11560920Y-12491508D01*
X11560920Y-12491508D02*
X11541872Y-12481984D01*
X11541872Y-12481984D02*
X11503777Y-12481984D01*
X11503777Y-12481984D02*
X11484729Y-12491508D01*
X11484729Y-12491508D02*
X11475206Y-12501031D01*
X11475206Y-12501031D02*
X11465682Y-12520079D01*
X11465682Y-12520079D02*
X11465682Y-12567698D01*
X11465682Y-12567698D02*
X11475206Y-12586746D01*
X11475206Y-12586746D02*
X11484729Y-12596269D01*
X11484729Y-12596269D02*
X11503777Y-12605793D01*
X11503777Y-12605793D02*
X11541872Y-12605793D01*
X11541872Y-12605793D02*
X11560920Y-12596269D01*
X11560920Y-12596269D02*
X11570444Y-12586746D01*
X11570444Y-12586746D02*
X11579967Y-12567698D01*
X11751396Y-12548650D02*
X11751396Y-12681984D01*
X11703777Y-12472460D02*
X11656158Y-12615317D01*
X11656158Y-12615317D02*
X11779967Y-12615317D01*
X11846634Y-12481984D02*
X11846634Y-12520079D01*
X11922825Y-12481984D02*
X11922825Y-12520079D01*
X12218063Y-12758174D02*
X12208539Y-12748650D01*
X12208539Y-12748650D02*
X12189491Y-12720079D01*
X12189491Y-12720079D02*
X12179968Y-12701031D01*
X12179968Y-12701031D02*
X12170444Y-12672460D01*
X12170444Y-12672460D02*
X12160920Y-12624841D01*
X12160920Y-12624841D02*
X12160920Y-12586746D01*
X12160920Y-12586746D02*
X12170444Y-12539127D01*
X12170444Y-12539127D02*
X12179968Y-12510555D01*
X12179968Y-12510555D02*
X12189491Y-12491508D01*
X12189491Y-12491508D02*
X12208539Y-12462936D01*
X12208539Y-12462936D02*
X12218063Y-12453412D01*
X12284729Y-12501031D02*
X12294253Y-12491508D01*
X12294253Y-12491508D02*
X12313301Y-12481984D01*
X12313301Y-12481984D02*
X12360920Y-12481984D01*
X12360920Y-12481984D02*
X12379968Y-12491508D01*
X12379968Y-12491508D02*
X12389491Y-12501031D01*
X12389491Y-12501031D02*
X12399015Y-12520079D01*
X12399015Y-12520079D02*
X12399015Y-12539127D01*
X12399015Y-12539127D02*
X12389491Y-12567698D01*
X12389491Y-12567698D02*
X12275206Y-12681984D01*
X12275206Y-12681984D02*
X12399015Y-12681984D01*
X12522825Y-12481984D02*
X12541872Y-12481984D01*
X12541872Y-12481984D02*
X12560920Y-12491508D01*
X12560920Y-12491508D02*
X12570444Y-12501031D01*
X12570444Y-12501031D02*
X12579968Y-12520079D01*
X12579968Y-12520079D02*
X12589491Y-12558174D01*
X12589491Y-12558174D02*
X12589491Y-12605793D01*
X12589491Y-12605793D02*
X12579968Y-12643888D01*
X12579968Y-12643888D02*
X12570444Y-12662936D01*
X12570444Y-12662936D02*
X12560920Y-12672460D01*
X12560920Y-12672460D02*
X12541872Y-12681984D01*
X12541872Y-12681984D02*
X12522825Y-12681984D01*
X12522825Y-12681984D02*
X12503777Y-12672460D01*
X12503777Y-12672460D02*
X12494253Y-12662936D01*
X12494253Y-12662936D02*
X12484729Y-12643888D01*
X12484729Y-12643888D02*
X12475206Y-12605793D01*
X12475206Y-12605793D02*
X12475206Y-12558174D01*
X12475206Y-12558174D02*
X12484729Y-12520079D01*
X12484729Y-12520079D02*
X12494253Y-12501031D01*
X12494253Y-12501031D02*
X12503777Y-12491508D01*
X12503777Y-12491508D02*
X12522825Y-12481984D01*
X12827587Y-12681984D02*
X12827587Y-12481984D01*
X12913301Y-12681984D02*
X12913301Y-12577222D01*
X12913301Y-12577222D02*
X12903777Y-12558174D01*
X12903777Y-12558174D02*
X12884730Y-12548650D01*
X12884730Y-12548650D02*
X12856158Y-12548650D01*
X12856158Y-12548650D02*
X12837110Y-12558174D01*
X12837110Y-12558174D02*
X12827587Y-12567698D01*
X13037110Y-12681984D02*
X13018063Y-12672460D01*
X13018063Y-12672460D02*
X13008539Y-12662936D01*
X13008539Y-12662936D02*
X12999015Y-12643888D01*
X12999015Y-12643888D02*
X12999015Y-12586746D01*
X12999015Y-12586746D02*
X13008539Y-12567698D01*
X13008539Y-12567698D02*
X13018063Y-12558174D01*
X13018063Y-12558174D02*
X13037110Y-12548650D01*
X13037110Y-12548650D02*
X13065682Y-12548650D01*
X13065682Y-12548650D02*
X13084730Y-12558174D01*
X13084730Y-12558174D02*
X13094253Y-12567698D01*
X13094253Y-12567698D02*
X13103777Y-12586746D01*
X13103777Y-12586746D02*
X13103777Y-12643888D01*
X13103777Y-12643888D02*
X13094253Y-12662936D01*
X13094253Y-12662936D02*
X13084730Y-12672460D01*
X13084730Y-12672460D02*
X13065682Y-12681984D01*
X13065682Y-12681984D02*
X13037110Y-12681984D01*
X13218063Y-12681984D02*
X13199015Y-12672460D01*
X13199015Y-12672460D02*
X13189491Y-12653412D01*
X13189491Y-12653412D02*
X13189491Y-12481984D01*
X13370444Y-12672460D02*
X13351396Y-12681984D01*
X13351396Y-12681984D02*
X13313301Y-12681984D01*
X13313301Y-12681984D02*
X13294253Y-12672460D01*
X13294253Y-12672460D02*
X13284730Y-12653412D01*
X13284730Y-12653412D02*
X13284730Y-12577222D01*
X13284730Y-12577222D02*
X13294253Y-12558174D01*
X13294253Y-12558174D02*
X13313301Y-12548650D01*
X13313301Y-12548650D02*
X13351396Y-12548650D01*
X13351396Y-12548650D02*
X13370444Y-12558174D01*
X13370444Y-12558174D02*
X13379968Y-12577222D01*
X13379968Y-12577222D02*
X13379968Y-12596269D01*
X13379968Y-12596269D02*
X13284730Y-12615317D01*
X13456158Y-12672460D02*
X13475206Y-12681984D01*
X13475206Y-12681984D02*
X13513301Y-12681984D01*
X13513301Y-12681984D02*
X13532349Y-12672460D01*
X13532349Y-12672460D02*
X13541872Y-12653412D01*
X13541872Y-12653412D02*
X13541872Y-12643888D01*
X13541872Y-12643888D02*
X13532349Y-12624841D01*
X13532349Y-12624841D02*
X13513301Y-12615317D01*
X13513301Y-12615317D02*
X13484730Y-12615317D01*
X13484730Y-12615317D02*
X13465682Y-12605793D01*
X13465682Y-12605793D02*
X13456158Y-12586746D01*
X13456158Y-12586746D02*
X13456158Y-12577222D01*
X13456158Y-12577222D02*
X13465682Y-12558174D01*
X13465682Y-12558174D02*
X13484730Y-12548650D01*
X13484730Y-12548650D02*
X13513301Y-12548650D01*
X13513301Y-12548650D02*
X13532349Y-12558174D01*
X13608539Y-12758174D02*
X13618063Y-12748650D01*
X13618063Y-12748650D02*
X13637111Y-12720079D01*
X13637111Y-12720079D02*
X13646634Y-12701031D01*
X13646634Y-12701031D02*
X13656158Y-12672460D01*
X13656158Y-12672460D02*
X13665682Y-12624841D01*
X13665682Y-12624841D02*
X13665682Y-12586746D01*
X13665682Y-12586746D02*
X13656158Y-12539127D01*
X13656158Y-12539127D02*
X13646634Y-12510555D01*
X13646634Y-12510555D02*
X13637111Y-12491508D01*
X13637111Y-12491508D02*
X13618063Y-12462936D01*
X13618063Y-12462936D02*
X13608539Y-12453412D01*
D14*
X8567000Y-12778500D02*
X8567000Y-12930500D01*
X8491000Y-12854500D02*
X8643000Y-12854500D01*
D12*
X9008539Y-12945984D02*
X8894253Y-12945984D01*
X8951396Y-12945984D02*
X8951396Y-12745984D01*
X8951396Y-12745984D02*
X8932348Y-12774555D01*
X8932348Y-12774555D02*
X8913301Y-12793603D01*
X8913301Y-12793603D02*
X8894253Y-12803127D01*
X9094253Y-12926936D02*
X9103777Y-12936460D01*
X9103777Y-12936460D02*
X9094253Y-12945984D01*
X9094253Y-12945984D02*
X9084729Y-12936460D01*
X9084729Y-12936460D02*
X9094253Y-12926936D01*
X9094253Y-12926936D02*
X9094253Y-12945984D01*
X9284729Y-12745984D02*
X9189491Y-12745984D01*
X9189491Y-12745984D02*
X9179967Y-12841222D01*
X9179967Y-12841222D02*
X9189491Y-12831698D01*
X9189491Y-12831698D02*
X9208539Y-12822174D01*
X9208539Y-12822174D02*
X9256158Y-12822174D01*
X9256158Y-12822174D02*
X9275205Y-12831698D01*
X9275205Y-12831698D02*
X9284729Y-12841222D01*
X9284729Y-12841222D02*
X9294253Y-12860269D01*
X9294253Y-12860269D02*
X9294253Y-12907888D01*
X9294253Y-12907888D02*
X9284729Y-12926936D01*
X9284729Y-12926936D02*
X9275205Y-12936460D01*
X9275205Y-12936460D02*
X9256158Y-12945984D01*
X9256158Y-12945984D02*
X9208539Y-12945984D01*
X9208539Y-12945984D02*
X9189491Y-12936460D01*
X9189491Y-12936460D02*
X9179967Y-12926936D01*
X9370444Y-12765031D02*
X9379967Y-12755508D01*
X9379967Y-12755508D02*
X9399015Y-12745984D01*
X9399015Y-12745984D02*
X9446634Y-12745984D01*
X9446634Y-12745984D02*
X9465682Y-12755508D01*
X9465682Y-12755508D02*
X9475205Y-12765031D01*
X9475205Y-12765031D02*
X9484729Y-12784079D01*
X9484729Y-12784079D02*
X9484729Y-12803127D01*
X9484729Y-12803127D02*
X9475205Y-12831698D01*
X9475205Y-12831698D02*
X9360920Y-12945984D01*
X9360920Y-12945984D02*
X9484729Y-12945984D01*
X9608539Y-12745984D02*
X9627586Y-12745984D01*
X9627586Y-12745984D02*
X9646634Y-12755508D01*
X9646634Y-12755508D02*
X9656158Y-12765031D01*
X9656158Y-12765031D02*
X9665682Y-12784079D01*
X9665682Y-12784079D02*
X9675205Y-12822174D01*
X9675205Y-12822174D02*
X9675205Y-12869793D01*
X9675205Y-12869793D02*
X9665682Y-12907888D01*
X9665682Y-12907888D02*
X9656158Y-12926936D01*
X9656158Y-12926936D02*
X9646634Y-12936460D01*
X9646634Y-12936460D02*
X9627586Y-12945984D01*
X9627586Y-12945984D02*
X9608539Y-12945984D01*
X9608539Y-12945984D02*
X9589491Y-12936460D01*
X9589491Y-12936460D02*
X9579967Y-12926936D01*
X9579967Y-12926936D02*
X9570444Y-12907888D01*
X9570444Y-12907888D02*
X9560920Y-12869793D01*
X9560920Y-12869793D02*
X9560920Y-12822174D01*
X9560920Y-12822174D02*
X9570444Y-12784079D01*
X9570444Y-12784079D02*
X9579967Y-12765031D01*
X9579967Y-12765031D02*
X9589491Y-12755508D01*
X9589491Y-12755508D02*
X9608539Y-12745984D01*
X9760920Y-12945984D02*
X9760920Y-12812650D01*
X9760920Y-12831698D02*
X9770444Y-12822174D01*
X9770444Y-12822174D02*
X9789491Y-12812650D01*
X9789491Y-12812650D02*
X9818063Y-12812650D01*
X9818063Y-12812650D02*
X9837110Y-12822174D01*
X9837110Y-12822174D02*
X9846634Y-12841222D01*
X9846634Y-12841222D02*
X9846634Y-12945984D01*
X9846634Y-12841222D02*
X9856158Y-12822174D01*
X9856158Y-12822174D02*
X9875205Y-12812650D01*
X9875205Y-12812650D02*
X9903777Y-12812650D01*
X9903777Y-12812650D02*
X9922825Y-12822174D01*
X9922825Y-12822174D02*
X9932348Y-12841222D01*
X9932348Y-12841222D02*
X9932348Y-12945984D01*
X10027586Y-12945984D02*
X10027586Y-12812650D01*
X10027586Y-12831698D02*
X10037110Y-12822174D01*
X10037110Y-12822174D02*
X10056158Y-12812650D01*
X10056158Y-12812650D02*
X10084729Y-12812650D01*
X10084729Y-12812650D02*
X10103777Y-12822174D01*
X10103777Y-12822174D02*
X10113301Y-12841222D01*
X10113301Y-12841222D02*
X10113301Y-12945984D01*
X10113301Y-12841222D02*
X10122825Y-12822174D01*
X10122825Y-12822174D02*
X10141872Y-12812650D01*
X10141872Y-12812650D02*
X10170444Y-12812650D01*
X10170444Y-12812650D02*
X10189491Y-12822174D01*
X10189491Y-12822174D02*
X10199015Y-12841222D01*
X10199015Y-12841222D02*
X10199015Y-12945984D01*
X10589491Y-12736460D02*
X10418063Y-12993603D01*
X10846634Y-12745984D02*
X10865682Y-12745984D01*
X10865682Y-12745984D02*
X10884729Y-12755508D01*
X10884729Y-12755508D02*
X10894253Y-12765031D01*
X10894253Y-12765031D02*
X10903777Y-12784079D01*
X10903777Y-12784079D02*
X10913301Y-12822174D01*
X10913301Y-12822174D02*
X10913301Y-12869793D01*
X10913301Y-12869793D02*
X10903777Y-12907888D01*
X10903777Y-12907888D02*
X10894253Y-12926936D01*
X10894253Y-12926936D02*
X10884729Y-12936460D01*
X10884729Y-12936460D02*
X10865682Y-12945984D01*
X10865682Y-12945984D02*
X10846634Y-12945984D01*
X10846634Y-12945984D02*
X10827587Y-12936460D01*
X10827587Y-12936460D02*
X10818063Y-12926936D01*
X10818063Y-12926936D02*
X10808539Y-12907888D01*
X10808539Y-12907888D02*
X10799015Y-12869793D01*
X10799015Y-12869793D02*
X10799015Y-12822174D01*
X10799015Y-12822174D02*
X10808539Y-12784079D01*
X10808539Y-12784079D02*
X10818063Y-12765031D01*
X10818063Y-12765031D02*
X10827587Y-12755508D01*
X10827587Y-12755508D02*
X10846634Y-12745984D01*
X10999015Y-12926936D02*
X11008539Y-12936460D01*
X11008539Y-12936460D02*
X10999015Y-12945984D01*
X10999015Y-12945984D02*
X10989491Y-12936460D01*
X10989491Y-12936460D02*
X10999015Y-12926936D01*
X10999015Y-12926936D02*
X10999015Y-12945984D01*
X11132348Y-12745984D02*
X11151396Y-12745984D01*
X11151396Y-12745984D02*
X11170444Y-12755508D01*
X11170444Y-12755508D02*
X11179968Y-12765031D01*
X11179968Y-12765031D02*
X11189491Y-12784079D01*
X11189491Y-12784079D02*
X11199015Y-12822174D01*
X11199015Y-12822174D02*
X11199015Y-12869793D01*
X11199015Y-12869793D02*
X11189491Y-12907888D01*
X11189491Y-12907888D02*
X11179968Y-12926936D01*
X11179968Y-12926936D02*
X11170444Y-12936460D01*
X11170444Y-12936460D02*
X11151396Y-12945984D01*
X11151396Y-12945984D02*
X11132348Y-12945984D01*
X11132348Y-12945984D02*
X11113301Y-12936460D01*
X11113301Y-12936460D02*
X11103777Y-12926936D01*
X11103777Y-12926936D02*
X11094253Y-12907888D01*
X11094253Y-12907888D02*
X11084729Y-12869793D01*
X11084729Y-12869793D02*
X11084729Y-12822174D01*
X11084729Y-12822174D02*
X11094253Y-12784079D01*
X11094253Y-12784079D02*
X11103777Y-12765031D01*
X11103777Y-12765031D02*
X11113301Y-12755508D01*
X11113301Y-12755508D02*
X11132348Y-12745984D01*
X11379967Y-12745984D02*
X11284729Y-12745984D01*
X11284729Y-12745984D02*
X11275206Y-12841222D01*
X11275206Y-12841222D02*
X11284729Y-12831698D01*
X11284729Y-12831698D02*
X11303777Y-12822174D01*
X11303777Y-12822174D02*
X11351396Y-12822174D01*
X11351396Y-12822174D02*
X11370444Y-12831698D01*
X11370444Y-12831698D02*
X11379967Y-12841222D01*
X11379967Y-12841222D02*
X11389491Y-12860269D01*
X11389491Y-12860269D02*
X11389491Y-12907888D01*
X11389491Y-12907888D02*
X11379967Y-12926936D01*
X11379967Y-12926936D02*
X11370444Y-12936460D01*
X11370444Y-12936460D02*
X11351396Y-12945984D01*
X11351396Y-12945984D02*
X11303777Y-12945984D01*
X11303777Y-12945984D02*
X11284729Y-12936460D01*
X11284729Y-12936460D02*
X11275206Y-12926936D01*
X11484729Y-12945984D02*
X11522825Y-12945984D01*
X11522825Y-12945984D02*
X11541872Y-12936460D01*
X11541872Y-12936460D02*
X11551396Y-12926936D01*
X11551396Y-12926936D02*
X11570444Y-12898365D01*
X11570444Y-12898365D02*
X11579967Y-12860269D01*
X11579967Y-12860269D02*
X11579967Y-12784079D01*
X11579967Y-12784079D02*
X11570444Y-12765031D01*
X11570444Y-12765031D02*
X11560920Y-12755508D01*
X11560920Y-12755508D02*
X11541872Y-12745984D01*
X11541872Y-12745984D02*
X11503777Y-12745984D01*
X11503777Y-12745984D02*
X11484729Y-12755508D01*
X11484729Y-12755508D02*
X11475206Y-12765031D01*
X11475206Y-12765031D02*
X11465682Y-12784079D01*
X11465682Y-12784079D02*
X11465682Y-12831698D01*
X11465682Y-12831698D02*
X11475206Y-12850746D01*
X11475206Y-12850746D02*
X11484729Y-12860269D01*
X11484729Y-12860269D02*
X11503777Y-12869793D01*
X11503777Y-12869793D02*
X11541872Y-12869793D01*
X11541872Y-12869793D02*
X11560920Y-12860269D01*
X11560920Y-12860269D02*
X11570444Y-12850746D01*
X11570444Y-12850746D02*
X11579967Y-12831698D01*
X11694253Y-12831698D02*
X11675206Y-12822174D01*
X11675206Y-12822174D02*
X11665682Y-12812650D01*
X11665682Y-12812650D02*
X11656158Y-12793603D01*
X11656158Y-12793603D02*
X11656158Y-12784079D01*
X11656158Y-12784079D02*
X11665682Y-12765031D01*
X11665682Y-12765031D02*
X11675206Y-12755508D01*
X11675206Y-12755508D02*
X11694253Y-12745984D01*
X11694253Y-12745984D02*
X11732348Y-12745984D01*
X11732348Y-12745984D02*
X11751396Y-12755508D01*
X11751396Y-12755508D02*
X11760920Y-12765031D01*
X11760920Y-12765031D02*
X11770444Y-12784079D01*
X11770444Y-12784079D02*
X11770444Y-12793603D01*
X11770444Y-12793603D02*
X11760920Y-12812650D01*
X11760920Y-12812650D02*
X11751396Y-12822174D01*
X11751396Y-12822174D02*
X11732348Y-12831698D01*
X11732348Y-12831698D02*
X11694253Y-12831698D01*
X11694253Y-12831698D02*
X11675206Y-12841222D01*
X11675206Y-12841222D02*
X11665682Y-12850746D01*
X11665682Y-12850746D02*
X11656158Y-12869793D01*
X11656158Y-12869793D02*
X11656158Y-12907888D01*
X11656158Y-12907888D02*
X11665682Y-12926936D01*
X11665682Y-12926936D02*
X11675206Y-12936460D01*
X11675206Y-12936460D02*
X11694253Y-12945984D01*
X11694253Y-12945984D02*
X11732348Y-12945984D01*
X11732348Y-12945984D02*
X11751396Y-12936460D01*
X11751396Y-12936460D02*
X11760920Y-12926936D01*
X11760920Y-12926936D02*
X11770444Y-12907888D01*
X11770444Y-12907888D02*
X11770444Y-12869793D01*
X11770444Y-12869793D02*
X11760920Y-12850746D01*
X11760920Y-12850746D02*
X11751396Y-12841222D01*
X11751396Y-12841222D02*
X11732348Y-12831698D01*
X11846634Y-12745984D02*
X11846634Y-12784079D01*
X11922825Y-12745984D02*
X11922825Y-12784079D01*
X12218063Y-13022174D02*
X12208539Y-13012650D01*
X12208539Y-13012650D02*
X12189491Y-12984079D01*
X12189491Y-12984079D02*
X12179968Y-12965031D01*
X12179968Y-12965031D02*
X12170444Y-12936460D01*
X12170444Y-12936460D02*
X12160920Y-12888841D01*
X12160920Y-12888841D02*
X12160920Y-12850746D01*
X12160920Y-12850746D02*
X12170444Y-12803127D01*
X12170444Y-12803127D02*
X12179968Y-12774555D01*
X12179968Y-12774555D02*
X12189491Y-12755508D01*
X12189491Y-12755508D02*
X12208539Y-12726936D01*
X12208539Y-12726936D02*
X12218063Y-12717412D01*
X12322825Y-12831698D02*
X12303777Y-12822174D01*
X12303777Y-12822174D02*
X12294253Y-12812650D01*
X12294253Y-12812650D02*
X12284729Y-12793603D01*
X12284729Y-12793603D02*
X12284729Y-12784079D01*
X12284729Y-12784079D02*
X12294253Y-12765031D01*
X12294253Y-12765031D02*
X12303777Y-12755508D01*
X12303777Y-12755508D02*
X12322825Y-12745984D01*
X12322825Y-12745984D02*
X12360920Y-12745984D01*
X12360920Y-12745984D02*
X12379968Y-12755508D01*
X12379968Y-12755508D02*
X12389491Y-12765031D01*
X12389491Y-12765031D02*
X12399015Y-12784079D01*
X12399015Y-12784079D02*
X12399015Y-12793603D01*
X12399015Y-12793603D02*
X12389491Y-12812650D01*
X12389491Y-12812650D02*
X12379968Y-12822174D01*
X12379968Y-12822174D02*
X12360920Y-12831698D01*
X12360920Y-12831698D02*
X12322825Y-12831698D01*
X12322825Y-12831698D02*
X12303777Y-12841222D01*
X12303777Y-12841222D02*
X12294253Y-12850746D01*
X12294253Y-12850746D02*
X12284729Y-12869793D01*
X12284729Y-12869793D02*
X12284729Y-12907888D01*
X12284729Y-12907888D02*
X12294253Y-12926936D01*
X12294253Y-12926936D02*
X12303777Y-12936460D01*
X12303777Y-12936460D02*
X12322825Y-12945984D01*
X12322825Y-12945984D02*
X12360920Y-12945984D01*
X12360920Y-12945984D02*
X12379968Y-12936460D01*
X12379968Y-12936460D02*
X12389491Y-12926936D01*
X12389491Y-12926936D02*
X12399015Y-12907888D01*
X12399015Y-12907888D02*
X12399015Y-12869793D01*
X12399015Y-12869793D02*
X12389491Y-12850746D01*
X12389491Y-12850746D02*
X12379968Y-12841222D01*
X12379968Y-12841222D02*
X12360920Y-12831698D01*
X12637110Y-12945984D02*
X12637110Y-12745984D01*
X12722825Y-12945984D02*
X12722825Y-12841222D01*
X12722825Y-12841222D02*
X12713301Y-12822174D01*
X12713301Y-12822174D02*
X12694253Y-12812650D01*
X12694253Y-12812650D02*
X12665682Y-12812650D01*
X12665682Y-12812650D02*
X12646634Y-12822174D01*
X12646634Y-12822174D02*
X12637110Y-12831698D01*
X12846634Y-12945984D02*
X12827587Y-12936460D01*
X12827587Y-12936460D02*
X12818063Y-12926936D01*
X12818063Y-12926936D02*
X12808539Y-12907888D01*
X12808539Y-12907888D02*
X12808539Y-12850746D01*
X12808539Y-12850746D02*
X12818063Y-12831698D01*
X12818063Y-12831698D02*
X12827587Y-12822174D01*
X12827587Y-12822174D02*
X12846634Y-12812650D01*
X12846634Y-12812650D02*
X12875206Y-12812650D01*
X12875206Y-12812650D02*
X12894253Y-12822174D01*
X12894253Y-12822174D02*
X12903777Y-12831698D01*
X12903777Y-12831698D02*
X12913301Y-12850746D01*
X12913301Y-12850746D02*
X12913301Y-12907888D01*
X12913301Y-12907888D02*
X12903777Y-12926936D01*
X12903777Y-12926936D02*
X12894253Y-12936460D01*
X12894253Y-12936460D02*
X12875206Y-12945984D01*
X12875206Y-12945984D02*
X12846634Y-12945984D01*
X13027587Y-12945984D02*
X13008539Y-12936460D01*
X13008539Y-12936460D02*
X12999015Y-12917412D01*
X12999015Y-12917412D02*
X12999015Y-12745984D01*
X13179968Y-12936460D02*
X13160920Y-12945984D01*
X13160920Y-12945984D02*
X13122825Y-12945984D01*
X13122825Y-12945984D02*
X13103777Y-12936460D01*
X13103777Y-12936460D02*
X13094253Y-12917412D01*
X13094253Y-12917412D02*
X13094253Y-12841222D01*
X13094253Y-12841222D02*
X13103777Y-12822174D01*
X13103777Y-12822174D02*
X13122825Y-12812650D01*
X13122825Y-12812650D02*
X13160920Y-12812650D01*
X13160920Y-12812650D02*
X13179968Y-12822174D01*
X13179968Y-12822174D02*
X13189491Y-12841222D01*
X13189491Y-12841222D02*
X13189491Y-12860269D01*
X13189491Y-12860269D02*
X13094253Y-12879317D01*
X13265682Y-12936460D02*
X13284730Y-12945984D01*
X13284730Y-12945984D02*
X13322825Y-12945984D01*
X13322825Y-12945984D02*
X13341872Y-12936460D01*
X13341872Y-12936460D02*
X13351396Y-12917412D01*
X13351396Y-12917412D02*
X13351396Y-12907888D01*
X13351396Y-12907888D02*
X13341872Y-12888841D01*
X13341872Y-12888841D02*
X13322825Y-12879317D01*
X13322825Y-12879317D02*
X13294253Y-12879317D01*
X13294253Y-12879317D02*
X13275206Y-12869793D01*
X13275206Y-12869793D02*
X13265682Y-12850746D01*
X13265682Y-12850746D02*
X13265682Y-12841222D01*
X13265682Y-12841222D02*
X13275206Y-12822174D01*
X13275206Y-12822174D02*
X13294253Y-12812650D01*
X13294253Y-12812650D02*
X13322825Y-12812650D01*
X13322825Y-12812650D02*
X13341872Y-12822174D01*
X13418063Y-13022174D02*
X13427587Y-13012650D01*
X13427587Y-13012650D02*
X13446634Y-12984079D01*
X13446634Y-12984079D02*
X13456158Y-12965031D01*
X13456158Y-12965031D02*
X13465682Y-12936460D01*
X13465682Y-12936460D02*
X13475206Y-12888841D01*
X13475206Y-12888841D02*
X13475206Y-12850746D01*
X13475206Y-12850746D02*
X13465682Y-12803127D01*
X13465682Y-12803127D02*
X13456158Y-12774555D01*
X13456158Y-12774555D02*
X13446634Y-12755508D01*
X13446634Y-12755508D02*
X13427587Y-12726936D01*
X13427587Y-12726936D02*
X13418063Y-12717412D01*
M02*
