G04 #@! TF.GenerationSoftware,KiCad,Pcbnew,8.0.3*
G04 #@! TF.CreationDate,2024-06-20T09:06:03+12:00*
G04 #@! TF.ProjectId,crt_card_edge_adapter,6372745f-6361-4726-945f-656467655f61,rev?*
G04 #@! TF.SameCoordinates,Original*
G04 #@! TF.FileFunction,Legend,Top*
G04 #@! TF.FilePolarity,Positive*
%FSLAX46Y46*%
G04 Gerber Fmt 4.6, Leading zero omitted, Abs format (unit mm)*
G04 Created by KiCad (PCBNEW 8.0.3) date 2024-06-20 09:06:03*
%MOMM*%
%LPD*%
G01*
G04 APERTURE LIST*
%ADD10C,0.100000*%
%ADD11C,0.150000*%
%ADD12C,0.120000*%
%ADD13C,5.200000*%
%ADD14R,3.000000X3.000000*%
%ADD15C,3.000000*%
%ADD16R,9.800000X2.100000*%
%ADD17R,1.700000X1.700000*%
%ADD18O,1.700000X1.700000*%
%ADD19C,0.600000*%
G04 APERTURE END LIST*
D10*
X112156952Y-96977419D02*
X111585524Y-96977419D01*
X111871238Y-96977419D02*
X111871238Y-95977419D01*
X111871238Y-95977419D02*
X111776000Y-96120276D01*
X111776000Y-96120276D02*
X111680762Y-96215514D01*
X111680762Y-96215514D02*
X111585524Y-96263133D01*
X112537905Y-96072657D02*
X112585524Y-96025038D01*
X112585524Y-96025038D02*
X112680762Y-95977419D01*
X112680762Y-95977419D02*
X112918857Y-95977419D01*
X112918857Y-95977419D02*
X113014095Y-96025038D01*
X113014095Y-96025038D02*
X113061714Y-96072657D01*
X113061714Y-96072657D02*
X113109333Y-96167895D01*
X113109333Y-96167895D02*
X113109333Y-96263133D01*
X113109333Y-96263133D02*
X113061714Y-96405990D01*
X113061714Y-96405990D02*
X112490286Y-96977419D01*
X112490286Y-96977419D02*
X113109333Y-96977419D01*
X113395048Y-95977419D02*
X113728381Y-96977419D01*
X113728381Y-96977419D02*
X114061714Y-95977419D01*
X123761038Y-102296306D02*
X123713419Y-102391544D01*
X123713419Y-102391544D02*
X123713419Y-102534401D01*
X123713419Y-102534401D02*
X123761038Y-102677258D01*
X123761038Y-102677258D02*
X123856276Y-102772496D01*
X123856276Y-102772496D02*
X123951514Y-102820115D01*
X123951514Y-102820115D02*
X124141990Y-102867734D01*
X124141990Y-102867734D02*
X124284847Y-102867734D01*
X124284847Y-102867734D02*
X124475323Y-102820115D01*
X124475323Y-102820115D02*
X124570561Y-102772496D01*
X124570561Y-102772496D02*
X124665800Y-102677258D01*
X124665800Y-102677258D02*
X124713419Y-102534401D01*
X124713419Y-102534401D02*
X124713419Y-102439163D01*
X124713419Y-102439163D02*
X124665800Y-102296306D01*
X124665800Y-102296306D02*
X124618180Y-102248687D01*
X124618180Y-102248687D02*
X124284847Y-102248687D01*
X124284847Y-102248687D02*
X124284847Y-102439163D01*
X124713419Y-101820115D02*
X123713419Y-101820115D01*
X123713419Y-101820115D02*
X124713419Y-101248687D01*
X124713419Y-101248687D02*
X123713419Y-101248687D01*
X124713419Y-100772496D02*
X123713419Y-100772496D01*
X123713419Y-100772496D02*
X123713419Y-100534401D01*
X123713419Y-100534401D02*
X123761038Y-100391544D01*
X123761038Y-100391544D02*
X123856276Y-100296306D01*
X123856276Y-100296306D02*
X123951514Y-100248687D01*
X123951514Y-100248687D02*
X124141990Y-100201068D01*
X124141990Y-100201068D02*
X124284847Y-100201068D01*
X124284847Y-100201068D02*
X124475323Y-100248687D01*
X124475323Y-100248687D02*
X124570561Y-100296306D01*
X124570561Y-100296306D02*
X124665800Y-100391544D01*
X124665800Y-100391544D02*
X124713419Y-100534401D01*
X124713419Y-100534401D02*
X124713419Y-100772496D01*
X123761038Y-79436306D02*
X123713419Y-79531544D01*
X123713419Y-79531544D02*
X123713419Y-79674401D01*
X123713419Y-79674401D02*
X123761038Y-79817258D01*
X123761038Y-79817258D02*
X123856276Y-79912496D01*
X123856276Y-79912496D02*
X123951514Y-79960115D01*
X123951514Y-79960115D02*
X124141990Y-80007734D01*
X124141990Y-80007734D02*
X124284847Y-80007734D01*
X124284847Y-80007734D02*
X124475323Y-79960115D01*
X124475323Y-79960115D02*
X124570561Y-79912496D01*
X124570561Y-79912496D02*
X124665800Y-79817258D01*
X124665800Y-79817258D02*
X124713419Y-79674401D01*
X124713419Y-79674401D02*
X124713419Y-79579163D01*
X124713419Y-79579163D02*
X124665800Y-79436306D01*
X124665800Y-79436306D02*
X124618180Y-79388687D01*
X124618180Y-79388687D02*
X124284847Y-79388687D01*
X124284847Y-79388687D02*
X124284847Y-79579163D01*
X124713419Y-78960115D02*
X123713419Y-78960115D01*
X123713419Y-78960115D02*
X124713419Y-78388687D01*
X124713419Y-78388687D02*
X123713419Y-78388687D01*
X124713419Y-77912496D02*
X123713419Y-77912496D01*
X123713419Y-77912496D02*
X123713419Y-77674401D01*
X123713419Y-77674401D02*
X123761038Y-77531544D01*
X123761038Y-77531544D02*
X123856276Y-77436306D01*
X123856276Y-77436306D02*
X123951514Y-77388687D01*
X123951514Y-77388687D02*
X124141990Y-77341068D01*
X124141990Y-77341068D02*
X124284847Y-77341068D01*
X124284847Y-77341068D02*
X124475323Y-77388687D01*
X124475323Y-77388687D02*
X124570561Y-77436306D01*
X124570561Y-77436306D02*
X124665800Y-77531544D01*
X124665800Y-77531544D02*
X124713419Y-77674401D01*
X124713419Y-77674401D02*
X124713419Y-77912496D01*
X110704571Y-101057419D02*
X111037904Y-102057419D01*
X111037904Y-102057419D02*
X111371237Y-101057419D01*
X111656952Y-102009800D02*
X111799809Y-102057419D01*
X111799809Y-102057419D02*
X112037904Y-102057419D01*
X112037904Y-102057419D02*
X112133142Y-102009800D01*
X112133142Y-102009800D02*
X112180761Y-101962180D01*
X112180761Y-101962180D02*
X112228380Y-101866942D01*
X112228380Y-101866942D02*
X112228380Y-101771704D01*
X112228380Y-101771704D02*
X112180761Y-101676466D01*
X112180761Y-101676466D02*
X112133142Y-101628847D01*
X112133142Y-101628847D02*
X112037904Y-101581228D01*
X112037904Y-101581228D02*
X111847428Y-101533609D01*
X111847428Y-101533609D02*
X111752190Y-101485990D01*
X111752190Y-101485990D02*
X111704571Y-101438371D01*
X111704571Y-101438371D02*
X111656952Y-101343133D01*
X111656952Y-101343133D02*
X111656952Y-101247895D01*
X111656952Y-101247895D02*
X111704571Y-101152657D01*
X111704571Y-101152657D02*
X111752190Y-101105038D01*
X111752190Y-101105038D02*
X111847428Y-101057419D01*
X111847428Y-101057419D02*
X112085523Y-101057419D01*
X112085523Y-101057419D02*
X112228380Y-101105038D01*
X112561714Y-101390752D02*
X112799809Y-102057419D01*
X113037904Y-101390752D02*
X112799809Y-102057419D01*
X112799809Y-102057419D02*
X112704571Y-102295514D01*
X112704571Y-102295514D02*
X112656952Y-102343133D01*
X112656952Y-102343133D02*
X112561714Y-102390752D01*
X113418857Y-101390752D02*
X113418857Y-102057419D01*
X113418857Y-101485990D02*
X113466476Y-101438371D01*
X113466476Y-101438371D02*
X113561714Y-101390752D01*
X113561714Y-101390752D02*
X113704571Y-101390752D01*
X113704571Y-101390752D02*
X113799809Y-101438371D01*
X113799809Y-101438371D02*
X113847428Y-101533609D01*
X113847428Y-101533609D02*
X113847428Y-102057419D01*
X114752190Y-102009800D02*
X114656952Y-102057419D01*
X114656952Y-102057419D02*
X114466476Y-102057419D01*
X114466476Y-102057419D02*
X114371238Y-102009800D01*
X114371238Y-102009800D02*
X114323619Y-101962180D01*
X114323619Y-101962180D02*
X114276000Y-101866942D01*
X114276000Y-101866942D02*
X114276000Y-101581228D01*
X114276000Y-101581228D02*
X114323619Y-101485990D01*
X114323619Y-101485990D02*
X114371238Y-101438371D01*
X114371238Y-101438371D02*
X114466476Y-101390752D01*
X114466476Y-101390752D02*
X114656952Y-101390752D01*
X114656952Y-101390752D02*
X114752190Y-101438371D01*
X111506095Y-80785038D02*
X111410857Y-80737419D01*
X111410857Y-80737419D02*
X111268000Y-80737419D01*
X111268000Y-80737419D02*
X111125143Y-80785038D01*
X111125143Y-80785038D02*
X111029905Y-80880276D01*
X111029905Y-80880276D02*
X110982286Y-80975514D01*
X110982286Y-80975514D02*
X110934667Y-81165990D01*
X110934667Y-81165990D02*
X110934667Y-81308847D01*
X110934667Y-81308847D02*
X110982286Y-81499323D01*
X110982286Y-81499323D02*
X111029905Y-81594561D01*
X111029905Y-81594561D02*
X111125143Y-81689800D01*
X111125143Y-81689800D02*
X111268000Y-81737419D01*
X111268000Y-81737419D02*
X111363238Y-81737419D01*
X111363238Y-81737419D02*
X111506095Y-81689800D01*
X111506095Y-81689800D02*
X111553714Y-81642180D01*
X111553714Y-81642180D02*
X111553714Y-81308847D01*
X111553714Y-81308847D02*
X111363238Y-81308847D01*
X111982286Y-81737419D02*
X111982286Y-80737419D01*
X111982286Y-80737419D02*
X112553714Y-81737419D01*
X112553714Y-81737419D02*
X112553714Y-80737419D01*
X113029905Y-81737419D02*
X113029905Y-80737419D01*
X113029905Y-80737419D02*
X113268000Y-80737419D01*
X113268000Y-80737419D02*
X113410857Y-80785038D01*
X113410857Y-80785038D02*
X113506095Y-80880276D01*
X113506095Y-80880276D02*
X113553714Y-80975514D01*
X113553714Y-80975514D02*
X113601333Y-81165990D01*
X113601333Y-81165990D02*
X113601333Y-81308847D01*
X113601333Y-81308847D02*
X113553714Y-81499323D01*
X113553714Y-81499323D02*
X113506095Y-81594561D01*
X113506095Y-81594561D02*
X113410857Y-81689800D01*
X113410857Y-81689800D02*
X113268000Y-81737419D01*
X113268000Y-81737419D02*
X113029905Y-81737419D01*
X111506095Y-103645038D02*
X111410857Y-103597419D01*
X111410857Y-103597419D02*
X111268000Y-103597419D01*
X111268000Y-103597419D02*
X111125143Y-103645038D01*
X111125143Y-103645038D02*
X111029905Y-103740276D01*
X111029905Y-103740276D02*
X110982286Y-103835514D01*
X110982286Y-103835514D02*
X110934667Y-104025990D01*
X110934667Y-104025990D02*
X110934667Y-104168847D01*
X110934667Y-104168847D02*
X110982286Y-104359323D01*
X110982286Y-104359323D02*
X111029905Y-104454561D01*
X111029905Y-104454561D02*
X111125143Y-104549800D01*
X111125143Y-104549800D02*
X111268000Y-104597419D01*
X111268000Y-104597419D02*
X111363238Y-104597419D01*
X111363238Y-104597419D02*
X111506095Y-104549800D01*
X111506095Y-104549800D02*
X111553714Y-104502180D01*
X111553714Y-104502180D02*
X111553714Y-104168847D01*
X111553714Y-104168847D02*
X111363238Y-104168847D01*
X111982286Y-104597419D02*
X111982286Y-103597419D01*
X111982286Y-103597419D02*
X112553714Y-104597419D01*
X112553714Y-104597419D02*
X112553714Y-103597419D01*
X113029905Y-104597419D02*
X113029905Y-103597419D01*
X113029905Y-103597419D02*
X113268000Y-103597419D01*
X113268000Y-103597419D02*
X113410857Y-103645038D01*
X113410857Y-103645038D02*
X113506095Y-103740276D01*
X113506095Y-103740276D02*
X113553714Y-103835514D01*
X113553714Y-103835514D02*
X113601333Y-104025990D01*
X113601333Y-104025990D02*
X113601333Y-104168847D01*
X113601333Y-104168847D02*
X113553714Y-104359323D01*
X113553714Y-104359323D02*
X113506095Y-104454561D01*
X113506095Y-104454561D02*
X113410857Y-104549800D01*
X113410857Y-104549800D02*
X113268000Y-104597419D01*
X113268000Y-104597419D02*
X113029905Y-104597419D01*
X123586419Y-97501972D02*
X124586419Y-97168639D01*
X124586419Y-97168639D02*
X123586419Y-96835306D01*
X124586419Y-96501972D02*
X123586419Y-96501972D01*
X124586419Y-96025782D02*
X123586419Y-96025782D01*
X123586419Y-96025782D02*
X123586419Y-95787687D01*
X123586419Y-95787687D02*
X123634038Y-95644830D01*
X123634038Y-95644830D02*
X123729276Y-95549592D01*
X123729276Y-95549592D02*
X123824514Y-95501973D01*
X123824514Y-95501973D02*
X124014990Y-95454354D01*
X124014990Y-95454354D02*
X124157847Y-95454354D01*
X124157847Y-95454354D02*
X124348323Y-95501973D01*
X124348323Y-95501973D02*
X124443561Y-95549592D01*
X124443561Y-95549592D02*
X124538800Y-95644830D01*
X124538800Y-95644830D02*
X124586419Y-95787687D01*
X124586419Y-95787687D02*
X124586419Y-96025782D01*
X110871238Y-98517419D02*
X111204571Y-99517419D01*
X111204571Y-99517419D02*
X111537904Y-98517419D01*
X111871238Y-99517419D02*
X111871238Y-98850752D01*
X111871238Y-98517419D02*
X111823619Y-98565038D01*
X111823619Y-98565038D02*
X111871238Y-98612657D01*
X111871238Y-98612657D02*
X111918857Y-98565038D01*
X111918857Y-98565038D02*
X111871238Y-98517419D01*
X111871238Y-98517419D02*
X111871238Y-98612657D01*
X112775999Y-99517419D02*
X112775999Y-98517419D01*
X112775999Y-99469800D02*
X112680761Y-99517419D01*
X112680761Y-99517419D02*
X112490285Y-99517419D01*
X112490285Y-99517419D02*
X112395047Y-99469800D01*
X112395047Y-99469800D02*
X112347428Y-99422180D01*
X112347428Y-99422180D02*
X112299809Y-99326942D01*
X112299809Y-99326942D02*
X112299809Y-99041228D01*
X112299809Y-99041228D02*
X112347428Y-98945990D01*
X112347428Y-98945990D02*
X112395047Y-98898371D01*
X112395047Y-98898371D02*
X112490285Y-98850752D01*
X112490285Y-98850752D02*
X112680761Y-98850752D01*
X112680761Y-98850752D02*
X112775999Y-98898371D01*
X113633142Y-99469800D02*
X113537904Y-99517419D01*
X113537904Y-99517419D02*
X113347428Y-99517419D01*
X113347428Y-99517419D02*
X113252190Y-99469800D01*
X113252190Y-99469800D02*
X113204571Y-99374561D01*
X113204571Y-99374561D02*
X113204571Y-98993609D01*
X113204571Y-98993609D02*
X113252190Y-98898371D01*
X113252190Y-98898371D02*
X113347428Y-98850752D01*
X113347428Y-98850752D02*
X113537904Y-98850752D01*
X113537904Y-98850752D02*
X113633142Y-98898371D01*
X113633142Y-98898371D02*
X113680761Y-98993609D01*
X113680761Y-98993609D02*
X113680761Y-99088847D01*
X113680761Y-99088847D02*
X113204571Y-99184085D01*
X114252190Y-99517419D02*
X114156952Y-99469800D01*
X114156952Y-99469800D02*
X114109333Y-99422180D01*
X114109333Y-99422180D02*
X114061714Y-99326942D01*
X114061714Y-99326942D02*
X114061714Y-99041228D01*
X114061714Y-99041228D02*
X114109333Y-98945990D01*
X114109333Y-98945990D02*
X114156952Y-98898371D01*
X114156952Y-98898371D02*
X114252190Y-98850752D01*
X114252190Y-98850752D02*
X114395047Y-98850752D01*
X114395047Y-98850752D02*
X114490285Y-98898371D01*
X114490285Y-98898371D02*
X114537904Y-98945990D01*
X114537904Y-98945990D02*
X114585523Y-99041228D01*
X114585523Y-99041228D02*
X114585523Y-99326942D01*
X114585523Y-99326942D02*
X114537904Y-99422180D01*
X114537904Y-99422180D02*
X114490285Y-99469800D01*
X114490285Y-99469800D02*
X114395047Y-99517419D01*
X114395047Y-99517419D02*
X114252190Y-99517419D01*
X123586419Y-112741972D02*
X124586419Y-112408639D01*
X124586419Y-112408639D02*
X123586419Y-112075306D01*
X124491180Y-111741972D02*
X124538800Y-111694353D01*
X124538800Y-111694353D02*
X124586419Y-111741972D01*
X124586419Y-111741972D02*
X124538800Y-111789591D01*
X124538800Y-111789591D02*
X124491180Y-111741972D01*
X124491180Y-111741972D02*
X124586419Y-111741972D01*
X124538800Y-111313401D02*
X124586419Y-111170544D01*
X124586419Y-111170544D02*
X124586419Y-110932449D01*
X124586419Y-110932449D02*
X124538800Y-110837211D01*
X124538800Y-110837211D02*
X124491180Y-110789592D01*
X124491180Y-110789592D02*
X124395942Y-110741973D01*
X124395942Y-110741973D02*
X124300704Y-110741973D01*
X124300704Y-110741973D02*
X124205466Y-110789592D01*
X124205466Y-110789592D02*
X124157847Y-110837211D01*
X124157847Y-110837211D02*
X124110228Y-110932449D01*
X124110228Y-110932449D02*
X124062609Y-111122925D01*
X124062609Y-111122925D02*
X124014990Y-111218163D01*
X124014990Y-111218163D02*
X123967371Y-111265782D01*
X123967371Y-111265782D02*
X123872133Y-111313401D01*
X123872133Y-111313401D02*
X123776895Y-111313401D01*
X123776895Y-111313401D02*
X123681657Y-111265782D01*
X123681657Y-111265782D02*
X123634038Y-111218163D01*
X123634038Y-111218163D02*
X123586419Y-111122925D01*
X123586419Y-111122925D02*
X123586419Y-110884830D01*
X123586419Y-110884830D02*
X123634038Y-110741973D01*
X123713419Y-107661972D02*
X124713419Y-107328639D01*
X124713419Y-107328639D02*
X123713419Y-106995306D01*
X124618180Y-106661972D02*
X124665800Y-106614353D01*
X124665800Y-106614353D02*
X124713419Y-106661972D01*
X124713419Y-106661972D02*
X124665800Y-106709591D01*
X124665800Y-106709591D02*
X124618180Y-106661972D01*
X124618180Y-106661972D02*
X124713419Y-106661972D01*
X124665800Y-106233401D02*
X124713419Y-106090544D01*
X124713419Y-106090544D02*
X124713419Y-105852449D01*
X124713419Y-105852449D02*
X124665800Y-105757211D01*
X124665800Y-105757211D02*
X124618180Y-105709592D01*
X124618180Y-105709592D02*
X124522942Y-105661973D01*
X124522942Y-105661973D02*
X124427704Y-105661973D01*
X124427704Y-105661973D02*
X124332466Y-105709592D01*
X124332466Y-105709592D02*
X124284847Y-105757211D01*
X124284847Y-105757211D02*
X124237228Y-105852449D01*
X124237228Y-105852449D02*
X124189609Y-106042925D01*
X124189609Y-106042925D02*
X124141990Y-106138163D01*
X124141990Y-106138163D02*
X124094371Y-106185782D01*
X124094371Y-106185782D02*
X123999133Y-106233401D01*
X123999133Y-106233401D02*
X123903895Y-106233401D01*
X123903895Y-106233401D02*
X123808657Y-106185782D01*
X123808657Y-106185782D02*
X123761038Y-106138163D01*
X123761038Y-106138163D02*
X123713419Y-106042925D01*
X123713419Y-106042925D02*
X123713419Y-105804830D01*
X123713419Y-105804830D02*
X123761038Y-105661973D01*
X124713419Y-74229306D02*
X124713419Y-74800734D01*
X124713419Y-74515020D02*
X123713419Y-74515020D01*
X123713419Y-74515020D02*
X123856276Y-74610258D01*
X123856276Y-74610258D02*
X123951514Y-74705496D01*
X123951514Y-74705496D02*
X123999133Y-74800734D01*
X123808657Y-73848353D02*
X123761038Y-73800734D01*
X123761038Y-73800734D02*
X123713419Y-73705496D01*
X123713419Y-73705496D02*
X123713419Y-73467401D01*
X123713419Y-73467401D02*
X123761038Y-73372163D01*
X123761038Y-73372163D02*
X123808657Y-73324544D01*
X123808657Y-73324544D02*
X123903895Y-73276925D01*
X123903895Y-73276925D02*
X123999133Y-73276925D01*
X123999133Y-73276925D02*
X124141990Y-73324544D01*
X124141990Y-73324544D02*
X124713419Y-73895972D01*
X124713419Y-73895972D02*
X124713419Y-73276925D01*
X123713419Y-72991210D02*
X124713419Y-72657877D01*
X124713419Y-72657877D02*
X123713419Y-72324544D01*
X110752190Y-94437419D02*
X110752190Y-93437419D01*
X110752190Y-93913609D02*
X111323618Y-93913609D01*
X111323618Y-94437419D02*
X111323618Y-93437419D01*
X111752190Y-94389800D02*
X111895047Y-94437419D01*
X111895047Y-94437419D02*
X112133142Y-94437419D01*
X112133142Y-94437419D02*
X112228380Y-94389800D01*
X112228380Y-94389800D02*
X112275999Y-94342180D01*
X112275999Y-94342180D02*
X112323618Y-94246942D01*
X112323618Y-94246942D02*
X112323618Y-94151704D01*
X112323618Y-94151704D02*
X112275999Y-94056466D01*
X112275999Y-94056466D02*
X112228380Y-94008847D01*
X112228380Y-94008847D02*
X112133142Y-93961228D01*
X112133142Y-93961228D02*
X111942666Y-93913609D01*
X111942666Y-93913609D02*
X111847428Y-93865990D01*
X111847428Y-93865990D02*
X111799809Y-93818371D01*
X111799809Y-93818371D02*
X111752190Y-93723133D01*
X111752190Y-93723133D02*
X111752190Y-93627895D01*
X111752190Y-93627895D02*
X111799809Y-93532657D01*
X111799809Y-93532657D02*
X111847428Y-93485038D01*
X111847428Y-93485038D02*
X111942666Y-93437419D01*
X111942666Y-93437419D02*
X112180761Y-93437419D01*
X112180761Y-93437419D02*
X112323618Y-93485038D01*
X112656952Y-93770752D02*
X112895047Y-94437419D01*
X113133142Y-93770752D02*
X112895047Y-94437419D01*
X112895047Y-94437419D02*
X112799809Y-94675514D01*
X112799809Y-94675514D02*
X112752190Y-94723133D01*
X112752190Y-94723133D02*
X112656952Y-94770752D01*
X113514095Y-93770752D02*
X113514095Y-94437419D01*
X113514095Y-93865990D02*
X113561714Y-93818371D01*
X113561714Y-93818371D02*
X113656952Y-93770752D01*
X113656952Y-93770752D02*
X113799809Y-93770752D01*
X113799809Y-93770752D02*
X113895047Y-93818371D01*
X113895047Y-93818371D02*
X113942666Y-93913609D01*
X113942666Y-93913609D02*
X113942666Y-94437419D01*
X114847428Y-94389800D02*
X114752190Y-94437419D01*
X114752190Y-94437419D02*
X114561714Y-94437419D01*
X114561714Y-94437419D02*
X114466476Y-94389800D01*
X114466476Y-94389800D02*
X114418857Y-94342180D01*
X114418857Y-94342180D02*
X114371238Y-94246942D01*
X114371238Y-94246942D02*
X114371238Y-93961228D01*
X114371238Y-93961228D02*
X114418857Y-93865990D01*
X114418857Y-93865990D02*
X114466476Y-93818371D01*
X114466476Y-93818371D02*
X114561714Y-93770752D01*
X114561714Y-93770752D02*
X114752190Y-93770752D01*
X114752190Y-93770752D02*
X114847428Y-93818371D01*
X124713419Y-89993115D02*
X123713419Y-89993115D01*
X124189609Y-89993115D02*
X124189609Y-89421687D01*
X124713419Y-89421687D02*
X123713419Y-89421687D01*
X124618180Y-88945496D02*
X124665800Y-88897877D01*
X124665800Y-88897877D02*
X124713419Y-88945496D01*
X124713419Y-88945496D02*
X124665800Y-88993115D01*
X124665800Y-88993115D02*
X124618180Y-88945496D01*
X124618180Y-88945496D02*
X124713419Y-88945496D01*
X124665800Y-88516925D02*
X124713419Y-88374068D01*
X124713419Y-88374068D02*
X124713419Y-88135973D01*
X124713419Y-88135973D02*
X124665800Y-88040735D01*
X124665800Y-88040735D02*
X124618180Y-87993116D01*
X124618180Y-87993116D02*
X124522942Y-87945497D01*
X124522942Y-87945497D02*
X124427704Y-87945497D01*
X124427704Y-87945497D02*
X124332466Y-87993116D01*
X124332466Y-87993116D02*
X124284847Y-88040735D01*
X124284847Y-88040735D02*
X124237228Y-88135973D01*
X124237228Y-88135973D02*
X124189609Y-88326449D01*
X124189609Y-88326449D02*
X124141990Y-88421687D01*
X124141990Y-88421687D02*
X124094371Y-88469306D01*
X124094371Y-88469306D02*
X123999133Y-88516925D01*
X123999133Y-88516925D02*
X123903895Y-88516925D01*
X123903895Y-88516925D02*
X123808657Y-88469306D01*
X123808657Y-88469306D02*
X123761038Y-88421687D01*
X123761038Y-88421687D02*
X123713419Y-88326449D01*
X123713419Y-88326449D02*
X123713419Y-88088354D01*
X123713419Y-88088354D02*
X123761038Y-87945497D01*
X124713419Y-84786115D02*
X123713419Y-84786115D01*
X124189609Y-84786115D02*
X124189609Y-84214687D01*
X124713419Y-84214687D02*
X123713419Y-84214687D01*
X124618180Y-83738496D02*
X124665800Y-83690877D01*
X124665800Y-83690877D02*
X124713419Y-83738496D01*
X124713419Y-83738496D02*
X124665800Y-83786115D01*
X124665800Y-83786115D02*
X124618180Y-83738496D01*
X124618180Y-83738496D02*
X124713419Y-83738496D01*
X124665800Y-83309925D02*
X124713419Y-83167068D01*
X124713419Y-83167068D02*
X124713419Y-82928973D01*
X124713419Y-82928973D02*
X124665800Y-82833735D01*
X124665800Y-82833735D02*
X124618180Y-82786116D01*
X124618180Y-82786116D02*
X124522942Y-82738497D01*
X124522942Y-82738497D02*
X124427704Y-82738497D01*
X124427704Y-82738497D02*
X124332466Y-82786116D01*
X124332466Y-82786116D02*
X124284847Y-82833735D01*
X124284847Y-82833735D02*
X124237228Y-82928973D01*
X124237228Y-82928973D02*
X124189609Y-83119449D01*
X124189609Y-83119449D02*
X124141990Y-83214687D01*
X124141990Y-83214687D02*
X124094371Y-83262306D01*
X124094371Y-83262306D02*
X123999133Y-83309925D01*
X123999133Y-83309925D02*
X123903895Y-83309925D01*
X123903895Y-83309925D02*
X123808657Y-83262306D01*
X123808657Y-83262306D02*
X123761038Y-83214687D01*
X123761038Y-83214687D02*
X123713419Y-83119449D01*
X123713419Y-83119449D02*
X123713419Y-82881354D01*
X123713419Y-82881354D02*
X123761038Y-82738497D01*
D11*
X98301180Y-75155588D02*
X98301180Y-74584160D01*
X98301180Y-74869874D02*
X99301180Y-74869874D01*
X99301180Y-74869874D02*
X99158323Y-74774636D01*
X99158323Y-74774636D02*
X99063085Y-74679398D01*
X99063085Y-74679398D02*
X99015466Y-74584160D01*
X98301180Y-110334588D02*
X98301180Y-109763160D01*
X98301180Y-110048874D02*
X99301180Y-110048874D01*
X99301180Y-110048874D02*
X99158323Y-109953636D01*
X99158323Y-109953636D02*
X99063085Y-109858398D01*
X99063085Y-109858398D02*
X99015466Y-109763160D01*
X99301180Y-110953636D02*
X99301180Y-111048874D01*
X99301180Y-111048874D02*
X99253561Y-111144112D01*
X99253561Y-111144112D02*
X99205942Y-111191731D01*
X99205942Y-111191731D02*
X99110704Y-111239350D01*
X99110704Y-111239350D02*
X98920228Y-111286969D01*
X98920228Y-111286969D02*
X98682133Y-111286969D01*
X98682133Y-111286969D02*
X98491657Y-111239350D01*
X98491657Y-111239350D02*
X98396419Y-111191731D01*
X98396419Y-111191731D02*
X98348800Y-111144112D01*
X98348800Y-111144112D02*
X98301180Y-111048874D01*
X98301180Y-111048874D02*
X98301180Y-110953636D01*
X98301180Y-110953636D02*
X98348800Y-110858398D01*
X98348800Y-110858398D02*
X98396419Y-110810779D01*
X98396419Y-110810779D02*
X98491657Y-110763160D01*
X98491657Y-110763160D02*
X98682133Y-110715541D01*
X98682133Y-110715541D02*
X98920228Y-110715541D01*
X98920228Y-110715541D02*
X99110704Y-110763160D01*
X99110704Y-110763160D02*
X99205942Y-110810779D01*
X99205942Y-110810779D02*
X99253561Y-110858398D01*
X99253561Y-110858398D02*
X99301180Y-110953636D01*
X99301180Y-90982969D02*
X99301180Y-90506779D01*
X99301180Y-90506779D02*
X98824990Y-90459160D01*
X98824990Y-90459160D02*
X98872609Y-90506779D01*
X98872609Y-90506779D02*
X98920228Y-90602017D01*
X98920228Y-90602017D02*
X98920228Y-90840112D01*
X98920228Y-90840112D02*
X98872609Y-90935350D01*
X98872609Y-90935350D02*
X98824990Y-90982969D01*
X98824990Y-90982969D02*
X98729752Y-91030588D01*
X98729752Y-91030588D02*
X98491657Y-91030588D01*
X98491657Y-91030588D02*
X98396419Y-90982969D01*
X98396419Y-90982969D02*
X98348800Y-90935350D01*
X98348800Y-90935350D02*
X98301180Y-90840112D01*
X98301180Y-90840112D02*
X98301180Y-90602017D01*
X98301180Y-90602017D02*
X98348800Y-90506779D01*
X98348800Y-90506779D02*
X98396419Y-90459160D01*
D12*
X115570000Y-71120000D02*
X115570000Y-91440000D01*
X115570000Y-91440000D02*
X123190000Y-91440000D01*
X116840000Y-91440000D02*
X116840000Y-71120000D01*
X123190000Y-71120000D02*
X115570000Y-71120000D01*
X123190000Y-71120000D02*
X123190000Y-91440000D01*
X115570000Y-93980000D02*
X115570000Y-114300000D01*
X115570000Y-114300000D02*
X123190000Y-114300000D01*
X116840000Y-114300000D02*
X116840000Y-93980000D01*
X123190000Y-93980000D02*
X115570000Y-93980000D01*
X123190000Y-93980000D02*
X123190000Y-114300000D01*
X104080000Y-79950000D02*
X105410000Y-79950000D01*
X104080000Y-81280000D02*
X104080000Y-79950000D01*
X104080000Y-82550000D02*
X104080000Y-105470000D01*
X104080000Y-82550000D02*
X106740000Y-82550000D01*
X104080000Y-105470000D02*
X106740000Y-105470000D01*
X106740000Y-82550000D02*
X106740000Y-105470000D01*
X107890000Y-79950000D02*
X109220000Y-79950000D01*
X107890000Y-81280000D02*
X107890000Y-79950000D01*
X107890000Y-82550000D02*
X107890000Y-105470000D01*
X107890000Y-82550000D02*
X110550000Y-82550000D01*
X107890000Y-105470000D02*
X110550000Y-105470000D01*
X110550000Y-82550000D02*
X110550000Y-105470000D01*
%LPC*%
D13*
X107442000Y-71628000D03*
D14*
X119380000Y-73660000D03*
D15*
X119380000Y-78740000D03*
X119380000Y-83820000D03*
X119380000Y-88900000D03*
D14*
X119380000Y-96520000D03*
D15*
X119380000Y-101600000D03*
X119380000Y-106680000D03*
X119380000Y-111760000D03*
D16*
X91440000Y-74890000D03*
X91440000Y-78850000D03*
X91440000Y-82810000D03*
X91440000Y-86770000D03*
X91440000Y-90730000D03*
X91440000Y-94690000D03*
X91440000Y-98650000D03*
X91440000Y-102610000D03*
X91440000Y-106570000D03*
X91440000Y-110530000D03*
D17*
X105410000Y-81280000D03*
D18*
X105410000Y-83820000D03*
X105410000Y-86360000D03*
X105410000Y-88900000D03*
X105410000Y-91440000D03*
X105410000Y-93980000D03*
X105410000Y-96520000D03*
X105410000Y-99060000D03*
X105410000Y-101600000D03*
X105410000Y-104140000D03*
D17*
X109220000Y-81280000D03*
D18*
X109220000Y-83820000D03*
X109220000Y-86360000D03*
X109220000Y-88900000D03*
X109220000Y-91440000D03*
X109220000Y-93980000D03*
X109220000Y-96520000D03*
X109220000Y-99060000D03*
X109220000Y-101600000D03*
X109220000Y-104140000D03*
D13*
X107442000Y-113792000D03*
D19*
X97282000Y-110530000D03*
X97536000Y-74930000D03*
X97231200Y-98602800D03*
X97536000Y-90728800D03*
X97383600Y-82804000D03*
X97536000Y-78841600D03*
X97485200Y-102616000D03*
X97485200Y-86766400D03*
X97434400Y-94691200D03*
X97332800Y-106578400D03*
%LPD*%
M02*
