G04 #@! TF.GenerationSoftware,KiCad,Pcbnew,8.0.3*
G04 #@! TF.CreationDate,2024-06-20T09:06:03+12:00*
G04 #@! TF.ProjectId,crt_card_edge_adapter,6372745f-6361-4726-945f-656467655f61,rev?*
G04 #@! TF.SameCoordinates,Original*
G04 #@! TF.FileFunction,Copper,L1,Top*
G04 #@! TF.FilePolarity,Positive*
%FSLAX46Y46*%
G04 Gerber Fmt 4.6, Leading zero omitted, Abs format (unit mm)*
G04 Created by KiCad (PCBNEW 8.0.3) date 2024-06-20 09:06:03*
%MOMM*%
%LPD*%
G01*
G04 APERTURE LIST*
G04 #@! TA.AperFunction,ComponentPad*
%ADD10R,3.000000X3.000000*%
G04 #@! TD*
G04 #@! TA.AperFunction,ComponentPad*
%ADD11C,3.000000*%
G04 #@! TD*
G04 #@! TA.AperFunction,ConnectorPad*
%ADD12R,9.800000X2.100000*%
G04 #@! TD*
G04 #@! TA.AperFunction,ComponentPad*
%ADD13R,1.700000X1.700000*%
G04 #@! TD*
G04 #@! TA.AperFunction,ComponentPad*
%ADD14O,1.700000X1.700000*%
G04 #@! TD*
G04 #@! TA.AperFunction,ViaPad*
%ADD15C,0.600000*%
G04 #@! TD*
G04 #@! TA.AperFunction,Conductor*
%ADD16C,0.800000*%
G04 #@! TD*
G04 #@! TA.AperFunction,Conductor*
%ADD17C,0.200000*%
G04 #@! TD*
G04 APERTURE END LIST*
D10*
X119380000Y-73660000D03*
D11*
X119380000Y-78740000D03*
X119380000Y-83820000D03*
X119380000Y-88900000D03*
D10*
X119380000Y-96520000D03*
D11*
X119380000Y-101600000D03*
X119380000Y-106680000D03*
X119380000Y-111760000D03*
D12*
X91440000Y-74890000D03*
X91440000Y-78850000D03*
X91440000Y-82810000D03*
X91440000Y-86770000D03*
X91440000Y-90730000D03*
X91440000Y-94690000D03*
X91440000Y-98650000D03*
X91440000Y-102610000D03*
X91440000Y-106570000D03*
X91440000Y-110530000D03*
D13*
X105410000Y-81280000D03*
D14*
X105410000Y-83820000D03*
X105410000Y-86360000D03*
X105410000Y-88900000D03*
X105410000Y-91440000D03*
X105410000Y-93980000D03*
X105410000Y-96520000D03*
X105410000Y-99060000D03*
X105410000Y-101600000D03*
X105410000Y-104140000D03*
D13*
X109220000Y-81280000D03*
D14*
X109220000Y-83820000D03*
X109220000Y-86360000D03*
X109220000Y-88900000D03*
X109220000Y-91440000D03*
X109220000Y-93980000D03*
X109220000Y-96520000D03*
X109220000Y-99060000D03*
X109220000Y-101600000D03*
X109220000Y-104140000D03*
D15*
X97282000Y-110530000D03*
X97536000Y-74930000D03*
X97231200Y-98602800D03*
X97536000Y-90728800D03*
X97383600Y-82804000D03*
X97536000Y-78841600D03*
X97485200Y-102616000D03*
X97485200Y-86766400D03*
X97434400Y-94691200D03*
X97332800Y-106578400D03*
D16*
X97282000Y-110530000D02*
X91440000Y-110530000D01*
X91440000Y-74890000D02*
X97496000Y-74890000D01*
X97496000Y-74890000D02*
X97536000Y-74930000D01*
X99314000Y-96520000D02*
X105410000Y-96520000D01*
X91440000Y-98650000D02*
X97184000Y-98650000D01*
X105410000Y-96520000D02*
X109220000Y-96520000D01*
X97231200Y-98602800D02*
X99314000Y-96520000D01*
X97184000Y-98650000D02*
X97231200Y-98602800D01*
X91440000Y-90730000D02*
X97534800Y-90730000D01*
X97534800Y-90730000D02*
X97536000Y-90728800D01*
X97377600Y-82810000D02*
X97383600Y-82804000D01*
X91440000Y-82810000D02*
X97377600Y-82810000D01*
X91440000Y-78850000D02*
X97527600Y-78850000D01*
X97527600Y-78850000D02*
X97536000Y-78841600D01*
X91440000Y-102610000D02*
X97479200Y-102610000D01*
X97479200Y-102610000D02*
X97485200Y-102616000D01*
X97481600Y-86770000D02*
X97485200Y-86766400D01*
X91440000Y-86770000D02*
X97481600Y-86770000D01*
X97433200Y-94690000D02*
X97434400Y-94691200D01*
X91440000Y-94690000D02*
X97433200Y-94690000D01*
D17*
X109220000Y-93980000D02*
X114300000Y-93980000D01*
X119380000Y-88900000D02*
X119380000Y-83820000D01*
X114300000Y-93980000D02*
X119380000Y-88900000D01*
D16*
X91440000Y-106570000D02*
X97324400Y-106570000D01*
X97324400Y-106570000D02*
X97332800Y-106578400D01*
D17*
X119380000Y-106680000D02*
X119380000Y-111760000D01*
X114300000Y-101600000D02*
X109220000Y-101600000D01*
X119380000Y-106680000D02*
X114300000Y-101600000D01*
G04 #@! TA.AperFunction,Conductor*
G36*
X106262155Y-69100185D02*
G01*
X106307910Y-69152989D01*
X106317854Y-69222147D01*
X106288829Y-69285703D01*
X106248918Y-69316220D01*
X106182109Y-69348393D01*
X105934795Y-69503791D01*
X105706435Y-69685901D01*
X105499901Y-69892435D01*
X105317791Y-70120795D01*
X105162393Y-70368109D01*
X105035665Y-70631261D01*
X104939197Y-70906953D01*
X104939196Y-70906955D01*
X104874202Y-71191714D01*
X104874199Y-71191728D01*
X104841500Y-71481952D01*
X104841500Y-71774047D01*
X104874199Y-72064271D01*
X104874201Y-72064283D01*
X104874202Y-72064286D01*
X104885122Y-72112128D01*
X104939196Y-72349044D01*
X104939197Y-72349046D01*
X105035665Y-72624738D01*
X105162393Y-72887890D01*
X105162395Y-72887893D01*
X105317792Y-73135206D01*
X105499902Y-73363565D01*
X105706435Y-73570098D01*
X105934794Y-73752208D01*
X106182107Y-73907605D01*
X106445263Y-74034335D01*
X106720955Y-74130803D01*
X107005714Y-74195798D01*
X107005723Y-74195799D01*
X107005728Y-74195800D01*
X107199210Y-74217599D01*
X107295953Y-74228499D01*
X107295956Y-74228500D01*
X107295959Y-74228500D01*
X107588044Y-74228500D01*
X107588045Y-74228499D01*
X107736371Y-74211787D01*
X107878271Y-74195800D01*
X107878274Y-74195799D01*
X107878286Y-74195798D01*
X108163045Y-74130803D01*
X108438737Y-74034335D01*
X108701893Y-73907605D01*
X108949206Y-73752208D01*
X109177565Y-73570098D01*
X109384098Y-73363565D01*
X109566208Y-73135206D01*
X109721605Y-72887893D01*
X109848335Y-72624737D01*
X109944803Y-72349045D01*
X109998877Y-72112135D01*
X117379500Y-72112135D01*
X117379500Y-75207870D01*
X117379501Y-75207876D01*
X117385908Y-75267483D01*
X117436202Y-75402328D01*
X117436206Y-75402335D01*
X117522452Y-75517544D01*
X117522455Y-75517547D01*
X117637664Y-75603793D01*
X117637671Y-75603797D01*
X117772517Y-75654091D01*
X117772516Y-75654091D01*
X117779444Y-75654835D01*
X117832127Y-75660500D01*
X120927872Y-75660499D01*
X120987483Y-75654091D01*
X121122331Y-75603796D01*
X121237546Y-75517546D01*
X121323796Y-75402331D01*
X121374091Y-75267483D01*
X121380500Y-75207873D01*
X121380499Y-72112128D01*
X121374091Y-72052517D01*
X121323796Y-71917669D01*
X121323795Y-71917668D01*
X121323793Y-71917664D01*
X121237547Y-71802455D01*
X121237544Y-71802452D01*
X121122335Y-71716206D01*
X121122328Y-71716202D01*
X120987482Y-71665908D01*
X120987483Y-71665908D01*
X120927883Y-71659501D01*
X120927881Y-71659500D01*
X120927873Y-71659500D01*
X120927864Y-71659500D01*
X117832129Y-71659500D01*
X117832123Y-71659501D01*
X117772516Y-71665908D01*
X117637671Y-71716202D01*
X117637664Y-71716206D01*
X117522455Y-71802452D01*
X117522452Y-71802455D01*
X117436206Y-71917664D01*
X117436202Y-71917671D01*
X117385908Y-72052517D01*
X117379501Y-72112116D01*
X117379501Y-72112123D01*
X117379500Y-72112135D01*
X109998877Y-72112135D01*
X110009798Y-72064286D01*
X110042500Y-71774041D01*
X110042500Y-71481959D01*
X110009798Y-71191714D01*
X109944803Y-70906955D01*
X109848335Y-70631263D01*
X109766917Y-70462198D01*
X109721606Y-70368109D01*
X109721605Y-70368107D01*
X109566208Y-70120794D01*
X109384098Y-69892435D01*
X109177565Y-69685902D01*
X108949206Y-69503792D01*
X108701893Y-69348395D01*
X108701890Y-69348393D01*
X108635082Y-69316220D01*
X108583223Y-69269397D01*
X108564910Y-69201970D01*
X108585958Y-69135346D01*
X108639684Y-69090678D01*
X108688884Y-69080500D01*
X124470500Y-69080500D01*
X124537539Y-69100185D01*
X124583294Y-69152989D01*
X124594500Y-69204500D01*
X124594500Y-116215500D01*
X124574815Y-116282539D01*
X124522011Y-116328294D01*
X124470500Y-116339500D01*
X108688884Y-116339500D01*
X108621845Y-116319815D01*
X108576090Y-116267011D01*
X108566146Y-116197853D01*
X108595171Y-116134297D01*
X108635082Y-116103780D01*
X108663431Y-116090127D01*
X108701893Y-116071605D01*
X108949206Y-115916208D01*
X109177565Y-115734098D01*
X109384098Y-115527565D01*
X109566208Y-115299206D01*
X109721605Y-115051893D01*
X109848335Y-114788737D01*
X109944803Y-114513045D01*
X110009798Y-114228286D01*
X110042500Y-113938041D01*
X110042500Y-113645959D01*
X110020109Y-113447226D01*
X110009800Y-113355728D01*
X110009799Y-113355723D01*
X110009798Y-113355714D01*
X109944803Y-113070955D01*
X109848335Y-112795263D01*
X109721605Y-112532107D01*
X109566208Y-112284794D01*
X109384098Y-112056435D01*
X109177565Y-111849902D01*
X108949206Y-111667792D01*
X108701893Y-111512395D01*
X108701890Y-111512393D01*
X108438738Y-111385665D01*
X108163046Y-111289197D01*
X108163044Y-111289196D01*
X107943280Y-111239036D01*
X107878286Y-111224202D01*
X107878283Y-111224201D01*
X107878271Y-111224199D01*
X107588047Y-111191500D01*
X107588041Y-111191500D01*
X107295959Y-111191500D01*
X107295952Y-111191500D01*
X107005728Y-111224199D01*
X107005714Y-111224202D01*
X106720955Y-111289196D01*
X106720953Y-111289197D01*
X106445261Y-111385665D01*
X106182109Y-111512393D01*
X105934795Y-111667791D01*
X105706435Y-111849901D01*
X105499901Y-112056435D01*
X105317791Y-112284795D01*
X105162393Y-112532109D01*
X105035665Y-112795261D01*
X104939197Y-113070953D01*
X104939196Y-113070955D01*
X104874202Y-113355714D01*
X104874199Y-113355728D01*
X104841500Y-113645952D01*
X104841500Y-113938047D01*
X104874199Y-114228271D01*
X104874202Y-114228285D01*
X104939196Y-114513044D01*
X104939197Y-114513046D01*
X105035665Y-114788738D01*
X105162393Y-115051890D01*
X105162395Y-115051893D01*
X105317792Y-115299206D01*
X105499902Y-115527565D01*
X105706435Y-115734098D01*
X105934794Y-115916208D01*
X106182107Y-116071605D01*
X106182109Y-116071606D01*
X106248918Y-116103780D01*
X106300777Y-116150603D01*
X106319090Y-116218030D01*
X106298042Y-116284654D01*
X106244316Y-116329322D01*
X106195116Y-116339500D01*
X97144500Y-116339500D01*
X97077461Y-116319815D01*
X97031706Y-116267011D01*
X97020500Y-116215500D01*
X97020500Y-115373398D01*
X97017612Y-115353308D01*
X96990157Y-115162362D01*
X96939695Y-114990500D01*
X96930094Y-114957801D01*
X96930089Y-114957789D01*
X96841528Y-114763866D01*
X96841519Y-114763850D01*
X96793685Y-114689419D01*
X96774000Y-114622379D01*
X96774000Y-111869537D01*
X96781818Y-111826203D01*
X96833597Y-111687376D01*
X96833598Y-111687372D01*
X96839999Y-111627844D01*
X96840000Y-111627827D01*
X96840000Y-110780000D01*
X96774000Y-110780000D01*
X96774000Y-110280000D01*
X96840000Y-110280000D01*
X96840000Y-109432172D01*
X96839999Y-109432155D01*
X96833598Y-109372627D01*
X96833598Y-109372626D01*
X96831548Y-109367130D01*
X96826561Y-109297438D01*
X96837242Y-109267501D01*
X96911301Y-109122153D01*
X96983799Y-108899026D01*
X97020500Y-108667305D01*
X97020500Y-108432695D01*
X96983799Y-108200974D01*
X96916353Y-107993395D01*
X96911302Y-107977849D01*
X96876129Y-107908818D01*
X96837550Y-107833104D01*
X96824655Y-107764436D01*
X96831854Y-107733478D01*
X96834091Y-107727483D01*
X96840500Y-107667873D01*
X96840500Y-107594500D01*
X96860185Y-107527461D01*
X96912989Y-107481706D01*
X96964500Y-107470500D01*
X97189666Y-107470500D01*
X97213858Y-107472883D01*
X97244106Y-107478900D01*
X97244108Y-107478900D01*
X97421493Y-107478900D01*
X97421494Y-107478899D01*
X97595466Y-107444294D01*
X97759346Y-107376412D01*
X97906835Y-107277863D01*
X98032263Y-107152435D01*
X98130812Y-107004946D01*
X98198694Y-106841066D01*
X98233300Y-106667091D01*
X98233300Y-106489708D01*
X98233300Y-106489705D01*
X98198695Y-106315739D01*
X98198694Y-106315738D01*
X98198694Y-106315734D01*
X98130812Y-106151853D01*
X98130811Y-106151852D01*
X98130808Y-106151846D01*
X98032265Y-106004367D01*
X98032263Y-106004364D01*
X97898436Y-105870536D01*
X97839359Y-105831063D01*
X97839358Y-105831061D01*
X97750944Y-105771985D01*
X97750942Y-105771984D01*
X97669007Y-105738046D01*
X97669006Y-105738046D01*
X97587066Y-105704105D01*
X97587058Y-105704103D01*
X97413096Y-105669500D01*
X97413092Y-105669500D01*
X97413091Y-105669500D01*
X96964499Y-105669500D01*
X96897460Y-105649815D01*
X96851705Y-105597011D01*
X96840499Y-105545500D01*
X96840499Y-105472129D01*
X96840498Y-105472123D01*
X96834091Y-105412516D01*
X96781818Y-105272364D01*
X96774000Y-105229031D01*
X96774000Y-103950966D01*
X96781818Y-103907632D01*
X96783794Y-103902333D01*
X96783796Y-103902331D01*
X96834091Y-103767483D01*
X96840500Y-103707873D01*
X96840500Y-103634500D01*
X96860185Y-103567461D01*
X96912989Y-103521706D01*
X96964500Y-103510500D01*
X97354132Y-103510500D01*
X97378322Y-103512882D01*
X97396508Y-103516500D01*
X97573893Y-103516500D01*
X97573894Y-103516499D01*
X97747866Y-103481894D01*
X97911746Y-103414012D01*
X98059235Y-103315463D01*
X98184663Y-103190035D01*
X98283212Y-103042546D01*
X98351094Y-102878666D01*
X98385700Y-102704691D01*
X98385700Y-102527308D01*
X98385700Y-102527305D01*
X98351095Y-102353339D01*
X98351094Y-102353338D01*
X98351094Y-102353334D01*
X98283212Y-102189453D01*
X98283211Y-102189452D01*
X98283208Y-102189446D01*
X98184665Y-102041967D01*
X98184663Y-102041964D01*
X98053236Y-101910536D01*
X97994159Y-101871063D01*
X97994158Y-101871061D01*
X97905744Y-101811985D01*
X97905742Y-101811984D01*
X97823807Y-101778046D01*
X97823806Y-101778046D01*
X97741866Y-101744105D01*
X97741858Y-101744103D01*
X97567896Y-101709500D01*
X97567892Y-101709500D01*
X97567891Y-101709500D01*
X96964499Y-101709500D01*
X96897460Y-101689815D01*
X96851705Y-101637011D01*
X96840499Y-101585500D01*
X96840499Y-101512129D01*
X96840498Y-101512123D01*
X96834091Y-101452516D01*
X96781818Y-101312364D01*
X96774000Y-101269031D01*
X96774000Y-99990966D01*
X96781818Y-99947632D01*
X96783794Y-99942333D01*
X96783796Y-99942331D01*
X96834091Y-99807483D01*
X96840500Y-99747873D01*
X96840500Y-99674500D01*
X96860185Y-99607461D01*
X96912989Y-99561706D01*
X96964500Y-99550500D01*
X97272693Y-99550500D01*
X97272694Y-99550499D01*
X97446666Y-99515895D01*
X97528606Y-99481953D01*
X97610547Y-99448013D01*
X97700111Y-99388168D01*
X97758036Y-99349464D01*
X97930664Y-99176836D01*
X99650681Y-97456819D01*
X99712004Y-97423334D01*
X99738362Y-97420500D01*
X104349242Y-97420500D01*
X104416281Y-97440185D01*
X104436923Y-97456819D01*
X104538597Y-97558493D01*
X104538603Y-97558498D01*
X104724158Y-97688425D01*
X104767783Y-97743002D01*
X104774977Y-97812500D01*
X104743454Y-97874855D01*
X104724158Y-97891575D01*
X104538597Y-98021505D01*
X104371505Y-98188597D01*
X104235965Y-98382169D01*
X104235964Y-98382171D01*
X104136098Y-98596335D01*
X104136094Y-98596344D01*
X104074938Y-98824586D01*
X104074936Y-98824596D01*
X104054341Y-99059999D01*
X104054341Y-99060000D01*
X104074936Y-99295403D01*
X104074938Y-99295413D01*
X104136094Y-99523655D01*
X104136096Y-99523659D01*
X104136097Y-99523663D01*
X104175173Y-99607461D01*
X104235965Y-99737830D01*
X104235967Y-99737834D01*
X104371501Y-99931395D01*
X104371506Y-99931402D01*
X104538597Y-100098493D01*
X104538603Y-100098498D01*
X104724158Y-100228425D01*
X104767783Y-100283002D01*
X104774977Y-100352500D01*
X104743454Y-100414855D01*
X104724158Y-100431575D01*
X104538597Y-100561505D01*
X104371505Y-100728597D01*
X104235965Y-100922169D01*
X104235964Y-100922171D01*
X104136098Y-101136335D01*
X104136094Y-101136344D01*
X104074938Y-101364586D01*
X104074936Y-101364596D01*
X104054341Y-101599999D01*
X104054341Y-101600000D01*
X104074936Y-101835403D01*
X104074938Y-101835413D01*
X104136094Y-102063655D01*
X104136096Y-102063659D01*
X104136097Y-102063663D01*
X104208839Y-102219658D01*
X104235965Y-102277830D01*
X104235967Y-102277834D01*
X104371501Y-102471395D01*
X104371506Y-102471402D01*
X104538597Y-102638493D01*
X104538603Y-102638498D01*
X104724594Y-102768730D01*
X104768219Y-102823307D01*
X104775413Y-102892805D01*
X104743890Y-102955160D01*
X104724595Y-102971880D01*
X104538922Y-103101890D01*
X104538920Y-103101891D01*
X104371891Y-103268920D01*
X104371886Y-103268926D01*
X104236400Y-103462420D01*
X104236399Y-103462422D01*
X104136570Y-103676507D01*
X104136567Y-103676513D01*
X104079364Y-103889999D01*
X104079364Y-103890000D01*
X104976988Y-103890000D01*
X104944075Y-103947007D01*
X104910000Y-104074174D01*
X104910000Y-104205826D01*
X104944075Y-104332993D01*
X104976988Y-104390000D01*
X104079364Y-104390000D01*
X104136567Y-104603486D01*
X104136570Y-104603492D01*
X104236399Y-104817578D01*
X104371894Y-105011082D01*
X104538917Y-105178105D01*
X104732421Y-105313600D01*
X104946507Y-105413429D01*
X104946516Y-105413433D01*
X105160000Y-105470634D01*
X105160000Y-104573012D01*
X105217007Y-104605925D01*
X105344174Y-104640000D01*
X105475826Y-104640000D01*
X105602993Y-104605925D01*
X105660000Y-104573012D01*
X105660000Y-105470633D01*
X105873483Y-105413433D01*
X105873492Y-105413429D01*
X106087578Y-105313600D01*
X106281082Y-105178105D01*
X106448105Y-105011082D01*
X106583600Y-104817578D01*
X106683429Y-104603492D01*
X106683432Y-104603486D01*
X106740636Y-104390000D01*
X105843012Y-104390000D01*
X105875925Y-104332993D01*
X105910000Y-104205826D01*
X105910000Y-104074174D01*
X105875925Y-103947007D01*
X105843012Y-103890000D01*
X106740636Y-103890000D01*
X106740635Y-103889999D01*
X106683432Y-103676513D01*
X106683429Y-103676507D01*
X106583600Y-103462422D01*
X106583599Y-103462420D01*
X106448113Y-103268926D01*
X106448108Y-103268920D01*
X106281078Y-103101890D01*
X106095405Y-102971879D01*
X106051780Y-102917302D01*
X106044588Y-102847804D01*
X106076110Y-102785449D01*
X106095406Y-102768730D01*
X106281401Y-102638495D01*
X106448495Y-102471401D01*
X106584035Y-102277830D01*
X106683903Y-102063663D01*
X106745063Y-101835408D01*
X106765659Y-101600000D01*
X106745063Y-101364592D01*
X106683903Y-101136337D01*
X106584035Y-100922171D01*
X106584034Y-100922169D01*
X106448494Y-100728597D01*
X106281402Y-100561506D01*
X106281396Y-100561501D01*
X106095842Y-100431575D01*
X106052217Y-100376998D01*
X106045023Y-100307500D01*
X106076546Y-100245145D01*
X106095842Y-100228425D01*
X106144876Y-100194091D01*
X106281401Y-100098495D01*
X106448495Y-99931401D01*
X106584035Y-99737830D01*
X106683903Y-99523663D01*
X106745063Y-99295408D01*
X106765659Y-99060000D01*
X106745063Y-98824592D01*
X106683903Y-98596337D01*
X106584035Y-98382171D01*
X106580798Y-98377547D01*
X106448494Y-98188597D01*
X106281402Y-98021506D01*
X106281396Y-98021501D01*
X106095842Y-97891575D01*
X106052217Y-97836998D01*
X106045023Y-97767500D01*
X106076546Y-97705145D01*
X106095842Y-97688425D01*
X106279367Y-97559919D01*
X106281401Y-97558495D01*
X106383077Y-97456819D01*
X106444400Y-97423334D01*
X106470758Y-97420500D01*
X108159242Y-97420500D01*
X108226281Y-97440185D01*
X108246923Y-97456819D01*
X108348597Y-97558493D01*
X108348603Y-97558498D01*
X108534158Y-97688425D01*
X108577783Y-97743002D01*
X108584977Y-97812500D01*
X108553454Y-97874855D01*
X108534158Y-97891575D01*
X108348597Y-98021505D01*
X108181505Y-98188597D01*
X108045965Y-98382169D01*
X108045964Y-98382171D01*
X107946098Y-98596335D01*
X107946094Y-98596344D01*
X107884938Y-98824586D01*
X107884936Y-98824596D01*
X107864341Y-99059999D01*
X107864341Y-99060000D01*
X107884936Y-99295403D01*
X107884938Y-99295413D01*
X107946094Y-99523655D01*
X107946096Y-99523659D01*
X107946097Y-99523663D01*
X107985173Y-99607461D01*
X108045965Y-99737830D01*
X108045967Y-99737834D01*
X108181501Y-99931395D01*
X108181506Y-99931402D01*
X108348597Y-100098493D01*
X108348603Y-100098498D01*
X108534158Y-100228425D01*
X108577783Y-100283002D01*
X108584977Y-100352500D01*
X108553454Y-100414855D01*
X108534158Y-100431575D01*
X108348597Y-100561505D01*
X108181505Y-100728597D01*
X108045965Y-100922169D01*
X108045964Y-100922171D01*
X107946098Y-101136335D01*
X107946094Y-101136344D01*
X107884938Y-101364586D01*
X107884936Y-101364596D01*
X107864341Y-101599999D01*
X107864341Y-101600000D01*
X107884936Y-101835403D01*
X107884938Y-101835413D01*
X107946094Y-102063655D01*
X107946096Y-102063659D01*
X107946097Y-102063663D01*
X108018839Y-102219658D01*
X108045965Y-102277830D01*
X108045967Y-102277834D01*
X108181501Y-102471395D01*
X108181506Y-102471402D01*
X108348597Y-102638493D01*
X108348603Y-102638498D01*
X108534594Y-102768730D01*
X108578219Y-102823307D01*
X108585413Y-102892805D01*
X108553890Y-102955160D01*
X108534595Y-102971880D01*
X108348922Y-103101890D01*
X108348920Y-103101891D01*
X108181891Y-103268920D01*
X108181886Y-103268926D01*
X108046400Y-103462420D01*
X108046399Y-103462422D01*
X107946570Y-103676507D01*
X107946567Y-103676513D01*
X107889364Y-103889999D01*
X107889364Y-103890000D01*
X108786988Y-103890000D01*
X108754075Y-103947007D01*
X108720000Y-104074174D01*
X108720000Y-104205826D01*
X108754075Y-104332993D01*
X108786988Y-104390000D01*
X107889364Y-104390000D01*
X107946567Y-104603486D01*
X107946570Y-104603492D01*
X108046399Y-104817578D01*
X108181894Y-105011082D01*
X108348917Y-105178105D01*
X108542421Y-105313600D01*
X108756507Y-105413429D01*
X108756516Y-105413433D01*
X108970000Y-105470634D01*
X108970000Y-104573012D01*
X109027007Y-104605925D01*
X109154174Y-104640000D01*
X109285826Y-104640000D01*
X109412993Y-104605925D01*
X109470000Y-104573012D01*
X109470000Y-105470633D01*
X109683483Y-105413433D01*
X109683492Y-105413429D01*
X109897578Y-105313600D01*
X110091082Y-105178105D01*
X110258105Y-105011082D01*
X110393600Y-104817578D01*
X110493429Y-104603492D01*
X110493432Y-104603486D01*
X110550636Y-104390000D01*
X109653012Y-104390000D01*
X109685925Y-104332993D01*
X109720000Y-104205826D01*
X109720000Y-104074174D01*
X109685925Y-103947007D01*
X109653012Y-103890000D01*
X110550636Y-103890000D01*
X110550635Y-103889999D01*
X110493432Y-103676513D01*
X110493429Y-103676507D01*
X110393600Y-103462422D01*
X110393599Y-103462420D01*
X110258113Y-103268926D01*
X110258108Y-103268920D01*
X110091078Y-103101890D01*
X109905405Y-102971879D01*
X109861780Y-102917302D01*
X109854588Y-102847804D01*
X109886110Y-102785449D01*
X109905406Y-102768730D01*
X110091401Y-102638495D01*
X110258495Y-102471401D01*
X110394035Y-102277830D01*
X110396707Y-102272097D01*
X110442878Y-102219658D01*
X110509091Y-102200500D01*
X113999903Y-102200500D01*
X114066942Y-102220185D01*
X114087584Y-102236819D01*
X117540137Y-105689372D01*
X117573622Y-105750695D01*
X117568638Y-105820387D01*
X117561291Y-105836475D01*
X117555635Y-105846833D01*
X117455628Y-106114962D01*
X117394804Y-106394566D01*
X117374390Y-106679998D01*
X117374390Y-106680001D01*
X117394804Y-106965433D01*
X117455628Y-107245037D01*
X117455630Y-107245043D01*
X117455631Y-107245046D01*
X117529947Y-107444294D01*
X117555635Y-107513166D01*
X117692770Y-107764309D01*
X117692775Y-107764317D01*
X117864254Y-107993387D01*
X117864270Y-107993405D01*
X118066594Y-108195729D01*
X118066612Y-108195745D01*
X118295682Y-108367224D01*
X118295690Y-108367229D01*
X118546833Y-108504364D01*
X118546837Y-108504366D01*
X118546839Y-108504367D01*
X118698835Y-108561058D01*
X118754767Y-108602928D01*
X118779184Y-108668392D01*
X118779500Y-108677239D01*
X118779500Y-109762759D01*
X118759815Y-109829798D01*
X118707011Y-109875553D01*
X118698834Y-109878940D01*
X118546845Y-109935630D01*
X118546833Y-109935635D01*
X118295690Y-110072770D01*
X118295682Y-110072775D01*
X118066612Y-110244254D01*
X118066594Y-110244270D01*
X117864270Y-110446594D01*
X117864254Y-110446612D01*
X117692775Y-110675682D01*
X117692770Y-110675690D01*
X117555635Y-110926833D01*
X117455628Y-111194962D01*
X117394804Y-111474566D01*
X117374390Y-111759998D01*
X117374390Y-111760001D01*
X117394804Y-112045433D01*
X117455628Y-112325037D01*
X117555635Y-112593166D01*
X117692770Y-112844309D01*
X117692775Y-112844317D01*
X117864254Y-113073387D01*
X117864270Y-113073405D01*
X118066594Y-113275729D01*
X118066612Y-113275745D01*
X118295682Y-113447224D01*
X118295690Y-113447229D01*
X118546833Y-113584364D01*
X118546832Y-113584364D01*
X118546836Y-113584365D01*
X118546839Y-113584367D01*
X118814954Y-113684369D01*
X118814960Y-113684370D01*
X118814962Y-113684371D01*
X119094566Y-113745195D01*
X119094568Y-113745195D01*
X119094572Y-113745196D01*
X119348220Y-113763337D01*
X119379999Y-113765610D01*
X119380000Y-113765610D01*
X119380001Y-113765610D01*
X119408595Y-113763564D01*
X119665428Y-113745196D01*
X119945046Y-113684369D01*
X120213161Y-113584367D01*
X120464315Y-113447226D01*
X120693395Y-113275739D01*
X120895739Y-113073395D01*
X121067226Y-112844315D01*
X121204367Y-112593161D01*
X121304369Y-112325046D01*
X121365196Y-112045428D01*
X121385610Y-111760000D01*
X121365196Y-111474572D01*
X121324870Y-111289197D01*
X121304371Y-111194962D01*
X121304370Y-111194960D01*
X121304369Y-111194954D01*
X121204367Y-110926839D01*
X121067226Y-110675685D01*
X121067224Y-110675682D01*
X120895745Y-110446612D01*
X120895729Y-110446594D01*
X120693405Y-110244270D01*
X120693387Y-110244254D01*
X120464317Y-110072775D01*
X120464309Y-110072770D01*
X120213166Y-109935635D01*
X120213154Y-109935630D01*
X120061166Y-109878940D01*
X120005232Y-109837069D01*
X119980816Y-109771604D01*
X119980500Y-109762759D01*
X119980500Y-108677239D01*
X120000185Y-108610200D01*
X120052989Y-108564445D01*
X120061147Y-108561064D01*
X120213161Y-108504367D01*
X120464315Y-108367226D01*
X120693395Y-108195739D01*
X120895739Y-107993395D01*
X121067226Y-107764315D01*
X121204367Y-107513161D01*
X121304369Y-107245046D01*
X121324515Y-107152435D01*
X121365195Y-106965433D01*
X121365195Y-106965432D01*
X121365196Y-106965428D01*
X121385610Y-106680000D01*
X121365196Y-106394572D01*
X121312396Y-106151855D01*
X121304371Y-106114962D01*
X121304370Y-106114960D01*
X121304369Y-106114954D01*
X121204367Y-105846839D01*
X121163493Y-105771985D01*
X121067229Y-105595690D01*
X121067224Y-105595682D01*
X120895745Y-105366612D01*
X120895729Y-105366594D01*
X120693405Y-105164270D01*
X120693387Y-105164254D01*
X120464317Y-104992775D01*
X120464309Y-104992770D01*
X120213166Y-104855635D01*
X120213167Y-104855635D01*
X120105915Y-104815632D01*
X119945046Y-104755631D01*
X119945043Y-104755630D01*
X119945037Y-104755628D01*
X119665433Y-104694804D01*
X119380001Y-104674390D01*
X119379999Y-104674390D01*
X119094566Y-104694804D01*
X118814962Y-104755628D01*
X118546833Y-104855635D01*
X118536475Y-104861291D01*
X118468201Y-104876140D01*
X118402738Y-104851719D01*
X118389372Y-104840137D01*
X115149233Y-101599998D01*
X117374891Y-101599998D01*
X117374891Y-101600001D01*
X117395300Y-101885362D01*
X117456109Y-102164895D01*
X117556091Y-102432958D01*
X117693191Y-102684038D01*
X117693196Y-102684046D01*
X117799882Y-102826561D01*
X117799883Y-102826562D01*
X118694767Y-101931677D01*
X118706497Y-101959995D01*
X118789670Y-102084472D01*
X118895528Y-102190330D01*
X119020005Y-102273503D01*
X119048320Y-102285231D01*
X118153436Y-103180115D01*
X118295960Y-103286807D01*
X118295961Y-103286808D01*
X118547042Y-103423908D01*
X118547041Y-103423908D01*
X118815104Y-103523890D01*
X119094637Y-103584699D01*
X119379999Y-103605109D01*
X119380001Y-103605109D01*
X119665362Y-103584699D01*
X119944895Y-103523890D01*
X120212958Y-103423908D01*
X120464047Y-103286803D01*
X120606561Y-103180116D01*
X120606562Y-103180115D01*
X119711679Y-102285231D01*
X119739995Y-102273503D01*
X119864472Y-102190330D01*
X119970330Y-102084472D01*
X120053503Y-101959995D01*
X120065231Y-101931678D01*
X120960115Y-102826562D01*
X120960116Y-102826561D01*
X121066803Y-102684047D01*
X121203908Y-102432958D01*
X121303890Y-102164895D01*
X121364699Y-101885362D01*
X121385109Y-101600001D01*
X121385109Y-101599998D01*
X121364699Y-101314637D01*
X121303890Y-101035104D01*
X121203908Y-100767041D01*
X121066808Y-100515961D01*
X121066807Y-100515960D01*
X120960115Y-100373436D01*
X120065231Y-101268320D01*
X120053503Y-101240005D01*
X119970330Y-101115528D01*
X119864472Y-101009670D01*
X119739995Y-100926497D01*
X119711678Y-100914767D01*
X120606562Y-100019883D01*
X120606561Y-100019882D01*
X120464046Y-99913196D01*
X120464038Y-99913191D01*
X120212957Y-99776091D01*
X120212958Y-99776091D01*
X119944895Y-99676109D01*
X119665362Y-99615300D01*
X119380001Y-99594891D01*
X119379999Y-99594891D01*
X119094637Y-99615300D01*
X118815104Y-99676109D01*
X118547041Y-99776091D01*
X118295961Y-99913191D01*
X118295953Y-99913196D01*
X118153437Y-100019882D01*
X118153436Y-100019883D01*
X119048321Y-100914767D01*
X119020005Y-100926497D01*
X118895528Y-101009670D01*
X118789670Y-101115528D01*
X118706497Y-101240005D01*
X118694768Y-101268321D01*
X117799883Y-100373436D01*
X117799882Y-100373437D01*
X117693196Y-100515953D01*
X117693191Y-100515961D01*
X117556091Y-100767041D01*
X117456109Y-101035104D01*
X117395300Y-101314637D01*
X117374891Y-101599998D01*
X115149233Y-101599998D01*
X114787590Y-101238355D01*
X114787588Y-101238352D01*
X114668717Y-101119481D01*
X114668716Y-101119480D01*
X114581904Y-101069360D01*
X114581904Y-101069359D01*
X114581900Y-101069358D01*
X114531785Y-101040423D01*
X114379057Y-100999499D01*
X114220943Y-100999499D01*
X114213347Y-100999499D01*
X114213331Y-100999500D01*
X110509091Y-100999500D01*
X110442052Y-100979815D01*
X110396711Y-100927909D01*
X110394037Y-100922175D01*
X110394034Y-100922170D01*
X110394033Y-100922169D01*
X110336002Y-100839290D01*
X110258494Y-100728597D01*
X110091402Y-100561506D01*
X110091396Y-100561501D01*
X109905842Y-100431575D01*
X109862217Y-100376998D01*
X109855023Y-100307500D01*
X109886546Y-100245145D01*
X109905842Y-100228425D01*
X109954876Y-100194091D01*
X110091401Y-100098495D01*
X110258495Y-99931401D01*
X110394035Y-99737830D01*
X110493903Y-99523663D01*
X110555063Y-99295408D01*
X110575659Y-99060000D01*
X110555063Y-98824592D01*
X110493903Y-98596337D01*
X110394035Y-98382171D01*
X110390798Y-98377547D01*
X110258494Y-98188597D01*
X110091402Y-98021506D01*
X110091396Y-98021501D01*
X109905842Y-97891575D01*
X109862217Y-97836998D01*
X109855023Y-97767500D01*
X109886546Y-97705145D01*
X109905842Y-97688425D01*
X110089367Y-97559919D01*
X110091401Y-97558495D01*
X110258495Y-97391401D01*
X110394035Y-97197830D01*
X110493903Y-96983663D01*
X110555063Y-96755408D01*
X110575659Y-96520000D01*
X110555063Y-96284592D01*
X110493903Y-96056337D01*
X110394035Y-95842171D01*
X110356023Y-95787883D01*
X110258494Y-95648597D01*
X110091402Y-95481506D01*
X110091396Y-95481501D01*
X109905842Y-95351575D01*
X109862217Y-95296998D01*
X109855023Y-95227500D01*
X109886546Y-95165145D01*
X109905842Y-95148425D01*
X109949653Y-95117748D01*
X110091401Y-95018495D01*
X110137761Y-94972135D01*
X117379500Y-94972135D01*
X117379500Y-98067870D01*
X117379501Y-98067876D01*
X117385908Y-98127483D01*
X117436202Y-98262328D01*
X117436206Y-98262335D01*
X117522452Y-98377544D01*
X117522455Y-98377547D01*
X117637664Y-98463793D01*
X117637671Y-98463797D01*
X117772517Y-98514091D01*
X117772516Y-98514091D01*
X117779444Y-98514835D01*
X117832127Y-98520500D01*
X120927872Y-98520499D01*
X120987483Y-98514091D01*
X121122331Y-98463796D01*
X121237546Y-98377546D01*
X121323796Y-98262331D01*
X121374091Y-98127483D01*
X121380500Y-98067873D01*
X121380499Y-94972128D01*
X121374091Y-94912517D01*
X121351296Y-94851401D01*
X121323797Y-94777671D01*
X121323793Y-94777664D01*
X121237547Y-94662455D01*
X121237544Y-94662452D01*
X121122335Y-94576206D01*
X121122328Y-94576202D01*
X120987482Y-94525908D01*
X120987483Y-94525908D01*
X120927883Y-94519501D01*
X120927881Y-94519500D01*
X120927873Y-94519500D01*
X120927864Y-94519500D01*
X117832129Y-94519500D01*
X117832123Y-94519501D01*
X117772516Y-94525908D01*
X117637671Y-94576202D01*
X117637664Y-94576206D01*
X117522455Y-94662452D01*
X117522452Y-94662455D01*
X117436206Y-94777664D01*
X117436202Y-94777671D01*
X117385908Y-94912517D01*
X117381464Y-94953858D01*
X117379501Y-94972123D01*
X117379500Y-94972135D01*
X110137761Y-94972135D01*
X110258495Y-94851401D01*
X110394035Y-94657830D01*
X110396707Y-94652097D01*
X110442878Y-94599658D01*
X110509091Y-94580500D01*
X114213331Y-94580500D01*
X114213347Y-94580501D01*
X114220943Y-94580501D01*
X114379054Y-94580501D01*
X114379057Y-94580501D01*
X114531785Y-94539577D01*
X114581904Y-94510639D01*
X114668716Y-94460520D01*
X114780520Y-94348716D01*
X114780520Y-94348714D01*
X114790728Y-94338507D01*
X114790730Y-94338504D01*
X118389374Y-90739859D01*
X118450695Y-90706376D01*
X118520387Y-90711360D01*
X118536474Y-90718707D01*
X118546839Y-90724367D01*
X118814954Y-90824369D01*
X118814960Y-90824370D01*
X118814962Y-90824371D01*
X119094566Y-90885195D01*
X119094568Y-90885195D01*
X119094572Y-90885196D01*
X119348220Y-90903337D01*
X119379999Y-90905610D01*
X119380000Y-90905610D01*
X119380001Y-90905610D01*
X119408595Y-90903564D01*
X119665428Y-90885196D01*
X119945046Y-90824369D01*
X120213161Y-90724367D01*
X120464315Y-90587226D01*
X120693395Y-90415739D01*
X120895739Y-90213395D01*
X121067226Y-89984315D01*
X121204367Y-89733161D01*
X121304369Y-89465046D01*
X121304371Y-89465037D01*
X121365195Y-89185433D01*
X121365195Y-89185432D01*
X121365196Y-89185428D01*
X121385610Y-88900000D01*
X121365196Y-88614572D01*
X121326423Y-88436337D01*
X121304371Y-88334962D01*
X121304370Y-88334960D01*
X121304369Y-88334954D01*
X121204367Y-88066839D01*
X121201905Y-88062331D01*
X121067229Y-87815690D01*
X121067224Y-87815682D01*
X120895745Y-87586612D01*
X120895729Y-87586594D01*
X120693405Y-87384270D01*
X120693387Y-87384254D01*
X120464317Y-87212775D01*
X120464309Y-87212770D01*
X120213166Y-87075635D01*
X120213154Y-87075630D01*
X120061166Y-87018940D01*
X120005232Y-86977069D01*
X119980816Y-86911604D01*
X119980500Y-86902759D01*
X119980500Y-85817239D01*
X120000185Y-85750200D01*
X120052989Y-85704445D01*
X120061147Y-85701064D01*
X120213161Y-85644367D01*
X120464315Y-85507226D01*
X120693395Y-85335739D01*
X120895739Y-85133395D01*
X121067226Y-84904315D01*
X121204367Y-84653161D01*
X121304369Y-84385046D01*
X121326423Y-84283664D01*
X121365195Y-84105433D01*
X121365195Y-84105432D01*
X121365196Y-84105428D01*
X121385610Y-83820000D01*
X121365196Y-83534572D01*
X121326423Y-83356337D01*
X121304371Y-83254962D01*
X121304370Y-83254960D01*
X121304369Y-83254954D01*
X121204367Y-82986839D01*
X121183486Y-82948599D01*
X121067229Y-82735690D01*
X121067224Y-82735682D01*
X120895745Y-82506612D01*
X120895729Y-82506594D01*
X120693405Y-82304270D01*
X120693387Y-82304254D01*
X120464317Y-82132775D01*
X120464309Y-82132770D01*
X120213166Y-81995635D01*
X120213167Y-81995635D01*
X120105915Y-81955632D01*
X119945046Y-81895631D01*
X119945043Y-81895630D01*
X119945037Y-81895628D01*
X119665433Y-81834804D01*
X119380001Y-81814390D01*
X119379999Y-81814390D01*
X119094566Y-81834804D01*
X118814962Y-81895628D01*
X118546833Y-81995635D01*
X118295690Y-82132770D01*
X118295682Y-82132775D01*
X118066612Y-82304254D01*
X118066594Y-82304270D01*
X117864270Y-82506594D01*
X117864254Y-82506612D01*
X117692775Y-82735682D01*
X117692770Y-82735690D01*
X117555635Y-82986833D01*
X117455628Y-83254962D01*
X117394804Y-83534566D01*
X117374390Y-83819998D01*
X117374390Y-83820001D01*
X117394804Y-84105433D01*
X117455628Y-84385037D01*
X117455630Y-84385043D01*
X117455631Y-84385046D01*
X117497699Y-84497834D01*
X117555635Y-84653166D01*
X117692770Y-84904309D01*
X117692775Y-84904317D01*
X117864254Y-85133387D01*
X117864270Y-85133405D01*
X118066594Y-85335729D01*
X118066612Y-85335745D01*
X118295682Y-85507224D01*
X118295690Y-85507229D01*
X118546833Y-85644364D01*
X118546837Y-85644366D01*
X118546839Y-85644367D01*
X118698835Y-85701058D01*
X118754767Y-85742928D01*
X118779184Y-85808392D01*
X118779500Y-85817239D01*
X118779500Y-86902759D01*
X118759815Y-86969798D01*
X118707011Y-87015553D01*
X118698834Y-87018940D01*
X118546845Y-87075630D01*
X118546833Y-87075635D01*
X118295690Y-87212770D01*
X118295682Y-87212775D01*
X118066612Y-87384254D01*
X118066594Y-87384270D01*
X117864270Y-87586594D01*
X117864254Y-87586612D01*
X117692775Y-87815682D01*
X117692770Y-87815690D01*
X117555635Y-88066833D01*
X117455628Y-88334962D01*
X117394804Y-88614566D01*
X117374390Y-88899998D01*
X117374390Y-88900001D01*
X117394804Y-89185433D01*
X117455628Y-89465037D01*
X117455630Y-89465043D01*
X117455631Y-89465046D01*
X117497699Y-89577834D01*
X117555634Y-89733163D01*
X117561288Y-89743517D01*
X117576140Y-89811790D01*
X117551724Y-89877254D01*
X117540137Y-89890626D01*
X114087584Y-93343181D01*
X114026261Y-93376666D01*
X113999903Y-93379500D01*
X110509091Y-93379500D01*
X110442052Y-93359815D01*
X110396711Y-93307909D01*
X110394037Y-93302175D01*
X110394034Y-93302170D01*
X110394033Y-93302169D01*
X110336002Y-93219290D01*
X110258494Y-93108597D01*
X110091402Y-92941506D01*
X110091396Y-92941501D01*
X109905842Y-92811575D01*
X109862217Y-92756998D01*
X109855023Y-92687500D01*
X109886546Y-92625145D01*
X109905842Y-92608425D01*
X109928026Y-92592891D01*
X110091401Y-92478495D01*
X110258495Y-92311401D01*
X110394035Y-92117830D01*
X110493903Y-91903663D01*
X110555063Y-91675408D01*
X110575659Y-91440000D01*
X110555063Y-91204592D01*
X110493903Y-90976337D01*
X110394035Y-90762171D01*
X110378414Y-90739861D01*
X110258494Y-90568597D01*
X110091402Y-90401506D01*
X110091396Y-90401501D01*
X109905842Y-90271575D01*
X109862217Y-90216998D01*
X109855023Y-90147500D01*
X109886546Y-90085145D01*
X109905842Y-90068425D01*
X109961667Y-90029336D01*
X110091401Y-89938495D01*
X110258495Y-89771401D01*
X110394035Y-89577830D01*
X110493903Y-89363663D01*
X110555063Y-89135408D01*
X110575659Y-88900000D01*
X110555063Y-88664592D01*
X110493903Y-88436337D01*
X110394035Y-88222171D01*
X110362789Y-88177546D01*
X110258494Y-88028597D01*
X110091402Y-87861506D01*
X110091396Y-87861501D01*
X109905842Y-87731575D01*
X109862217Y-87676998D01*
X109855023Y-87607500D01*
X109886546Y-87545145D01*
X109905842Y-87528425D01*
X109990047Y-87469464D01*
X110091401Y-87398495D01*
X110258495Y-87231401D01*
X110394035Y-87037830D01*
X110493903Y-86823663D01*
X110555063Y-86595408D01*
X110575659Y-86360000D01*
X110555063Y-86124592D01*
X110493903Y-85896337D01*
X110394035Y-85682171D01*
X110387003Y-85672127D01*
X110258494Y-85488597D01*
X110091402Y-85321506D01*
X110091396Y-85321501D01*
X109905842Y-85191575D01*
X109862217Y-85136998D01*
X109855023Y-85067500D01*
X109886546Y-85005145D01*
X109905842Y-84988425D01*
X110025963Y-84904315D01*
X110091401Y-84858495D01*
X110258495Y-84691401D01*
X110394035Y-84497830D01*
X110493903Y-84283663D01*
X110555063Y-84055408D01*
X110575659Y-83820000D01*
X110555063Y-83584592D01*
X110493903Y-83356337D01*
X110394035Y-83142171D01*
X110258495Y-82948599D01*
X110136179Y-82826283D01*
X110102696Y-82764963D01*
X110107680Y-82695271D01*
X110149551Y-82639337D01*
X110180529Y-82622422D01*
X110312086Y-82573354D01*
X110312093Y-82573350D01*
X110427187Y-82487190D01*
X110427190Y-82487187D01*
X110513350Y-82372093D01*
X110513354Y-82372086D01*
X110563596Y-82237379D01*
X110563598Y-82237372D01*
X110569999Y-82177844D01*
X110570000Y-82177827D01*
X110570000Y-81530000D01*
X109653012Y-81530000D01*
X109685925Y-81472993D01*
X109720000Y-81345826D01*
X109720000Y-81214174D01*
X109685925Y-81087007D01*
X109653012Y-81030000D01*
X110570000Y-81030000D01*
X110570000Y-80382172D01*
X110569999Y-80382155D01*
X110563598Y-80322627D01*
X110563596Y-80322620D01*
X110513354Y-80187913D01*
X110513350Y-80187906D01*
X110427190Y-80072812D01*
X110427187Y-80072809D01*
X110312093Y-79986649D01*
X110312086Y-79986645D01*
X110177379Y-79936403D01*
X110177372Y-79936401D01*
X110117844Y-79930000D01*
X109470000Y-79930000D01*
X109470000Y-80846988D01*
X109412993Y-80814075D01*
X109285826Y-80780000D01*
X109154174Y-80780000D01*
X109027007Y-80814075D01*
X108970000Y-80846988D01*
X108970000Y-79930000D01*
X108322155Y-79930000D01*
X108262627Y-79936401D01*
X108262620Y-79936403D01*
X108127913Y-79986645D01*
X108127906Y-79986649D01*
X108012812Y-80072809D01*
X108012809Y-80072812D01*
X107926649Y-80187906D01*
X107926645Y-80187913D01*
X107876403Y-80322620D01*
X107876401Y-80322627D01*
X107870000Y-80382155D01*
X107870000Y-81030000D01*
X108786988Y-81030000D01*
X108754075Y-81087007D01*
X108720000Y-81214174D01*
X108720000Y-81345826D01*
X108754075Y-81472993D01*
X108786988Y-81530000D01*
X107870000Y-81530000D01*
X107870000Y-82177844D01*
X107876401Y-82237372D01*
X107876403Y-82237379D01*
X107926645Y-82372086D01*
X107926649Y-82372093D01*
X108012809Y-82487187D01*
X108012812Y-82487190D01*
X108127906Y-82573350D01*
X108127913Y-82573354D01*
X108259470Y-82622421D01*
X108315403Y-82664292D01*
X108339821Y-82729756D01*
X108324970Y-82798029D01*
X108303819Y-82826284D01*
X108181503Y-82948600D01*
X108045965Y-83142169D01*
X108045964Y-83142171D01*
X107946098Y-83356335D01*
X107946094Y-83356344D01*
X107884938Y-83584586D01*
X107884936Y-83584596D01*
X107864341Y-83819999D01*
X107864341Y-83820000D01*
X107884936Y-84055403D01*
X107884938Y-84055413D01*
X107946094Y-84283655D01*
X107946096Y-84283659D01*
X107946097Y-84283663D01*
X107981927Y-84360500D01*
X108045965Y-84497830D01*
X108045967Y-84497834D01*
X108181501Y-84691395D01*
X108181506Y-84691402D01*
X108348597Y-84858493D01*
X108348603Y-84858498D01*
X108534158Y-84988425D01*
X108577783Y-85043002D01*
X108584977Y-85112500D01*
X108553454Y-85174855D01*
X108534158Y-85191575D01*
X108348597Y-85321505D01*
X108181505Y-85488597D01*
X108045965Y-85682169D01*
X108045964Y-85682171D01*
X107946098Y-85896335D01*
X107946094Y-85896344D01*
X107884938Y-86124586D01*
X107884936Y-86124596D01*
X107864341Y-86359999D01*
X107864341Y-86360000D01*
X107884936Y-86595403D01*
X107884938Y-86595413D01*
X107946094Y-86823655D01*
X107946096Y-86823659D01*
X107946097Y-86823663D01*
X107987105Y-86911604D01*
X108045965Y-87037830D01*
X108045967Y-87037834D01*
X108072436Y-87075635D01*
X108168459Y-87212770D01*
X108181501Y-87231395D01*
X108181506Y-87231402D01*
X108348597Y-87398493D01*
X108348603Y-87398498D01*
X108534158Y-87528425D01*
X108577783Y-87583002D01*
X108584977Y-87652500D01*
X108553454Y-87714855D01*
X108534158Y-87731575D01*
X108348597Y-87861505D01*
X108181505Y-88028597D01*
X108045965Y-88222169D01*
X108045964Y-88222171D01*
X107946098Y-88436335D01*
X107946094Y-88436344D01*
X107884938Y-88664586D01*
X107884936Y-88664596D01*
X107864341Y-88899999D01*
X107864341Y-88900000D01*
X107884936Y-89135403D01*
X107884938Y-89135413D01*
X107946094Y-89363655D01*
X107946096Y-89363659D01*
X107946097Y-89363663D01*
X107978133Y-89432364D01*
X108045965Y-89577830D01*
X108045967Y-89577834D01*
X108181501Y-89771395D01*
X108181506Y-89771402D01*
X108348597Y-89938493D01*
X108348603Y-89938498D01*
X108534158Y-90068425D01*
X108577783Y-90123002D01*
X108584977Y-90192500D01*
X108553454Y-90254855D01*
X108534158Y-90271575D01*
X108348597Y-90401505D01*
X108181505Y-90568597D01*
X108045965Y-90762169D01*
X108045964Y-90762171D01*
X107946098Y-90976335D01*
X107946094Y-90976344D01*
X107884938Y-91204586D01*
X107884936Y-91204596D01*
X107864341Y-91439999D01*
X107864341Y-91440000D01*
X107884936Y-91675403D01*
X107884938Y-91675413D01*
X107946094Y-91903655D01*
X107946096Y-91903659D01*
X107946097Y-91903663D01*
X108001433Y-92022331D01*
X108045965Y-92117830D01*
X108045967Y-92117834D01*
X108181501Y-92311395D01*
X108181506Y-92311402D01*
X108348597Y-92478493D01*
X108348603Y-92478498D01*
X108534158Y-92608425D01*
X108577783Y-92663002D01*
X108584977Y-92732500D01*
X108553454Y-92794855D01*
X108534158Y-92811575D01*
X108348597Y-92941505D01*
X108181505Y-93108597D01*
X108045965Y-93302169D01*
X108045964Y-93302171D01*
X107946098Y-93516335D01*
X107946094Y-93516344D01*
X107884938Y-93744586D01*
X107884936Y-93744596D01*
X107864341Y-93979999D01*
X107864341Y-93980000D01*
X107884936Y-94215403D01*
X107884938Y-94215413D01*
X107946094Y-94443655D01*
X107946096Y-94443659D01*
X107946097Y-94443663D01*
X108020168Y-94602508D01*
X108045965Y-94657830D01*
X108045967Y-94657834D01*
X108181501Y-94851395D01*
X108181506Y-94851402D01*
X108348597Y-95018493D01*
X108348603Y-95018498D01*
X108534158Y-95148425D01*
X108577783Y-95203002D01*
X108584977Y-95272500D01*
X108553454Y-95334855D01*
X108534158Y-95351575D01*
X108348600Y-95481503D01*
X108297762Y-95532342D01*
X108246921Y-95583182D01*
X108185601Y-95616666D01*
X108159242Y-95619500D01*
X106470758Y-95619500D01*
X106403719Y-95599815D01*
X106383077Y-95583181D01*
X106281402Y-95481506D01*
X106281396Y-95481501D01*
X106095842Y-95351575D01*
X106052217Y-95296998D01*
X106045023Y-95227500D01*
X106076546Y-95165145D01*
X106095842Y-95148425D01*
X106139653Y-95117748D01*
X106281401Y-95018495D01*
X106448495Y-94851401D01*
X106584035Y-94657830D01*
X106683903Y-94443663D01*
X106745063Y-94215408D01*
X106765659Y-93980000D01*
X106745063Y-93744592D01*
X106683903Y-93516337D01*
X106584035Y-93302171D01*
X106584034Y-93302169D01*
X106448494Y-93108597D01*
X106281402Y-92941506D01*
X106281396Y-92941501D01*
X106095842Y-92811575D01*
X106052217Y-92756998D01*
X106045023Y-92687500D01*
X106076546Y-92625145D01*
X106095842Y-92608425D01*
X106118026Y-92592891D01*
X106281401Y-92478495D01*
X106448495Y-92311401D01*
X106584035Y-92117830D01*
X106683903Y-91903663D01*
X106745063Y-91675408D01*
X106765659Y-91440000D01*
X106745063Y-91204592D01*
X106683903Y-90976337D01*
X106584035Y-90762171D01*
X106568414Y-90739861D01*
X106448494Y-90568597D01*
X106281402Y-90401506D01*
X106281396Y-90401501D01*
X106095842Y-90271575D01*
X106052217Y-90216998D01*
X106045023Y-90147500D01*
X106076546Y-90085145D01*
X106095842Y-90068425D01*
X106151667Y-90029336D01*
X106281401Y-89938495D01*
X106448495Y-89771401D01*
X106584035Y-89577830D01*
X106683903Y-89363663D01*
X106745063Y-89135408D01*
X106765659Y-88900000D01*
X106745063Y-88664592D01*
X106683903Y-88436337D01*
X106584035Y-88222171D01*
X106552789Y-88177546D01*
X106448494Y-88028597D01*
X106281402Y-87861506D01*
X106281396Y-87861501D01*
X106095842Y-87731575D01*
X106052217Y-87676998D01*
X106045023Y-87607500D01*
X106076546Y-87545145D01*
X106095842Y-87528425D01*
X106180047Y-87469464D01*
X106281401Y-87398495D01*
X106448495Y-87231401D01*
X106584035Y-87037830D01*
X106683903Y-86823663D01*
X106745063Y-86595408D01*
X106765659Y-86360000D01*
X106745063Y-86124592D01*
X106683903Y-85896337D01*
X106584035Y-85682171D01*
X106577003Y-85672127D01*
X106448494Y-85488597D01*
X106281402Y-85321506D01*
X106281396Y-85321501D01*
X106095842Y-85191575D01*
X106052217Y-85136998D01*
X106045023Y-85067500D01*
X106076546Y-85005145D01*
X106095842Y-84988425D01*
X106215963Y-84904315D01*
X106281401Y-84858495D01*
X106448495Y-84691401D01*
X106584035Y-84497830D01*
X106683903Y-84283663D01*
X106745063Y-84055408D01*
X106765659Y-83820000D01*
X106745063Y-83584592D01*
X106683903Y-83356337D01*
X106584035Y-83142171D01*
X106448495Y-82948599D01*
X106326179Y-82826283D01*
X106292696Y-82764963D01*
X106297680Y-82695271D01*
X106339551Y-82639337D01*
X106370529Y-82622422D01*
X106502086Y-82573354D01*
X106502093Y-82573350D01*
X106617187Y-82487190D01*
X106617190Y-82487187D01*
X106703350Y-82372093D01*
X106703354Y-82372086D01*
X106753596Y-82237379D01*
X106753598Y-82237372D01*
X106759999Y-82177844D01*
X106760000Y-82177827D01*
X106760000Y-81530000D01*
X105843012Y-81530000D01*
X105875925Y-81472993D01*
X105910000Y-81345826D01*
X105910000Y-81214174D01*
X105875925Y-81087007D01*
X105843012Y-81030000D01*
X106760000Y-81030000D01*
X106760000Y-80382172D01*
X106759999Y-80382155D01*
X106753598Y-80322627D01*
X106753596Y-80322620D01*
X106703354Y-80187913D01*
X106703350Y-80187906D01*
X106617190Y-80072812D01*
X106617187Y-80072809D01*
X106502093Y-79986649D01*
X106502086Y-79986645D01*
X106367379Y-79936403D01*
X106367372Y-79936401D01*
X106307844Y-79930000D01*
X105660000Y-79930000D01*
X105660000Y-80846988D01*
X105602993Y-80814075D01*
X105475826Y-80780000D01*
X105344174Y-80780000D01*
X105217007Y-80814075D01*
X105160000Y-80846988D01*
X105160000Y-79930000D01*
X104512155Y-79930000D01*
X104452627Y-79936401D01*
X104452620Y-79936403D01*
X104317913Y-79986645D01*
X104317906Y-79986649D01*
X104202812Y-80072809D01*
X104202809Y-80072812D01*
X104116649Y-80187906D01*
X104116645Y-80187913D01*
X104066403Y-80322620D01*
X104066401Y-80322627D01*
X104060000Y-80382155D01*
X104060000Y-81030000D01*
X104976988Y-81030000D01*
X104944075Y-81087007D01*
X104910000Y-81214174D01*
X104910000Y-81345826D01*
X104944075Y-81472993D01*
X104976988Y-81530000D01*
X104060000Y-81530000D01*
X104060000Y-82177844D01*
X104066401Y-82237372D01*
X104066403Y-82237379D01*
X104116645Y-82372086D01*
X104116649Y-82372093D01*
X104202809Y-82487187D01*
X104202812Y-82487190D01*
X104317906Y-82573350D01*
X104317913Y-82573354D01*
X104449470Y-82622421D01*
X104505403Y-82664292D01*
X104529821Y-82729756D01*
X104514970Y-82798029D01*
X104493819Y-82826284D01*
X104371503Y-82948600D01*
X104235965Y-83142169D01*
X104235964Y-83142171D01*
X104136098Y-83356335D01*
X104136094Y-83356344D01*
X104074938Y-83584586D01*
X104074936Y-83584596D01*
X104054341Y-83819999D01*
X104054341Y-83820000D01*
X104074936Y-84055403D01*
X104074938Y-84055413D01*
X104136094Y-84283655D01*
X104136096Y-84283659D01*
X104136097Y-84283663D01*
X104171927Y-84360500D01*
X104235965Y-84497830D01*
X104235967Y-84497834D01*
X104371501Y-84691395D01*
X104371506Y-84691402D01*
X104538597Y-84858493D01*
X104538603Y-84858498D01*
X104724158Y-84988425D01*
X104767783Y-85043002D01*
X104774977Y-85112500D01*
X104743454Y-85174855D01*
X104724158Y-85191575D01*
X104538597Y-85321505D01*
X104371505Y-85488597D01*
X104235965Y-85682169D01*
X104235964Y-85682171D01*
X104136098Y-85896335D01*
X104136094Y-85896344D01*
X104074938Y-86124586D01*
X104074936Y-86124596D01*
X104054341Y-86359999D01*
X104054341Y-86360000D01*
X104074936Y-86595403D01*
X104074938Y-86595413D01*
X104136094Y-86823655D01*
X104136096Y-86823659D01*
X104136097Y-86823663D01*
X104177105Y-86911604D01*
X104235965Y-87037830D01*
X104235967Y-87037834D01*
X104262436Y-87075635D01*
X104358459Y-87212770D01*
X104371501Y-87231395D01*
X104371506Y-87231402D01*
X104538597Y-87398493D01*
X104538603Y-87398498D01*
X104724158Y-87528425D01*
X104767783Y-87583002D01*
X104774977Y-87652500D01*
X104743454Y-87714855D01*
X104724158Y-87731575D01*
X104538597Y-87861505D01*
X104371505Y-88028597D01*
X104235965Y-88222169D01*
X104235964Y-88222171D01*
X104136098Y-88436335D01*
X104136094Y-88436344D01*
X104074938Y-88664586D01*
X104074936Y-88664596D01*
X104054341Y-88899999D01*
X104054341Y-88900000D01*
X104074936Y-89135403D01*
X104074938Y-89135413D01*
X104136094Y-89363655D01*
X104136096Y-89363659D01*
X104136097Y-89363663D01*
X104168133Y-89432364D01*
X104235965Y-89577830D01*
X104235967Y-89577834D01*
X104371501Y-89771395D01*
X104371506Y-89771402D01*
X104538597Y-89938493D01*
X104538603Y-89938498D01*
X104724158Y-90068425D01*
X104767783Y-90123002D01*
X104774977Y-90192500D01*
X104743454Y-90254855D01*
X104724158Y-90271575D01*
X104538597Y-90401505D01*
X104371505Y-90568597D01*
X104235965Y-90762169D01*
X104235964Y-90762171D01*
X104136098Y-90976335D01*
X104136094Y-90976344D01*
X104074938Y-91204586D01*
X104074936Y-91204596D01*
X104054341Y-91439999D01*
X104054341Y-91440000D01*
X104074936Y-91675403D01*
X104074938Y-91675413D01*
X104136094Y-91903655D01*
X104136096Y-91903659D01*
X104136097Y-91903663D01*
X104191433Y-92022331D01*
X104235965Y-92117830D01*
X104235967Y-92117834D01*
X104371501Y-92311395D01*
X104371506Y-92311402D01*
X104538597Y-92478493D01*
X104538603Y-92478498D01*
X104724158Y-92608425D01*
X104767783Y-92663002D01*
X104774977Y-92732500D01*
X104743454Y-92794855D01*
X104724158Y-92811575D01*
X104538597Y-92941505D01*
X104371505Y-93108597D01*
X104235965Y-93302169D01*
X104235964Y-93302171D01*
X104136098Y-93516335D01*
X104136094Y-93516344D01*
X104074938Y-93744586D01*
X104074936Y-93744596D01*
X104054341Y-93979999D01*
X104054341Y-93980000D01*
X104074936Y-94215403D01*
X104074938Y-94215413D01*
X104136094Y-94443655D01*
X104136096Y-94443659D01*
X104136097Y-94443663D01*
X104210168Y-94602508D01*
X104235965Y-94657830D01*
X104235967Y-94657834D01*
X104371501Y-94851395D01*
X104371506Y-94851402D01*
X104538597Y-95018493D01*
X104538603Y-95018498D01*
X104724158Y-95148425D01*
X104767783Y-95203002D01*
X104774977Y-95272500D01*
X104743454Y-95334855D01*
X104724158Y-95351575D01*
X104538600Y-95481503D01*
X104487762Y-95532342D01*
X104436921Y-95583182D01*
X104375601Y-95616666D01*
X104349242Y-95619500D01*
X99225303Y-95619500D01*
X99051341Y-95654103D01*
X99051329Y-95654106D01*
X98969392Y-95688045D01*
X98969393Y-95688046D01*
X98887455Y-95721985D01*
X98799040Y-95781063D01*
X98799039Y-95781064D01*
X98739961Y-95820537D01*
X97034064Y-97526434D01*
X96972741Y-97559919D01*
X96903049Y-97554935D01*
X96847116Y-97513063D01*
X96830201Y-97482086D01*
X96781818Y-97352364D01*
X96774000Y-97309031D01*
X96774000Y-96030966D01*
X96781818Y-95987632D01*
X96783794Y-95982333D01*
X96783796Y-95982331D01*
X96834091Y-95847483D01*
X96840500Y-95787873D01*
X96840500Y-95714500D01*
X96860185Y-95647461D01*
X96912989Y-95601706D01*
X96964500Y-95590500D01*
X97327462Y-95590500D01*
X97339586Y-95591700D01*
X97339645Y-95591103D01*
X97345707Y-95591700D01*
X97345708Y-95591700D01*
X97523093Y-95591700D01*
X97523094Y-95591699D01*
X97697066Y-95557095D01*
X97860947Y-95489212D01*
X98008436Y-95390664D01*
X98133864Y-95265236D01*
X98232412Y-95117747D01*
X98300295Y-94953866D01*
X98334900Y-94779892D01*
X98334900Y-94602508D01*
X98300295Y-94428534D01*
X98232412Y-94264653D01*
X98199511Y-94215413D01*
X98133865Y-94117165D01*
X98133864Y-94117164D01*
X98007236Y-93990536D01*
X98007232Y-93990533D01*
X98007230Y-93990531D01*
X97948161Y-93951064D01*
X97948160Y-93951063D01*
X97859744Y-93891985D01*
X97859742Y-93891984D01*
X97777807Y-93858046D01*
X97777806Y-93858046D01*
X97695866Y-93824105D01*
X97695858Y-93824103D01*
X97521896Y-93789500D01*
X97521892Y-93789500D01*
X97521891Y-93789500D01*
X96964499Y-93789500D01*
X96897460Y-93769815D01*
X96851705Y-93717011D01*
X96840499Y-93665500D01*
X96840499Y-93592129D01*
X96840498Y-93592123D01*
X96834091Y-93532516D01*
X96781818Y-93392364D01*
X96774000Y-93349031D01*
X96774000Y-92070966D01*
X96781818Y-92027632D01*
X96783794Y-92022333D01*
X96783796Y-92022331D01*
X96834091Y-91887483D01*
X96840500Y-91827873D01*
X96840500Y-91754500D01*
X96860185Y-91687461D01*
X96912989Y-91641706D01*
X96964500Y-91630500D01*
X97623493Y-91630500D01*
X97623494Y-91630499D01*
X97797466Y-91595895D01*
X97879406Y-91561953D01*
X97961347Y-91528013D01*
X98071233Y-91454589D01*
X98108836Y-91429464D01*
X98235464Y-91302836D01*
X98334012Y-91155347D01*
X98401895Y-90991466D01*
X98436500Y-90817492D01*
X98436500Y-90640108D01*
X98401895Y-90466134D01*
X98334012Y-90302253D01*
X98309765Y-90265965D01*
X98235465Y-90154765D01*
X98235459Y-90154758D01*
X98110041Y-90029340D01*
X98110034Y-90029334D01*
X97962548Y-89930788D01*
X97798666Y-89862905D01*
X97798658Y-89862903D01*
X97624696Y-89828300D01*
X97624692Y-89828300D01*
X97447308Y-89828300D01*
X97447307Y-89828300D01*
X97441245Y-89828897D01*
X97441186Y-89828299D01*
X97429062Y-89829500D01*
X96964499Y-89829500D01*
X96897460Y-89809815D01*
X96851705Y-89757011D01*
X96840499Y-89705500D01*
X96840499Y-89632129D01*
X96840498Y-89632123D01*
X96834091Y-89572516D01*
X96781818Y-89432364D01*
X96774000Y-89389031D01*
X96774000Y-88110966D01*
X96781818Y-88067632D01*
X96783794Y-88062333D01*
X96783796Y-88062331D01*
X96834091Y-87927483D01*
X96840500Y-87867873D01*
X96840500Y-87794500D01*
X96860185Y-87727461D01*
X96912989Y-87681706D01*
X96964500Y-87670500D01*
X97570293Y-87670500D01*
X97570294Y-87670499D01*
X97744266Y-87635895D01*
X97826206Y-87601953D01*
X97908147Y-87568013D01*
X97942371Y-87545145D01*
X98021624Y-87492190D01*
X98032962Y-87484614D01*
X98055636Y-87469464D01*
X98184664Y-87340436D01*
X98283212Y-87192947D01*
X98351095Y-87029066D01*
X98385700Y-86855092D01*
X98385700Y-86677708D01*
X98351095Y-86503734D01*
X98283212Y-86339854D01*
X98184664Y-86192364D01*
X98184662Y-86192362D01*
X98184660Y-86192359D01*
X98059240Y-86066939D01*
X97911743Y-85968386D01*
X97747866Y-85900505D01*
X97747858Y-85900503D01*
X97573896Y-85865900D01*
X97573892Y-85865900D01*
X97396508Y-85865900D01*
X97390384Y-85867118D01*
X97366195Y-85869500D01*
X96964499Y-85869500D01*
X96897460Y-85849815D01*
X96851705Y-85797011D01*
X96840499Y-85745500D01*
X96840499Y-85672129D01*
X96840498Y-85672123D01*
X96837514Y-85644366D01*
X96834091Y-85612517D01*
X96834091Y-85612516D01*
X96781818Y-85472364D01*
X96774000Y-85429031D01*
X96774000Y-84150966D01*
X96781818Y-84107632D01*
X96783794Y-84102333D01*
X96783796Y-84102331D01*
X96834091Y-83967483D01*
X96840500Y-83907873D01*
X96840500Y-83834500D01*
X96860185Y-83767461D01*
X96912989Y-83721706D01*
X96964500Y-83710500D01*
X97466293Y-83710500D01*
X97466294Y-83710499D01*
X97640266Y-83675895D01*
X97722206Y-83641953D01*
X97804147Y-83608013D01*
X97804149Y-83608011D01*
X97804152Y-83608010D01*
X97892555Y-83548939D01*
X97892555Y-83548938D01*
X97892559Y-83548936D01*
X97951636Y-83509464D01*
X98083063Y-83378036D01*
X98181612Y-83230547D01*
X98249494Y-83066666D01*
X98284100Y-82892692D01*
X98284100Y-82715309D01*
X98284100Y-82715306D01*
X98284099Y-82715304D01*
X98273952Y-82664292D01*
X98249494Y-82541334D01*
X98181612Y-82377454D01*
X98181610Y-82377451D01*
X98181608Y-82377447D01*
X98083063Y-82229965D01*
X98083060Y-82229961D01*
X97957638Y-82104539D01*
X97957634Y-82104536D01*
X97810152Y-82005991D01*
X97810142Y-82005986D01*
X97646266Y-81938106D01*
X97646258Y-81938104D01*
X97472294Y-81903500D01*
X97472291Y-81903500D01*
X97294908Y-81903500D01*
X97276722Y-81907117D01*
X97252532Y-81909500D01*
X96964499Y-81909500D01*
X96897460Y-81889815D01*
X96851705Y-81837011D01*
X96840499Y-81785500D01*
X96840499Y-81712129D01*
X96840498Y-81712123D01*
X96834091Y-81652516D01*
X96781818Y-81512364D01*
X96774000Y-81469031D01*
X96774000Y-80190966D01*
X96781818Y-80147632D01*
X96783794Y-80142333D01*
X96783796Y-80142331D01*
X96834091Y-80007483D01*
X96840500Y-79947873D01*
X96840500Y-79874500D01*
X96860185Y-79807461D01*
X96912989Y-79761706D01*
X96964500Y-79750500D01*
X97616293Y-79750500D01*
X97616294Y-79750499D01*
X97790266Y-79715895D01*
X97872206Y-79681953D01*
X97954147Y-79648013D01*
X98074809Y-79567389D01*
X98101636Y-79549464D01*
X98235463Y-79415636D01*
X98334012Y-79268147D01*
X98401894Y-79104266D01*
X98436500Y-78930292D01*
X98436500Y-78752909D01*
X98436500Y-78752906D01*
X98436499Y-78752904D01*
X98433932Y-78739998D01*
X117374891Y-78739998D01*
X117374891Y-78740001D01*
X117395300Y-79025362D01*
X117456109Y-79304895D01*
X117556091Y-79572958D01*
X117693191Y-79824038D01*
X117693196Y-79824046D01*
X117799882Y-79966561D01*
X117799883Y-79966562D01*
X118694767Y-79071677D01*
X118706497Y-79099995D01*
X118789670Y-79224472D01*
X118895528Y-79330330D01*
X119020005Y-79413503D01*
X119048320Y-79425231D01*
X118153436Y-80320115D01*
X118295960Y-80426807D01*
X118295961Y-80426808D01*
X118547042Y-80563908D01*
X118547041Y-80563908D01*
X118815104Y-80663890D01*
X119094637Y-80724699D01*
X119379999Y-80745109D01*
X119380001Y-80745109D01*
X119665362Y-80724699D01*
X119944895Y-80663890D01*
X120212958Y-80563908D01*
X120464047Y-80426803D01*
X120606561Y-80320116D01*
X120606562Y-80320115D01*
X119711679Y-79425231D01*
X119739995Y-79413503D01*
X119864472Y-79330330D01*
X119970330Y-79224472D01*
X120053503Y-79099995D01*
X120065231Y-79071678D01*
X120960115Y-79966562D01*
X120960116Y-79966561D01*
X121066803Y-79824047D01*
X121203908Y-79572958D01*
X121303890Y-79304895D01*
X121364699Y-79025362D01*
X121385109Y-78740001D01*
X121385109Y-78739998D01*
X121364699Y-78454637D01*
X121303890Y-78175104D01*
X121203908Y-77907041D01*
X121066808Y-77655961D01*
X121066807Y-77655960D01*
X120960115Y-77513436D01*
X120065231Y-78408320D01*
X120053503Y-78380005D01*
X119970330Y-78255528D01*
X119864472Y-78149670D01*
X119739995Y-78066497D01*
X119711678Y-78054767D01*
X120606562Y-77159883D01*
X120606561Y-77159882D01*
X120464046Y-77053196D01*
X120464038Y-77053191D01*
X120212957Y-76916091D01*
X120212958Y-76916091D01*
X119944895Y-76816109D01*
X119665362Y-76755300D01*
X119380001Y-76734891D01*
X119379999Y-76734891D01*
X119094637Y-76755300D01*
X118815104Y-76816109D01*
X118547041Y-76916091D01*
X118295961Y-77053191D01*
X118295953Y-77053196D01*
X118153437Y-77159882D01*
X118153436Y-77159883D01*
X119048321Y-78054767D01*
X119020005Y-78066497D01*
X118895528Y-78149670D01*
X118789670Y-78255528D01*
X118706497Y-78380005D01*
X118694768Y-78408321D01*
X117799883Y-77513436D01*
X117799882Y-77513437D01*
X117693196Y-77655953D01*
X117693191Y-77655961D01*
X117556091Y-77907041D01*
X117456109Y-78175104D01*
X117395300Y-78454637D01*
X117374891Y-78739998D01*
X98433932Y-78739998D01*
X98401895Y-78578941D01*
X98401894Y-78578934D01*
X98334012Y-78415054D01*
X98334010Y-78415051D01*
X98334008Y-78415047D01*
X98235463Y-78267565D01*
X98235460Y-78267561D01*
X98110038Y-78142139D01*
X98110034Y-78142136D01*
X97962552Y-78043591D01*
X97962542Y-78043586D01*
X97798666Y-77975706D01*
X97798658Y-77975704D01*
X97624694Y-77941100D01*
X97624691Y-77941100D01*
X97447308Y-77941100D01*
X97447306Y-77941100D01*
X97417058Y-77947117D01*
X97392866Y-77949500D01*
X96964499Y-77949500D01*
X96897460Y-77929815D01*
X96851705Y-77877011D01*
X96840499Y-77825500D01*
X96840499Y-77752129D01*
X96840498Y-77752123D01*
X96834091Y-77692516D01*
X96781818Y-77552364D01*
X96774000Y-77509031D01*
X96774000Y-76229537D01*
X96781818Y-76186203D01*
X96833597Y-76047376D01*
X96833598Y-76047372D01*
X96839999Y-75987844D01*
X96840000Y-75987827D01*
X96840000Y-75140000D01*
X96774000Y-75140000D01*
X96774000Y-74640000D01*
X96840000Y-74640000D01*
X96840000Y-73792172D01*
X96839999Y-73792155D01*
X96833598Y-73732627D01*
X96833596Y-73732620D01*
X96781818Y-73593794D01*
X96774000Y-73550461D01*
X96774000Y-70797619D01*
X96793685Y-70730580D01*
X96841522Y-70656145D01*
X96930091Y-70462207D01*
X96990157Y-70257638D01*
X97020500Y-70046603D01*
X97020500Y-69940000D01*
X97020500Y-69874108D01*
X97020500Y-69204500D01*
X97040185Y-69137461D01*
X97092989Y-69091706D01*
X97144500Y-69080500D01*
X106195116Y-69080500D01*
X106262155Y-69100185D01*
G37*
G04 #@! TD.AperFunction*
M02*
