M48
; DRILL file {KiCad 8.0.3} date 2024-06-20T09:06:05+1200
; FORMAT={-:-/ absolute / metric / decimal}
; #@! TF.CreationDate,2024-06-20T09:06:05+12:00
; #@! TF.GenerationSoftware,Kicad,Pcbnew,8.0.3
; #@! TF.FileFunction,Plated,1,2,PTH
FMAT,2
METRIC
; #@! TA.AperFunction,Plated,PTH,ViaDrill
T1C0.300
; #@! TA.AperFunction,Plated,PTH,ComponentDrill
T2C1.000
; #@! TA.AperFunction,Plated,PTH,ComponentDrill
T3C1.520
%
G90
G05
T1
X97.231Y-98.603
X97.282Y-110.53
X97.333Y-106.578
X97.384Y-82.804
X97.434Y-94.691
X97.485Y-86.766
X97.485Y-102.616
X97.536Y-74.93
X97.536Y-78.842
X97.536Y-90.729
T2
X105.41Y-81.28
X105.41Y-83.82
X105.41Y-86.36
X105.41Y-88.9
X105.41Y-91.44
X105.41Y-93.98
X105.41Y-96.52
X105.41Y-99.06
X105.41Y-101.6
X105.41Y-104.14
X109.22Y-81.28
X109.22Y-83.82
X109.22Y-86.36
X109.22Y-88.9
X109.22Y-91.44
X109.22Y-93.98
X109.22Y-96.52
X109.22Y-99.06
X109.22Y-101.6
X109.22Y-104.14
T3
X119.38Y-73.66
X119.38Y-78.74
X119.38Y-83.82
X119.38Y-88.9
X119.38Y-96.52
X119.38Y-101.6
X119.38Y-106.68
X119.38Y-111.76
M30
