G04 #@! TF.GenerationSoftware,KiCad,Pcbnew,8.0.3*
G04 #@! TF.CreationDate,2024-06-20T09:06:03+12:00*
G04 #@! TF.ProjectId,crt_card_edge_adapter,6372745f-6361-4726-945f-656467655f61,rev?*
G04 #@! TF.SameCoordinates,Original*
G04 #@! TF.FileFunction,Profile,NP*
%FSLAX46Y46*%
G04 Gerber Fmt 4.6, Leading zero omitted, Abs format (unit mm)*
G04 Created by KiCad (PCBNEW 8.0.3) date 2024-06-20 09:06:03*
%MOMM*%
%LPD*%
G01*
G04 APERTURE LIST*
G04 #@! TA.AperFunction,Profile*
%ADD10C,0.050000*%
G04 #@! TD*
G04 #@! TA.AperFunction,Profile*
%ADD11C,0.120000*%
G04 #@! TD*
G04 APERTURE END LIST*
D10*
X124841000Y-68580000D02*
G75*
G02*
X125095000Y-68834000I0J-254000D01*
G01*
X125095000Y-68834000D02*
X125095000Y-116586000D01*
X96520000Y-68834000D02*
G75*
G02*
X96774000Y-68580000I254000J0D01*
G01*
X96774000Y-116840000D02*
G75*
G02*
X96520000Y-116586000I0J254000D01*
G01*
X96774000Y-68580000D02*
X124841000Y-68580000D01*
X96774000Y-116840000D02*
X124841000Y-116840000D01*
X96520000Y-116205000D02*
X96520000Y-116586000D01*
X96520000Y-69215000D02*
X96520000Y-68834000D01*
X125095000Y-116586000D02*
G75*
G02*
X124841000Y-116840000I-254000J0D01*
G01*
D11*
X86490000Y-107560000D02*
X86490000Y-71920000D01*
X86490000Y-107560000D02*
X95530000Y-107560000D01*
X86490000Y-109540000D02*
X86490000Y-113500000D01*
X87480000Y-70930000D02*
X95530000Y-70930000D01*
X87480000Y-114490000D02*
X95530000Y-114490000D01*
X95530000Y-109540000D02*
X86490000Y-109540000D01*
X96520000Y-69940000D02*
X96520000Y-69215000D01*
X96520000Y-115480000D02*
X96520000Y-116205000D01*
X86490000Y-71920000D02*
G75*
G02*
X87480000Y-70930000I989999J1D01*
G01*
X87480000Y-114490000D02*
G75*
G02*
X86490000Y-113500000I0J990000D01*
G01*
X95530000Y-107560000D02*
G75*
G02*
X95530000Y-109540000I0J-990000D01*
G01*
X95530000Y-114490000D02*
G75*
G02*
X96520000Y-115480000I0J-990000D01*
G01*
X96520000Y-69940000D02*
G75*
G02*
X95530000Y-70930000I-989999J-1D01*
G01*
M02*
